<?xml version="1.0" encoding="utf-8"?>
<!-- Generator: Adobe Illustrator 22.0.1, SVG Export Plug-In . SVG Version: 6.00 Build 0)  -->
<svg version="1.1" id="Capa_1" focusable="false" xmlns="http://www.w3.org/2000/svg" xmlns:xlink="http://www.w3.org/1999/xlink"
	 x="0px" y="0px" viewBox="0 0 26 26" style="enable-background:new 0 0 26 26;" xml:space="preserve">
<style type="text/css">
	.st0{fill:#FFFFFF;}
</style>
<path class="st0" d="M3.5,8.8l9.1,4.1c0.3,0.1,0.6,0.1,0.8,0l9.1-4.1c0.6-0.3,0.6-1.3,0-1.6l-9.1-4.1c-0.3-0.1-0.6-0.1-0.8,0
	L3.5,7.2C2.8,7.5,2.8,8.5,3.5,8.8z M22.5,12.2l-2.3-1l-6.3,2.9c-0.3,0.1-0.6,0.2-0.9,0.2s-0.6-0.1-0.9-0.2l-6.3-2.9l-2.3,1
	c-0.6,0.3-0.6,1.3,0,1.6l9.1,4.1c0.3,0.1,0.6,0.1,0.8,0l9.1-4.1C23.2,13.5,23.2,12.5,22.5,12.2L22.5,12.2z M22.5,17.2l-2.3-1
	l-6.3,2.9c-0.3,0.1-0.6,0.2-0.9,0.2s-0.6-0.1-0.9-0.2l-6.3-2.9l-2.3,1c-0.6,0.3-0.6,1.3,0,1.6l9.1,4.1c0.3,0.1,0.6,0.1,0.8,0
	l9.1-4.1C23.2,18.5,23.2,17.5,22.5,17.2z"/>
</svg>
