<?xml version="1.0" encoding="utf-8"?>
<!-- Generator: Adobe Illustrator 22.0.0, SVG Export Plug-In . SVG Version: 6.00 Build 0)  -->
<svg version="1.1" id="Capa_1" xmlns="http://www.w3.org/2000/svg" xmlns:xlink="http://www.w3.org/1999/xlink" x="0px" y="0px"
	 viewBox="0 0 150 150" style="enable-background:new 0 0 150 150;" xml:space="preserve">
<style type="text/css">
	.st0{fill:#E9F0F8;}
	.st1{fill:#C4D9ED;}
	.st2{fill:#D5E7F7;}
	.st3{fill:#DDEBF9;}
	.st4{fill:#AECAE0;}
	.st5{fill:#2E3552;}
	.st6{fill:#7EACBD;}
	.st7{fill:#A9D2A0;}
	.st8{fill:#ADD39B;}
	.st9{fill:#CF8E55;}
	.st10{fill:#AA5B17;}
	.st11{fill:#2D3A64;}
	.st12{fill:#E79E43;}
	.st13{fill:#D57910;}
	.st14{fill:#415EA7;}
	.st15{fill:#B94E43;}
	.st16{fill:#AB403B;}
	.st17{fill:#36498C;}
	.st18{fill:#E2923D;}
	.st19{fill:#C0783D;}
	.st20{fill:#7897CE;}
	.st21{fill:#B5C9E9;}
	.st22{fill:#88B375;}
	.st23{fill:#AB3F3A;}
	.st24{fill:#D8716C;}
	.st25{fill:#6787C4;}
</style>
<g>
	<path class="st0" d="M8.8,114.4c0,0-20.4-18.8,0.9-29c13.5-6.5,10.3-8.1,14.6-17.1c5.3-11,31.9-19.3,43-2.4
		c8.2,12.4,12.8,12.2,18.8,10c6.8-2.5,12.8-7.9,20.9-4.2c11.7,5.3,13.3,16.7,20.8,14.2c19.9-6.6,27.8,22.5,10.1,28.6L8.8,114.4z"/>
	<g>
		<g>
			<rect x="99.6" y="63.5" class="st1" width="9.2" height="44.7"/>
			<rect x="101.7" y="63.5" class="st2" width="9.2" height="44.7"/>
			<g>
				<rect x="101.7" y="63.5" class="st1" width="9.2" height="2.6"/>
				<rect x="101.7" y="69.1" class="st1" width="9.2" height="2.6"/>
				<rect x="101.7" y="74.7" class="st1" width="9.2" height="2.6"/>
				<rect x="101.7" y="80.3" class="st1" width="9.2" height="2.6"/>
				<rect x="101.7" y="85.9" class="st1" width="9.2" height="2.6"/>
				<rect x="101.7" y="91.5" class="st1" width="9.2" height="2.6"/>
				<rect x="101.7" y="97.1" class="st1" width="9.2" height="2.6"/>
				<rect x="101.7" y="102.7" class="st1" width="9.2" height="2.6"/>
			</g>
		</g>
		<g>
			<rect x="114.3" y="69.9" class="st1" width="9.2" height="38.4"/>
			<rect x="116.4" y="69.9" class="st2" width="9.2" height="38.4"/>
			<g>
				<rect x="116.4" y="69.9" class="st1" width="9.2" height="2.2"/>
				<rect x="116.4" y="74.7" class="st1" width="9.2" height="2.2"/>
				<rect x="116.4" y="79.5" class="st1" width="9.2" height="2.2"/>
				<rect x="116.4" y="84.3" class="st1" width="9.2" height="2.2"/>
				<rect x="116.4" y="89.1" class="st1" width="9.2" height="2.2"/>
				<rect x="116.4" y="93.9" class="st1" width="9.2" height="2.2"/>
				<rect x="116.4" y="98.7" class="st1" width="9.2" height="2.2"/>
				<rect x="116.4" y="103.5" class="st1" width="9.2" height="2.2"/>
			</g>
		</g>
		
			<rect x="94.6" y="106.9" transform="matrix(-1 -1.224647e-16 1.224647e-16 -1 193.1103 219.3121)" class="st3" width="3.8" height="5.6"/>
		<polygon class="st2" points="41.9,84.4 41.9,81 42.9,81 42.9,75.1 48.6,75.1 48.6,81 53.8,81 53.8,71.4 59.7,71.4 59.7,77.6 
			61,77.6 61,70.2 66.8,70.2 66.8,84.1 74.2,84.1 74.2,92.3 76.9,92.3 76.9,94.4 83.2,94.4 83.2,90.8 86.8,90.8 86.8,81.2 
			91.3,81.2 91.3,98.9 95.8,98.9 95.8,114.4 91.3,114.4 87.5,114.4 86.8,114.4 83.2,114.4 81.2,114.4 77.9,114.4 76.9,114.4 
			74.2,114.4 71.6,114.4 66.8,114.4 65.3,114.4 62.4,114.4 61,114.4 59.7,114.4 56.6,114.4 54.5,114.4 53.8,114.4 48.6,114.4 
			43,114.4 42.9,114.4 41.9,114.4 37.4,114.4 37.4,84.4 		"/>
		<g>
			<rect x="86.8" y="81.3" class="st1" width="4.5" height="2.2"/>
			<rect x="86.8" y="84.6" class="st1" width="4.5" height="2.2"/>
			<rect x="86.8" y="87.9" class="st1" width="4.5" height="2.2"/>
			<rect x="86.8" y="91.4" class="st1" width="4.5" height="2.2"/>
			<rect x="86.8" y="94.7" class="st1" width="4.5" height="2.2"/>
			<rect x="86.8" y="98.1" class="st1" width="4.5" height="2.2"/>
			<rect x="86.8" y="101.6" class="st1" width="4.5" height="2.2"/>
		</g>
		<rect x="85.2" y="81.3" class="st1" width="1.7" height="9.7"/>
		<rect x="79.9" y="91" class="st1" width="3.4" height="3.6"/>
		<rect x="52.7" y="71.4" class="st1" width="1.2" height="9.7"/>
		<rect x="60.3" y="70.2" class="st1" width="0.7" height="7.5"/>
		<g>
			<rect x="61" y="71.1" class="st1" width="5.8" height="1.4"/>
			<rect x="61" y="73.8" class="st1" width="5.8" height="1.4"/>
			<rect x="61" y="76.2" class="st1" width="5.8" height="1.4"/>
			<rect x="53.8" y="76.2" class="st1" width="5.8" height="1.4"/>
			<rect x="53.8" y="73.8" class="st1" width="5.8" height="1.4"/>
			<rect x="53.8" y="71.4" class="st1" width="5.8" height="1.4"/>
			<rect x="53.8" y="78.6" class="st1" width="13" height="1.4"/>
			<rect x="53.8" y="81" class="st1" width="13" height="1.4"/>
			<rect x="53.8" y="83.3" class="st1" width="13" height="0.9"/>
			<rect x="72" y="85.7" class="st1" width="1" height="1.4"/>
			<rect x="70.1" y="85.7" class="st1" width="1" height="1.4"/>
			<rect x="68.3" y="85.7" class="st1" width="1" height="1.4"/>
			<rect x="66.6" y="85.7" class="st1" width="1" height="1.4"/>
			<rect x="64.9" y="85.7" class="st1" width="1" height="1.4"/>
			<rect x="63.1" y="85.7" class="st1" width="1" height="1.4"/>
			<rect x="61.3" y="85.7" class="st1" width="1" height="1.4"/>
			<rect x="59.5" y="85.7" class="st1" width="1" height="1.4"/>
			<rect x="57.8" y="85.7" class="st1" width="1" height="1.4"/>
			<rect x="56" y="85.7" class="st1" width="1" height="1.4"/>
			<rect x="54.2" y="85.7" class="st1" width="1" height="1.4"/>
			<rect x="52.3" y="85.7" class="st1" width="1" height="1.4"/>
			<rect x="50.5" y="85.7" class="st1" width="1" height="1.4"/>
			<rect x="48.8" y="85.7" class="st1" width="1" height="1.4"/>
			<rect x="47.1" y="85.7" class="st1" width="1" height="1.4"/>
			<rect x="45.3" y="85.7" class="st1" width="1" height="1.4"/>
			<rect x="43.5" y="85.7" class="st1" width="1" height="1.4"/>
			<rect x="41.7" y="85.7" class="st1" width="1" height="1.4"/>
			<rect x="40" y="85.7" class="st1" width="1" height="1.4"/>
			<rect x="38.2" y="85.7" class="st1" width="1" height="1.4"/>
			<rect x="72" y="88.1" class="st1" width="1" height="1.4"/>
			<rect x="70.1" y="88.1" class="st1" width="1" height="1.4"/>
			<rect x="68.3" y="88.1" class="st1" width="1" height="1.4"/>
			<rect x="66.6" y="88.1" class="st1" width="1" height="1.4"/>
			<rect x="64.9" y="88.1" class="st1" width="1" height="1.4"/>
			<rect x="63.1" y="88.1" class="st1" width="1" height="1.4"/>
			<rect x="61.3" y="88.1" class="st1" width="1" height="1.4"/>
			<rect x="59.5" y="88.1" class="st1" width="1" height="1.4"/>
			<rect x="57.8" y="88.1" class="st1" width="1" height="1.4"/>
			<rect x="56" y="88.1" class="st1" width="1" height="1.4"/>
			<rect x="54.2" y="88.1" class="st1" width="1" height="1.4"/>
			<rect x="52.3" y="88.1" class="st1" width="1" height="1.4"/>
			<rect x="50.5" y="88.1" class="st1" width="1" height="1.4"/>
			<rect x="48.8" y="88.1" class="st1" width="1" height="1.4"/>
			<rect x="47.1" y="88.1" class="st1" width="1" height="1.4"/>
			<rect x="45.3" y="88.1" class="st1" width="1" height="1.4"/>
			<rect x="43.5" y="88.1" class="st1" width="1" height="1.4"/>
			<rect x="41.7" y="88.1" class="st1" width="1" height="1.4"/>
			<rect x="40" y="88.1" class="st1" width="1" height="1.4"/>
			<rect x="38.2" y="88.1" class="st1" width="1" height="1.4"/>
			<rect x="72" y="90.5" class="st1" width="1" height="1.4"/>
			<rect x="70.1" y="90.5" class="st1" width="1" height="1.4"/>
			<rect x="68.3" y="90.5" class="st1" width="1" height="1.4"/>
			<rect x="66.6" y="90.5" class="st1" width="1" height="1.4"/>
			<rect x="64.9" y="90.5" class="st1" width="1" height="1.4"/>
			<rect x="63.1" y="90.5" class="st1" width="1" height="1.4"/>
			<rect x="61.3" y="90.5" class="st1" width="1" height="1.4"/>
			<rect x="59.5" y="90.5" class="st1" width="1" height="1.4"/>
			<rect x="57.8" y="90.5" class="st1" width="1" height="1.4"/>
			<rect x="56" y="90.5" class="st1" width="1" height="1.4"/>
			<rect x="54.2" y="90.5" class="st1" width="1" height="1.4"/>
			<rect x="52.3" y="90.5" class="st1" width="1" height="1.4"/>
			<rect x="50.5" y="90.5" class="st1" width="1" height="1.4"/>
			<rect x="48.8" y="90.5" class="st1" width="1" height="1.4"/>
			<rect x="47.1" y="90.5" class="st1" width="1" height="1.4"/>
			<rect x="45.3" y="90.5" class="st1" width="1" height="1.4"/>
			<rect x="43.5" y="90.5" class="st1" width="1" height="1.4"/>
			<rect x="41.7" y="90.5" class="st1" width="1" height="1.4"/>
			<rect x="40" y="90.5" class="st1" width="1" height="1.4"/>
			<rect x="38.2" y="90.5" class="st1" width="1" height="1.4"/>
			<rect x="72" y="93.1" class="st1" width="1" height="1.4"/>
			<rect x="70.1" y="93.1" class="st1" width="1" height="1.4"/>
			<rect x="68.3" y="93.1" class="st1" width="1" height="1.4"/>
			<rect x="66.6" y="93.1" class="st1" width="1" height="1.4"/>
			<rect x="64.9" y="93.1" class="st1" width="1" height="1.4"/>
			<rect x="63.1" y="93.1" class="st1" width="1" height="1.4"/>
			<rect x="61.3" y="93.1" class="st1" width="1" height="1.4"/>
			<rect x="59.5" y="93.1" class="st1" width="1" height="1.4"/>
			<rect x="57.8" y="93.1" class="st1" width="1" height="1.4"/>
			<rect x="56" y="93.1" class="st1" width="1" height="1.4"/>
			<rect x="54.2" y="93.1" class="st1" width="1" height="1.4"/>
			<rect x="52.3" y="93.1" class="st1" width="1" height="1.4"/>
			<rect x="50.5" y="93.1" class="st1" width="1" height="1.4"/>
			<rect x="48.8" y="93.1" class="st1" width="1" height="1.4"/>
			<rect x="47.1" y="93.1" class="st1" width="1" height="1.4"/>
			<rect x="45.3" y="93.1" class="st1" width="1" height="1.4"/>
			<rect x="43.5" y="93.1" class="st1" width="1" height="1.4"/>
			<rect x="41.7" y="93.1" class="st1" width="1" height="1.4"/>
			<rect x="40" y="93.1" class="st1" width="1" height="1.4"/>
			<rect x="38.2" y="93.1" class="st1" width="1" height="1.4"/>
			<rect x="72" y="95.6" class="st1" width="1" height="1.4"/>
			<rect x="70.1" y="95.6" class="st1" width="1" height="1.4"/>
			<rect x="68.3" y="95.6" class="st1" width="1" height="1.4"/>
			<rect x="66.6" y="95.6" class="st1" width="1" height="1.4"/>
			<rect x="64.9" y="95.6" class="st1" width="1" height="1.4"/>
			<rect x="63.1" y="95.6" class="st1" width="1" height="1.4"/>
			<rect x="61.3" y="95.6" class="st1" width="1" height="1.4"/>
			<rect x="59.5" y="95.6" class="st1" width="1" height="1.4"/>
			<rect x="57.8" y="95.6" class="st1" width="1" height="1.4"/>
			<rect x="56" y="95.6" class="st1" width="1" height="1.4"/>
			<rect x="54.2" y="95.6" class="st1" width="1" height="1.4"/>
			<rect x="52.3" y="95.6" class="st1" width="1" height="1.4"/>
			<rect x="50.5" y="95.6" class="st1" width="1" height="1.4"/>
			<rect x="48.8" y="95.6" class="st1" width="1" height="1.4"/>
			<rect x="47.1" y="95.6" class="st1" width="1" height="1.4"/>
			<rect x="45.3" y="95.6" class="st1" width="1" height="1.4"/>
			<rect x="43.5" y="95.6" class="st1" width="1" height="1.4"/>
			<rect x="41.7" y="95.6" class="st1" width="1" height="1.4"/>
			<rect x="40" y="95.6" class="st1" width="1" height="1.4"/>
			<rect x="38.2" y="95.6" class="st1" width="1" height="1.4"/>
			<rect x="72" y="98" class="st1" width="1" height="1.4"/>
			<rect x="70.1" y="98" class="st1" width="1" height="1.4"/>
			<rect x="68.3" y="98" class="st1" width="1" height="1.4"/>
			<rect x="66.6" y="98" class="st1" width="1" height="1.4"/>
			<rect x="64.9" y="98" class="st1" width="1" height="1.4"/>
			<rect x="63.1" y="98" class="st1" width="1" height="1.4"/>
			<rect x="61.3" y="98" class="st1" width="1" height="1.4"/>
			<rect x="59.5" y="98" class="st1" width="1" height="1.4"/>
			<rect x="57.8" y="98" class="st1" width="1" height="1.4"/>
			<rect x="56" y="98" class="st1" width="1" height="1.4"/>
			<rect x="54.2" y="98" class="st1" width="1" height="1.4"/>
			<rect x="52.3" y="98" class="st1" width="1" height="1.4"/>
			<rect x="50.5" y="98" class="st1" width="1" height="1.4"/>
			<rect x="48.8" y="98" class="st1" width="1" height="1.4"/>
			<rect x="47.1" y="98" class="st1" width="1" height="1.4"/>
			<rect x="45.3" y="98" class="st1" width="1" height="1.4"/>
			<rect x="43.5" y="98" class="st1" width="1" height="1.4"/>
			<rect x="41.7" y="98" class="st1" width="1" height="1.4"/>
			<rect x="40" y="98" class="st1" width="1" height="1.4"/>
			<rect x="38.2" y="98" class="st1" width="1" height="1.4"/>
		</g>
		<rect x="57" y="102.3" class="st1" width="22.9" height="12.2"/>
		<rect x="74.3" y="108.5" class="st1" width="22.9" height="6.1"/>
		
			<rect x="32.3" y="104.3" transform="matrix(-1 -1.224647e-16 1.224647e-16 -1 87.4955 218.8557)" class="st1" width="22.9" height="10.3"/>
		<g>
			<rect x="74.1" y="103.8" class="st2" width="4.3" height="2.3"/>
			<rect x="68.6" y="103.8" class="st2" width="4.3" height="2.3"/>
			<rect x="63.3" y="103.8" class="st2" width="4.3" height="2.3"/>
			<rect x="58" y="103.8" class="st2" width="4.3" height="2.3"/>
		</g>
		<rect x="55.1" y="102.3" class="st4" width="2.2" height="12.2"/>
		<rect x="27.8" y="99.9" class="st4" width="2.2" height="14.6"/>
		
			<rect x="30" y="104.3" transform="matrix(-1 -1.224647e-16 1.224647e-16 -1 62.2792 218.8343)" class="st4" width="2.4" height="10.3"/>
		<g>
			<rect x="90.3" y="80.3" class="st3" width="0.1" height="1"/>
			<rect x="86" y="80.3" class="st3" width="0.1" height="1"/>
		</g>
		<rect x="30" y="99.9" class="st2" width="12.6" height="14.7"/>
		<rect x="30.8" y="97" class="st2" width="0.2" height="3"/>
		<g>
			<rect x="26.8" y="104" class="st2" width="15.7" height="10.6"/>
			<rect x="26.8" y="102.6" class="st1" width="15.7" height="3.4"/>
			<g>
				<rect x="40.7" y="107.1" class="st4" width="0.8" height="1.1"/>
				<rect x="39.2" y="107.1" class="st4" width="0.8" height="1.1"/>
				<rect x="37.7" y="107.1" class="st4" width="0.8" height="1.1"/>
				<rect x="36.3" y="107.1" class="st4" width="0.8" height="1.1"/>
				<rect x="34.9" y="107.1" class="st4" width="0.8" height="1.1"/>
				<rect x="33.4" y="107.1" class="st4" width="0.8" height="1.1"/>
				<rect x="31.9" y="107.1" class="st4" width="0.8" height="1.1"/>
				<rect x="30.4" y="107.1" class="st4" width="0.8" height="1.1"/>
				<rect x="29" y="107.1" class="st4" width="0.8" height="1.1"/>
				<rect x="27.6" y="107.1" class="st4" width="0.8" height="1.1"/>
				<rect x="40.7" y="109.1" class="st4" width="0.8" height="1.1"/>
				<rect x="39.2" y="109.1" class="st4" width="0.8" height="1.1"/>
				<rect x="37.7" y="109.1" class="st4" width="0.8" height="1.1"/>
				<rect x="36.3" y="109.1" class="st4" width="0.8" height="1.1"/>
				<rect x="34.9" y="109.1" class="st4" width="0.8" height="1.1"/>
				<rect x="33.4" y="109.1" class="st4" width="0.8" height="1.1"/>
				<rect x="31.9" y="109.1" class="st4" width="0.8" height="1.1"/>
				<rect x="30.4" y="109.1" class="st4" width="0.8" height="1.1"/>
				<rect x="29" y="109.1" class="st4" width="0.8" height="1.1"/>
				<rect x="27.6" y="109.1" class="st4" width="0.8" height="1.1"/>
				<rect x="40.7" y="111.1" class="st4" width="0.8" height="1.1"/>
				<rect x="39.2" y="111.1" class="st4" width="0.8" height="1.1"/>
				<rect x="37.7" y="111.1" class="st4" width="0.8" height="1.1"/>
				<rect x="36.3" y="111.1" class="st4" width="0.8" height="1.1"/>
				<rect x="34.9" y="111.1" class="st4" width="0.8" height="1.1"/>
				<rect x="33.4" y="111.1" class="st4" width="0.8" height="1.1"/>
				<rect x="31.9" y="111.1" class="st4" width="0.8" height="1.1"/>
				<rect x="30.4" y="111.1" class="st4" width="0.8" height="1.1"/>
				<rect x="29" y="111.1" class="st4" width="0.8" height="1.1"/>
				<rect x="27.6" y="111.1" class="st4" width="0.8" height="1.1"/>
				<rect x="40.7" y="103.6" class="st4" width="0.7" height="1.2"/>
				<rect x="33.9" y="103.6" class="st4" width="0.7" height="1.2"/>
				<rect x="28.6" y="103.6" class="st4" width="0.7" height="1.2"/>
			</g>
		</g>
		<g>
			<rect x="92.9" y="104" class="st2" width="15.7" height="10.6"/>
			<rect x="92.9" y="102.6" class="st1" width="15.7" height="3.4"/>
			<g>
				<rect x="106.7" y="107.1" class="st4" width="0.8" height="1.1"/>
				<rect x="105.2" y="107.1" class="st4" width="0.8" height="1.1"/>
				<rect x="103.7" y="107.1" class="st4" width="0.8" height="1.1"/>
				<rect x="102.3" y="107.1" class="st4" width="0.8" height="1.1"/>
				<rect x="100.9" y="107.1" class="st4" width="0.8" height="1.1"/>
				<rect x="99.5" y="107.1" class="st4" width="0.8" height="1.1"/>
				<rect x="97.9" y="107.1" class="st4" width="0.8" height="1.1"/>
				<rect x="96.5" y="107.1" class="st4" width="0.8" height="1.1"/>
				<rect x="95.1" y="107.1" class="st4" width="0.8" height="1.1"/>
				<rect x="93.7" y="107.1" class="st4" width="0.8" height="1.1"/>
				<rect x="106.7" y="109.1" class="st4" width="0.8" height="1.1"/>
				<rect x="105.2" y="109.1" class="st4" width="0.8" height="1.1"/>
				<rect x="103.7" y="109.1" class="st4" width="0.8" height="1.1"/>
				<rect x="102.3" y="109.1" class="st4" width="0.8" height="1.1"/>
				<rect x="100.9" y="109.1" class="st4" width="0.8" height="1.1"/>
				<rect x="99.5" y="109.1" class="st4" width="0.8" height="1.1"/>
				<rect x="97.9" y="109.1" class="st4" width="0.8" height="1.1"/>
				<rect x="96.5" y="109.1" class="st4" width="0.8" height="1.1"/>
				<rect x="95.1" y="109.1" class="st4" width="0.8" height="1.1"/>
				<rect x="93.7" y="109.1" class="st4" width="0.8" height="1.1"/>
				<rect x="106.7" y="111.1" class="st4" width="0.8" height="1.1"/>
				<rect x="105.2" y="111.1" class="st4" width="0.8" height="1.1"/>
				<rect x="103.7" y="111.1" class="st4" width="0.8" height="1.1"/>
				<rect x="102.3" y="111.1" class="st4" width="0.8" height="1.1"/>
				<rect x="100.9" y="111.1" class="st4" width="0.8" height="1.1"/>
				<rect x="99.5" y="111.1" class="st4" width="0.8" height="1.1"/>
				<rect x="97.9" y="111.1" class="st4" width="0.8" height="1.1"/>
				<rect x="96.5" y="111.1" class="st4" width="0.8" height="1.1"/>
				<rect x="95.1" y="111.1" class="st4" width="0.8" height="1.1"/>
				<rect x="93.7" y="111.1" class="st4" width="0.8" height="1.1"/>
				<rect x="106.7" y="103.6" class="st4" width="0.7" height="1.2"/>
				<rect x="100" y="103.6" class="st4" width="0.7" height="1.2"/>
				<rect x="94.6" y="103.6" class="st4" width="0.7" height="1.2"/>
			</g>
		</g>
		<g>
			<rect x="109.6" y="104" class="st2" width="15.7" height="10.6"/>
			<rect x="109.6" y="102.6" class="st1" width="15.7" height="3.4"/>
			<g>
				<rect x="123.4" y="107.1" class="st1" width="0.8" height="1.1"/>
				<rect x="121.9" y="107.1" class="st1" width="0.8" height="1.1"/>
				<rect x="120.4" y="107.1" class="st1" width="0.8" height="1.1"/>
				<rect x="119" y="107.1" class="st1" width="0.8" height="1.1"/>
				<rect x="117.6" y="107.1" class="st1" width="0.8" height="1.1"/>
				<rect x="116.1" y="107.1" class="st1" width="0.8" height="1.1"/>
				<rect x="114.6" y="107.1" class="st1" width="0.8" height="1.1"/>
				<rect x="113.2" y="107.1" class="st1" width="0.8" height="1.1"/>
				<rect x="111.8" y="107.1" class="st1" width="0.8" height="1.1"/>
				<rect x="110.3" y="107.1" class="st1" width="0.8" height="1.1"/>
				<rect x="123.4" y="109.1" class="st1" width="0.8" height="1.1"/>
				<rect x="121.9" y="109.1" class="st1" width="0.8" height="1.1"/>
				<rect x="120.4" y="109.1" class="st1" width="0.8" height="1.1"/>
				<rect x="119" y="109.1" class="st1" width="0.8" height="1.1"/>
				<rect x="117.6" y="109.1" class="st1" width="0.8" height="1.1"/>
				<rect x="116.1" y="109.1" class="st1" width="0.8" height="1.1"/>
				<rect x="114.6" y="109.1" class="st1" width="0.8" height="1.1"/>
				<rect x="113.2" y="109.1" class="st1" width="0.8" height="1.1"/>
				<rect x="111.8" y="109.1" class="st1" width="0.8" height="1.1"/>
				<rect x="110.3" y="109.1" class="st1" width="0.8" height="1.1"/>
				<rect x="123.4" y="111.1" class="st1" width="0.8" height="1.1"/>
				<rect x="121.9" y="111.1" class="st1" width="0.8" height="1.1"/>
				<rect x="120.4" y="111.1" class="st1" width="0.8" height="1.1"/>
				<rect x="119" y="111.1" class="st1" width="0.8" height="1.1"/>
				<rect x="117.6" y="111.1" class="st1" width="0.8" height="1.1"/>
				<rect x="116.1" y="111.1" class="st1" width="0.8" height="1.1"/>
				<rect x="114.6" y="111.1" class="st1" width="0.8" height="1.1"/>
				<rect x="113.2" y="111.1" class="st1" width="0.8" height="1.1"/>
				<rect x="111.8" y="111.1" class="st1" width="0.8" height="1.1"/>
				<rect x="110.3" y="111.1" class="st1" width="0.8" height="1.1"/>
			</g>
			<g>
				<rect x="123.4" y="103.6" class="st4" width="0.7" height="1.2"/>
				<rect x="116.7" y="103.6" class="st4" width="0.7" height="1.2"/>
				<rect x="111.3" y="103.6" class="st4" width="0.7" height="1.2"/>
			</g>
		</g>
		<g>
			<rect x="126.3" y="104" class="st2" width="15.7" height="10.6"/>
			<rect x="126.3" y="102.6" class="st1" width="15.7" height="3.4"/>
			<g>
				<rect x="140.1" y="107.1" class="st1" width="0.8" height="1.1"/>
				<rect x="138.6" y="107.1" class="st1" width="0.8" height="1.1"/>
				<rect x="137.1" y="107.1" class="st1" width="0.8" height="1.1"/>
				<rect x="135.7" y="107.1" class="st1" width="0.8" height="1.1"/>
				<rect x="134.3" y="107.1" class="st1" width="0.8" height="1.1"/>
				<rect x="132.9" y="107.1" class="st1" width="0.8" height="1.1"/>
				<rect x="131.4" y="107.1" class="st1" width="0.8" height="1.1"/>
				<rect x="129.9" y="107.1" class="st1" width="0.8" height="1.1"/>
				<rect x="128.5" y="107.1" class="st1" width="0.8" height="1.1"/>
				<rect x="127.1" y="107.1" class="st1" width="0.8" height="1.1"/>
				<rect x="140.1" y="109.1" class="st1" width="0.8" height="1.1"/>
				<rect x="138.6" y="109.1" class="st1" width="0.8" height="1.1"/>
				<rect x="137.1" y="109.1" class="st1" width="0.8" height="1.1"/>
				<rect x="135.7" y="109.1" class="st1" width="0.8" height="1.1"/>
				<rect x="134.3" y="109.1" class="st1" width="0.8" height="1.1"/>
				<rect x="132.9" y="109.1" class="st1" width="0.8" height="1.1"/>
				<rect x="131.4" y="109.1" class="st1" width="0.8" height="1.1"/>
				<rect x="129.9" y="109.1" class="st1" width="0.8" height="1.1"/>
				<rect x="128.5" y="109.1" class="st1" width="0.8" height="1.1"/>
				<rect x="127.1" y="109.1" class="st1" width="0.8" height="1.1"/>
				<rect x="140.1" y="111.1" class="st1" width="0.8" height="1.1"/>
				<rect x="138.6" y="111.1" class="st1" width="0.8" height="1.1"/>
				<rect x="137.1" y="111.1" class="st1" width="0.8" height="1.1"/>
				<rect x="135.7" y="111.1" class="st1" width="0.8" height="1.1"/>
				<rect x="134.3" y="111.1" class="st1" width="0.8" height="1.1"/>
				<rect x="132.9" y="111.1" class="st1" width="0.8" height="1.1"/>
				<rect x="131.4" y="111.1" class="st1" width="0.8" height="1.1"/>
				<rect x="129.9" y="111.1" class="st1" width="0.8" height="1.1"/>
				<rect x="128.5" y="111.1" class="st1" width="0.8" height="1.1"/>
				<rect x="127.1" y="111.1" class="st1" width="0.8" height="1.1"/>
			</g>
			<g>
				<rect x="140.1" y="103.6" class="st4" width="0.7" height="1.2"/>
				<rect x="133.4" y="103.6" class="st4" width="0.7" height="1.2"/>
				<rect x="128" y="103.6" class="st4" width="0.7" height="1.2"/>
			</g>
		</g>
	</g>
	<path class="st5" d="M29.8,114.3C29.8,114.3,29.8,114.3,29.8,114.3l0.2,0c0,0,0,0-0.1,0H29.8z"/>
	<path class="st6" d="M61.7,93.8C61.7,93.8,61.7,93.8,61.7,93.8C61.7,93.8,61.7,93.8,61.7,93.8z"/>
	<path class="st5" d="M31.2,114.3C31.2,114.3,31.2,114.3,31.2,114.3l-0.2,0c0,0,0,0,0.1,0H31.2z"/>
	<g>
		<path class="st7" d="M146.8,114.6c0.2-0.3,0.2-0.7-0.1-1c-0.7-0.8-2.6,0.2-3.9,1H146.8z"/>
		<path class="st7" d="M142.3,114.6c1.3-1.4,3.3-4.1,2-5.1c-1.3-1-4,2.8-5.4,5c0.1-1.7,0-4-1.5-3.5c-1.5,0.5-0.3,2.2,0.6,3.5H142.3z
			"/>
	</g>
	<path class="st8" d="M64.5,109.9c-4.2-0.1-6.7-2.4-9.2-4.4c3.5-1.7,7.8-3.9,5.6-5.4c-2-1.5-5.1,1.5-7.2,4.2
		c-0.2-0.1-0.4-0.3-0.6-0.4c0.9-2.5,1.4-5.2-0.4-5.6c-1.7-0.4-2.1,2-2.2,4.6c-4.5-0.9-8.3-0.6-12.2,0.6c-4,1.2-9.7-7.9-21.4-6.8
		c-1.3,0.1-2.3,0.4-3.3,0.8c0-3.2-0.6-7.4-3.5-7.4c-4.6,0,0.3,5.6,1,7c0.3,0.6,0.5,1.1,0.6,1.5c-0.3,0.3-0.7,0.5-0.9,0.8
		c-0.6-2-1.4-4.1-2.7-4.3c-2.5-0.3-4.1,2.8-2.1,3.9c1,0.5,2.3,1.5,3.4,2.4c-2.5,4.8-0.9,11.7,0.4,13.1l63.3,0
		C73.3,114.5,71.2,110,64.5,109.9z"/>
	<g>
		<path class="st9" d="M113.6,106.6c0.4-0.3,0.6-0.9,0.6-0.9l-1.3,0.4C112.9,106,113.2,106.9,113.6,106.6z"/>
		<path class="st10" d="M116.7,107.5c0-0.1-0.1-0.2-0.2-0.2c-0.3-0.1-0.7-0.1-1.2-0.5c-0.3-0.2-1.2-0.9-1.2-0.9l0,0
			c0,0-0.1,0-0.6,0.4c-0.2,0.2-0.6-0.3-0.6-0.3s-0.1,0.1-0.1,0.2c0,0.1-0.1,0.2-0.1,0.4c0,0.2-0.1,0.6-0.2,0.9
			c-0.1,0.2-0.1,0.3-0.1,0.3s0,0.1,0.5,0.2h0.6c0.2,0,0.3-0.1,0.5-0.1c0.3,0,0.4,0.1,0.5,0.1c0,0,0,0,0,0h2.4
			C116.9,107.8,116.8,107.6,116.7,107.5z"/>
		<path class="st11" d="M110.5,94.9c0.9,1.7,4.6,3.9,4.4,4.1c-1.2,1.5-2,7-2,7s0.3,0.1,0.5,0.1c0.4,0,0.8-0.1,0.8-0.1
			c1.5-3.2,4-6.6,3.8-7.4c-0.5-1.9-4.6-7.1-4.6-7.1l-3.7-0.8l-1.1,0C108.5,90.7,109.3,92.6,110.5,94.9z"/>
		<g id="BPbxa9_4_">
			<g>
				
					<rect x="112.2" y="94.8" transform="matrix(0.9525 -0.3045 0.3045 0.9525 -25.654 39.103)" class="st12" width="0.8" height="13.9"/>
			</g>
			<polygon class="st13" points="122.4,95.3 122.5,95.2 122.4,95.2 122.4,95.2 122.4,95.3 103.9,107.7 113.9,108.6 114,107.8 
				106.1,107.1 120.8,97.7 114.7,107.6 115.3,108 123.3,96.2 			"/>
			<g>
				<path class="st14" d="M127.6,107.1l-4.3-9.2l0.6-0.2c0.4-0.1,0.8,0,0.9,0.4l3.5,8.7L127.6,107.1z"/>
			</g>
			<g>
				<path class="st13" d="M123.3,97.9c-0.6-1.6-1.7-4.1-1.6-4.1l0.6-0.4c0,0,0.1,0.1,1.7,4.3L123.3,97.9z"/>
			</g>
			<path class="st14" d="M123.3,92.9c-0.3,0-0.5,0.2-0.6,0.4l-1.8-0.1c-0.1-0.2-0.3-0.4-0.6-0.4c-0.4,0-0.6,0.3-0.6,0.6
				c0,0.4,0.3,0.6,0.6,0.6c0.2,0,0.3-0.1,0.4-0.2l2.2,0.1c0.1,0.1,0.2,0.1,0.3,0.1c0.4,0,0.6-0.3,0.6-0.6
				C123.9,93.2,123.7,92.9,123.3,92.9z"/>
			<path class="st14" d="M118.6,109.6H117c-0.2,0-0.3,0.2-0.3,0.3v0c0,0.2,0.2,0.3,0.3,0.3h1.6c0.2,0,0.3-0.2,0.3-0.3v0
				C118.9,109.8,118.8,109.6,118.6,109.6z"/>
			<g>
				
					<rect x="116.1" y="107.2" transform="matrix(0.4147 -0.91 0.91 0.4147 -31.2035 169.5602)" class="st14" width="0.3" height="3.6"/>
			</g>
			<g>
				<path class="st11" d="M106.2,107.4c0,0,0-0.1,0-0.1l5.3-0.9l0-0.2l-5.3,0.9c-0.1-0.3-0.2-0.5-0.4-0.7l3.2-4.6l-0.1-0.1l-3.1,4.4
					l1.6-4.9l-0.2-0.1l-1.7,5.1c-0.1-0.1-0.3-0.1-0.5-0.1v-5.5h-0.2v5.5c-0.1,0-0.2,0-0.3,0.1l-1.7-4.7l-0.2,0.1l1.6,4.5l-3.3-3.8
					l-0.1,0.1l3.4,3.9c-0.2,0.1-0.3,0.2-0.4,0.4l-0.2,0l-4.7-2.4l-0.1,0.1l4.3,2.2l-4.8-0.8l0,0.2l5.3,0.9l0.1,0.1
					c-0.1,0.1-0.1,0.3-0.1,0.5c0,0,0,0.1,0,0.1l-5.2,0.8l0,0.2l5.2-0.8c0,0,0,0.1,0,0.1l-4.8,2.1l0.1,0.2l4.8-2.1c0,0,0,0,0,0
					l-3.8,3.8l0.1,0.1l3.7-3.8c0.1,0.1,0.2,0.2,0.3,0.3l-2.8,4.3l0.1,0.1l2.8-4.3c0,0,0,0,0.1,0c-0.7,1.8-2,5.1-2,5.2l0.2,0.1
					c0-0.1,1.1-3,2-5.2c0.1,0,0.2,0.1,0.4,0.1c0,0,0,0,0.1,0l-0.4,5.3l0.2,0l0.4-5.3c0.1,0,0.1,0,0.2,0c0.9,2.1,2,4.9,2,5l0.2-0.1
					c0-0.1-1.3-3.3-2-5c0,0,0,0,0,0l2.9,4.6l0.1-0.1l-2.9-4.6c0.1-0.1,0.2-0.2,0.3-0.3l4.3,3l0.1-0.1l-4.4-3
					C106.2,107.8,106.2,107.6,106.2,107.4z"/>
				<g>
					<path class="st11" d="M105,114.6c-4,0-7.2-3.2-7.2-7.2c0-4,3.2-7.2,7.2-7.2s7.2,3.2,7.2,7.2c0,1.3-0.3,2.5-1,3.6
						c-0.6,1.1-1.5,2-2.6,2.6C107.6,114.3,106.3,114.6,105,114.6z M105,101.2c-3.4,0-6.2,2.8-6.2,6.2c0,3.4,2.8,6.2,6.2,6.2
						c1.1,0,2.2-0.3,3.1-0.9c0.9-0.5,1.7-1.3,2.2-2.2c0.5-0.9,0.8-2,0.8-3.1C111.2,104,108.4,101.2,105,101.2z"/>
				</g>
				<g>
					<path class="st15" d="M105.1,113.8c-3.5,0-6.4-2.9-6.4-6.4c0-3.5,2.9-6.4,6.4-6.4c3.5,0,6.4,2.9,6.4,6.4
						C111.4,111,108.6,113.8,105.1,113.8z M105.1,101.4c-3.4,0-6.1,2.7-6.1,6.1c0,3.4,2.7,6.1,6.1,6.1c3.4,0,6.1-2.7,6.1-6.1
						C111.2,104.1,108.4,101.4,105.1,101.4z"/>
				</g>
			</g>
			<g>
				<path class="st11" d="M129.3,107.4c0,0,0-0.1,0-0.1l5.3-0.9l0-0.2l-5.3,0.9c-0.1-0.3-0.2-0.5-0.4-0.7l3.2-4.6l-0.1-0.1l-3.1,4.4
					l1.6-4.9l-0.2-0.1l-1.7,5.1c-0.1-0.1-0.3-0.1-0.5-0.1v-5.5H128v5.5c-0.1,0-0.2,0-0.3,0.1l-1.7-4.7l-0.2,0.1l1.6,4.5l-3.3-3.8
					l-0.1,0.1l3.4,3.9c-0.2,0.1-0.3,0.2-0.4,0.4l-0.2,0l-4.7-2.4l-0.1,0.1l4.3,2.2l-4.8-0.8l0,0.2l5.3,0.9l0.1,0.1
					c-0.1,0.1-0.1,0.3-0.1,0.5c0,0,0,0.1,0,0.1l-5.2,0.8l0,0.2l5.2-0.8c0,0,0,0.1,0,0.1l-4.8,2.1l0.1,0.2l4.8-2.1c0,0,0,0,0,0
					l-3.8,3.8l0.1,0.1l3.7-3.8c0.1,0.1,0.2,0.2,0.3,0.3l-2.8,4.3l0.1,0.1l2.8-4.3c0,0,0,0,0.1,0c-0.7,1.8-2,5.1-2,5.2l0.2,0.1
					c0-0.1,1.1-3,2-5.2c0.1,0,0.2,0.1,0.4,0.1c0,0,0,0,0.1,0l-0.4,5.3l0.2,0l0.4-5.3c0.1,0,0.1,0,0.2,0c0.9,2.1,2,4.9,2,5l0.2-0.1
					c0-0.1-1.3-3.3-2-5c0,0,0,0,0,0l2.9,4.6l0.1-0.1l-2.9-4.6c0.1-0.1,0.2-0.2,0.3-0.3l4.3,3l0.1-0.1l-4.4-3
					C129.3,107.8,129.3,107.6,129.3,107.4z"/>
				<g>
					<path class="st11" d="M128.1,114.6c-4,0-7.2-3.2-7.2-7.2c0-4,3.2-7.2,7.2-7.2c4,0,7.2,3.2,7.2,7.2c0,1.3-0.3,2.5-1,3.6
						c-0.6,1.1-1.5,2-2.6,2.6C130.7,114.3,129.4,114.6,128.1,114.6z M128.1,101.2c-3.4,0-6.2,2.8-6.2,6.2c0,3.4,2.8,6.2,6.2,6.2
						c1.1,0,2.2-0.3,3.1-0.9c0.9-0.5,1.7-1.3,2.2-2.2c0.5-0.9,0.8-2,0.8-3.1C134.3,104,131.5,101.2,128.1,101.2z"/>
				</g>
				<g>
					<path class="st15" d="M128.2,113.8c-3.5,0-6.4-2.9-6.4-6.4c0-3.5,2.9-6.4,6.4-6.4c3.5,0,6.4,2.9,6.4,6.4
						C134.5,111,131.7,113.8,128.2,113.8z M128.2,101.4c-3.4,0-6.1,2.7-6.1,6.1c0,3.4,2.7,6.1,6.1,6.1c3.4,0,6.1-2.7,6.1-6.1
						C134.3,104.1,131.5,101.4,128.2,101.4z"/>
				</g>
			</g>
			<g>
				<path class="st13" d="M110.9,100c-0.1,0-0.2,0-0.3,0l0,0c-3.4-2-8-1.3-9.4-1l0,0c-0.1,0-0.1,0-0.1-0.1v-0.3
					c0-0.2,0.1-0.4,0.3-0.4c0.7-0.1,2.4-0.3,3.4-0.3c0,0,0.1,0,0.1,0c2.1,0,4,0.4,5.5,1.1c0.3,0.2,0.7,0.2,1,0.1l0.4-0.1
					c0.2-0.1,0.5,0,0.6,0.3l0,0c0.1,0.2,0,0.3-0.2,0.4L110.9,100z"/>
			</g>
			<path class="st14" d="M107.8,94.9c0,0-0.1-0.6,0.3-0.7c0.4,0,1.8,0.3,2.2,0.2c0.4,0,2.3-0.4,2.7,0s0.2,0.6-0.5,0.7
				c-0.7,0.1-1.6,0.2-1.9,0.4C110.2,95.7,108.4,96.4,107.8,94.9z"/>
			<path class="st14" d="M112.8,108.4c0-1,0.8-1.9,1.9-1.9s1.9,0.8,1.9,1.9s-0.8,1.9-1.9,1.9S112.8,109.5,112.8,108.4z"/>
		</g>
		<path class="st9" d="M117.8,107.9c0,0,0.2,0.7,0.6,0.6c0.4-0.1,0.6-0.8,0.6-0.8L117.8,107.9z"/>
		<g>
			<path class="st13" d="M117.8,109.7h0.6c0.2,0,0.3-0.1,0.5-0.1c0.3,0,0.4,0.1,0.5,0.1c0,0,0,0,0,0h2.4c0.1-0.1,0-0.3-0.1-0.4
				c0-0.1-0.1-0.2-0.2-0.2c-0.3-0.1-0.7-0.1-1.2-0.5c-0.3-0.2-1.2-0.9-1.2-0.9l0,0c0,0-0.1,0-0.6,0.4c-0.2,0.2-0.6-0.3-0.6-0.3
				s-0.1,0.1-0.1,0.2c0,0.1-0.1,0.2-0.1,0.4c0,0.2-0.1,0.6-0.2,0.9c-0.1,0.2-0.1,0.3-0.1,0.3S117.3,109.7,117.8,109.7z"/>
			<path class="st16" d="M117.6,108c0.1,0.1,0.4,0.3,0.6,0.3c0.3,0,0.7-0.6,0.7-0.6l0,0c0,0-0.1,0-0.6,0.4c-0.2,0.2-0.6-0.3-0.6-0.3
				S117.7,107.9,117.6,108z"/>
			<path class="st16" d="M117.8,109.7h0.6c0.2,0,0.3-0.1,0.5-0.1c0.3,0,0.4,0.1,0.5,0.1c0,0,0,0,0,0h2.4c0.1-0.1,0-0.3-0.1-0.4
				c-0.1-0.1-0.1,0.3-0.1,0.3c0,0.1-1.9,0-2-0.1c-0.1-0.1-0.4-0.2-0.9-0.1c-0.4,0.1-1-0.1-1.1-0.2c-0.1,0.2-0.1,0.3-0.1,0.3
				S117.3,109.7,117.8,109.7z"/>
		</g>
		<path class="st17" d="M108.7,89.8c0,0-1.5,3.2,0.3,4.6c1.8,1.5,7,3.5,7,3.8c0.1,0.3,0.4,5.6,1.7,9.5c0,0,0.4,0.2,1.2-0.1
			c0.4-0.2,1-10.2,0.3-11.2c-0.7-1-4.8-3.7-4.8-3.7L108.7,89.8z"/>
		<path class="st9" d="M113.4,79.1c0,0,1.8,1.7,3.1,1.7c0,0-0.2-0.5-0.6-0.9c0.1-0.2,0.2-0.3,0.2-0.5c0.2-0.5,0.3-0.8,0.3-0.8
			l-1-1.5l-0.2-0.3c-0.1,0.3-0.2,0.5-0.3,0.7c0,0,0,0,0,0C114.4,78.8,113.4,79.1,113.4,79.1z"/>
		<path class="st9" d="M122.2,92.2c0,0-2.6-3.3-2.8-3.6c-0.2-0.3-2.5-5.2-2.5-5.2l-3.5-0.3c0,0,3.7,6,4.3,6.8c1,1.2,3.7,2.7,3.7,2.7
			c-0.1,0.3,0.2,0.6,0.6,0.8c0.4,0.1,0.3,0.1,0.5,0.2s0.4-0.3,0.4-0.3C123.1,92.3,122.2,92.2,122.2,92.2z"/>
		<path class="st18" d="M108.7,89.8c0,0.1,0.2,0.4,0.3,0.5c0.5,0.4,0.9,0.8,1.4,1.1c0.3,0.2,0.7,0.4,1.1,0.6c1.1,0.5,2.5,0.6,3,0.8
			c0,0,0.1,0,0.1,0c0,0,0.5-1.4,1-3.2c0-0.1,0-0.1,0.1-0.2l0,0c0.2-0.7,0.4-1.4,0.6-2.1c0.4-1.6,0.8-3.2,0.8-4.1
			c0.1-1.1-0.3-1.9-0.7-2.5l-0.3-0.5c-0.5,0-0.9-0.2-1.3-0.6c-0.4-0.4-0.9-0.8-1-0.8c-1.2,0.4-2.5,2.5-3.2,5c0,0.1,0,0.2-0.1,0.2
			c-0.1,0.3-0.2,0.5-0.2,0.8c-0.5,1.9-1.1,3.5-1.5,4.4C108.8,89.5,108.7,89.7,108.7,89.8z"/>
		<path class="st13" d="M108.7,89.8c0,0.1,0.2,0.4,0.3,0.5c0.5,0.4,0.9,0.8,1.4,1.1c3-4.3,2.7-9.4,2.7-9.4l-2.4,2.1
			c-0.1,0.3-0.2,0.5-0.2,0.8c-0.5,1.9-1.1,3.5-1.5,4.4C108.8,89.5,108.7,89.7,108.7,89.8z"/>
		<path class="st19" d="M115,77.5C115,77.5,115,77.6,115,77.5c0,0.2,0.3,1.3,1.1,1.9c0.2-0.5,0.3-0.8,0.3-0.8l-1-1.5
			C115.3,77.3,115.1,77.5,115,77.5C115,77.5,115,77.5,115,77.5z"/>
		<path class="st9" d="M117.1,78.7c0,0-2.2,0.1-2.2-1.3c0-1.3-0.3-2.2,1.1-2.3c1.4-0.1,1.6,0.4,1.8,0.9
			C117.8,76.4,117.6,78.6,117.1,78.7z"/>
		<path class="st11" d="M114.9,77.5c0,0,0.3-1.8,2.2-1.8c1.3,0,0.7-1.2,0.6-1.4c0,0-1,0.1-2.1,0.1C113.4,74.6,114.7,77.2,114.9,77.5
			z"/>
		<g>
			<path class="st20" d="M114.8,87.9l-0.2-0.1c-0.1,0-0.2,0-0.2,0.1l0,0.1c0,0.1,0,0.2,0.1,0.2l0.2,0.1c0.1,0,0.2,0,0.2-0.1l0-0.1
				C114.9,88.1,114.9,88,114.8,87.9z"/>
			<path class="st21" d="M115.2,88.7l-0.8,2.3c-0.1,0.2-0.2,0.2-0.4,0.2l-0.9-0.3c-0.2-0.1-0.2-0.2-0.2-0.4l0.8-2.3
				c0.1-0.2,0.2-0.2,0.4-0.2l0.9,0.3C115.2,88.4,115.3,88.5,115.2,88.7z"/>
			<path class="st20" d="M114.3,88.6c-0.2-0.1-0.5-0.2-0.6-0.3l-0.8,2.1c-0.1,0.2,0,0.3,0.2,0.4l0.9,0.3c0.2,0.1,0.3,0,0.4-0.2
				l0.8-2.2C115,88.8,114.5,88.7,114.3,88.6z"/>
			
				<rect x="113.4" y="88.7" transform="matrix(0.3375 -0.9413 0.9413 0.3375 -8.5708 166.7146)" class="st14" width="1.5" height="1.5"/>
		</g>
		<path class="st9" d="M114.5,89.1c-0.4-0.2-1.3-0.3-1.3-0.3s-2-2.6-2.3-3.2c-0.3-0.6,3.2-2.4,3.3-3.4c0.1-1,0.3-2.9-1.1-2.8
			c0,0-3.4,2.7-4.8,6.1c0,0,1.5,2.8,4.2,4.1c0,0,1.5,0.9,1.8,1c0.3,0.1,0.5-0.3,0.6-0.4C115,89.9,114.9,89.3,114.5,89.1z"/>
		<path class="st18" d="M113.7,83.2c0,0-1.4-1.8-2.6-2.1c0,0,1.5-2.1,2.8-2.4c0,0,1.3,1.1,1,2C114.7,81.6,113.7,83.2,113.7,83.2z"/>
	</g>
	<path class="st22" d="M4.7,114.6c0,0,1.1-3,6.2-2.2c5.1,0.8,7.3,0.2,9.8-0.4c2.5-0.6,3.6-0.7,5.9,0.2c2.4,0.9,3.2,2.6,11,0.9
		s11.4-3.2,16.2-1.9c4.8,1.4,10.8-1.1,16.7,1.2c6,2.4,15.2-1.8,19.8,2.2H4.7z"/>
	<g>
		<path class="st11" d="M30.6,75c0-0.1-0.1-1-1.5-1c0,0,0.7,0.1,0.8,0.4c0,0-0.5-0.4-0.9-0.2c-0.4,0.1-0.6,0.8-0.6,1.1
			c0,0.2,0.3,0.9,0.5,1c0.1,0,0.2,0,0.3,0c-0.1,0.1-0.1,0.2-0.2,0.4c-0.5,1.2,0.1,2.3,0.6,2.2c0.3-0.1,0.4,0.4,0.4,0.4l2.9-2.6
			C33,76.5,31.8,74.3,30.6,75z"/>
		<path class="st19" d="M29.6,90.4c0,0,0.5,1.1,1.2,2.7c0.8,1.7,1.7,4,2.3,5.9c0.3,1,0.5,1.8,0.5,2.4c0,0.2-0.8,1-1,1.4
			c-1.4,2-3.4,4.7-3.4,4.7l-0.5-0.1c0,0,0.8-3.4,1.9-5c0.2-0.3,0.8-0.7,0.8-0.8c0,0,0,0,0,0c-0.1-0.1-0.3-0.4-0.7-0.8
			c-0.9-1.2-2.4-3.3-3.5-5.3c-0.1-0.1-0.1-0.2-0.2-0.4c-0.5-1.1-0.9-2.2-0.9-2.9L29.6,90.4z"/>
		<g>
			<path class="st15" d="M28.1,107.5l0.4,0.2c0.1,0.1,0.3,0.1,0.4,0.1c0.2,0.1,0.2,0.2,0.3,0.3c0,0,0,0,0,0l1.6,1
				c0.1,0,0.1-0.2,0.1-0.3c0-0.1,0-0.2-0.1-0.2c-0.1-0.2-0.4-0.4-0.6-0.9c-0.1-0.3-0.5-1.1-0.5-1.1l0,0c0,0-0.1,0-0.5,0
				c-0.2,0-0.3-0.4-0.3-0.4s-0.1,0-0.2,0.1c-0.1,0-0.1,0.1-0.2,0.2c-0.1,0.2-0.3,0.4-0.5,0.5c-0.1,0.1-0.2,0.1-0.2,0.1
				S27.8,107.2,28.1,107.5z"/>
			<path class="st23" d="M28.7,106.3c0,0.1,0.2,0.4,0.3,0.5c0.2,0.1,0.7-0.1,0.7-0.1l0,0c0,0-0.1,0-0.5,0c-0.2,0-0.3-0.4-0.3-0.4
				S28.8,106.2,28.7,106.3z"/>
			<path class="st23" d="M28.1,107.5l0.4,0.2c0.1,0.1,0.3,0.1,0.4,0.1c0.2,0.1,0.2,0.2,0.3,0.3c0,0,0,0,0,0l1.6,1
				c0.1,0,0.1-0.2,0.1-0.3c0-0.1-0.2,0.1-0.2,0.2c0,0-1.3-0.8-1.3-0.9c0-0.1-0.2-0.3-0.5-0.4c-0.3-0.1-0.6-0.5-0.7-0.6
				c-0.1,0.1-0.2,0.1-0.2,0.1S27.8,107.2,28.1,107.5z"/>
		</g>
		<path class="st24" d="M39,96.1l-0.8-1l-0.1,0.1l0,0l0,0l-9.5,6.4L26.5,95l-0.7,0.2L28,102l-8.3,5.6l10,0.9l0.1-0.7l-7.9-0.7
			l6.4-4.1l1.8,5.5l0.7-0.2l-0.2-0.6l0.5,0.3L39,96.1z M28.9,102.6l7.6-4.9l-6.1,9.7L28.9,102.6z"/>
		<g>
			<path class="st15" d="M26.6,100c-0.1,0-0.2,0-0.3,0l0,0c-3.4-2-8-1.3-9.4-1l0,0c-0.1,0-0.1,0-0.1-0.1v-0.3c0-0.2,0.1-0.4,0.3-0.4
				c0.7-0.1,2.4-0.3,3.4-0.3c0,0,0.1,0,0.1,0c2.1,0,4,0.4,5.5,1.1c0.3,0.2,0.7,0.2,1,0.1l0.4-0.1c0.2-0.1,0.5,0,0.6,0.3l0,0
				c0.1,0.2,0,0.3-0.2,0.4L26.6,100z"/>
		</g>
		<path class="st14" d="M23.5,94.8c0,0-0.1-0.6,0.3-0.7c0.4,0,1.8,0.3,2.2,0.2c0.4,0,2.3-0.4,2.7,0c0.3,0.3,0.2,0.6-0.5,0.7
			c-0.7,0.1-1.6,0.2-1.9,0.4C26,95.7,24.1,96.3,23.5,94.8z"/>
		<path class="st14" d="M33.5,107l-1.4-0.8c-0.2-0.1-0.4,0-0.5,0.1c-0.1,0.2,0,0.4,0.1,0.5l0.2,0.1l-0.2,0.2
			c-0.3-0.4-0.8-0.6-1.3-0.6c-1,0-1.9,0.8-1.9,1.9s0.8,1.9,1.9,1.9c1,0,1.9-0.8,1.9-1.9c0-0.4-0.1-0.8-0.4-1.1l0.2-0.2l1,0.6
			c0.2,0.1,0.4,0,0.5-0.1l0,0C33.7,107.3,33.6,107.1,33.5,107z"/>
		<g>
			<g>
				<path class="st14" d="M26.8,106.4l0-0.2l-6.3,1.1l0.2-0.3l0.1,0l0.1-0.3l3.4-4.8l-0.1-0.1l-3.1,4.4l1.6-4.9l-0.2-0.1l-1.8,5.5
					l-0.4,0.6l-0.1,0l0,0l0.1-0.1v-6.3h-0.2v6.2l0,0l-0.2-0.4l0,0l0,0l-1.8-4.9l-0.2,0.1l1.6,4.5l-3.3-3.8l-0.1,0.1l3.5,4.1l0.1,0.4
					l-0.9-0.2l-4.7-2.4l-0.1,0.1l4.3,2.2l-4.8-0.8l0,0.2l5.3,0.9l0.9,0.4l-0.1,0.1l-6,0.9l0,0.2l5.7-0.9l0,0l-5.2,2.2l0.1,0.2
					l4.8-2.1l-3.8,3.8l0.1,0.1l4.1-4.1l0.5-0.2l-3.3,5.2l0.1,0.1l3-4.7c-0.6,1.7-2.1,5.5-2.1,5.6l0.2,0.1c0-0.1,1.5-4,2.3-6.2
					c0,0.1,0.1,0.2,0.1,0.3l-0.5,6l0.2,0l0.5-5.7c0.9,2.2,2.1,5.2,2.2,5.3l0.2-0.1c0-0.1-1.5-3.6-2.2-5.3l3.1,4.9L24,113l-3.5-5.6
					l5.2,3.6l0.1-0.1l-5.1-3.5L26.8,106.4z M20,107l-0.1,0.1l-0.4-0.2L20,107z"/>
				<path class="st11" d="M19.1,107.4c0-0.7,0.6-1.2,1.2-1.2c0.7,0,1.2,0.6,1.2,1.2s-0.6,1.2-1.2,1.2
					C19.6,108.6,19.1,108.1,19.1,107.4z"/>
			</g>
			<g>
				<path class="st11" d="M20.3,114.6c-4,0-7.2-3.2-7.2-7.2s3.2-7.2,7.2-7.2s7.2,3.2,7.2,7.2c0,1.3-0.3,2.5-1,3.6
					c-0.6,1.1-1.5,2-2.6,2.6C22.9,114.3,21.6,114.6,20.3,114.6z M20.3,101.2c-3.4,0-6.2,2.8-6.2,6.2c0,3.4,2.8,6.2,6.2,6.2
					c1.1,0,2.2-0.3,3.1-0.9c0.9-0.5,1.7-1.3,2.2-2.2c0.5-0.9,0.8-2,0.8-3.1C26.5,104,23.7,101.2,20.3,101.2z"/>
			</g>
			<g>
				<path class="st15" d="M20.4,113.8c-3.5,0-6.4-2.9-6.4-6.4c0-3.5,2.9-6.4,6.4-6.4c3.5,0,6.4,2.9,6.4,6.4
					C26.7,110.9,23.9,113.8,20.4,113.8z M20.4,101.3c-3.4,0-6.1,2.7-6.1,6.1c0,3.4,2.7,6.1,6.1,6.1c3.4,0,6.1-2.7,6.1-6.1
					C26.5,104.1,23.7,101.3,20.4,101.3z"/>
			</g>
		</g>
		<path class="st19" d="M32.3,81.7c0,0-1,0.6-0.9,2c0.1,1.5,1.5,3.7,2.5,4.3c0.8,0.5,3.1,1.2,3.1,1.2l0.1-0.6c0,0-1.9-1.2-2.3-1.7
			C33.9,86,33.1,81.4,32.3,81.7z"/>
		<path class="st9" d="M32.2,85c0,0.3-0.1,0.6-0.2,0.9c-0.1,0.2-0.2,0.4-0.3,0.7c-0.3,0.7-1,1-1.1,2.2c0,0.4-0.4,1.4-0.2,2.1
			c1,3.5-5.6,0.3-5.2-0.6c0.7-1.8,1.7-2.9,1.7-4.4c0,0,0,0,0,0c0-0.1,0-0.3,0-0.5c0-0.6-0.1-1.7-0.1-2.2c0,0,0,0,0,0
			c0-0.2,0-0.4,0-0.4c0.5-2.1,1.6-2.1,2-2.1c0.1,0,0.3,0,0.4,0c0.2-0.1,0.7-0.8,0.9-1.8l0.1,0l1.5,0.6c0,0-0.1,0.5-0.2,0.9
			c-0.1,0.4-0.1,0.7-0.1,0.8c0.1,0,0.2,0.1,0.2,0.1s0,0,0,0C31.6,81.3,32.5,83.4,32.2,85z"/>
		<path class="st19" d="M32,85.9c-0.1,0.2-0.2,0.4-0.3,0.7c-0.3,0.7-1,1-1.1,2.2c0,0,0,0-0.1,0c-2.7,0.2-3.6-2.9-3.6-2.9
			c0-0.1,0-0.3,0-0.5l4.9,0C31.8,85.3,31.9,85.6,32,85.9z"/>
		<path class="st19" d="M31.7,79.5c0,0-0.1,0.5-0.2,0.9c-0.9-0.2-1.2-1.1-1.2-1.6L31.7,79.5z"/>
		<path class="st20" d="M33.2,82.9c-0.1-0.2-0.5-1-0.5-1s-0.3-0.3-1.2-0.6c0,0,0,0,0,0c0,0.1,0.4,1.4,0.3,1.7
			c-0.1,0.3-2.7-0.5-2.9-0.7c-0.1-0.2-0.2-1.1-0.2-1.4c0-0.1,0-0.1,0-0.1s-1-0.1-1.5,0.1c0,0,0.2,0.5,0.3,1c0,0,0,0.1,0,0.1
			c0,0.1,0,0.2,0,0.3c0,0.3-0.2,0.5-0.5,0.7C27,83,26.9,83,26.8,83.1c0,0,0,0,0,0c0,0.7,0.1,2.4,0.1,2.7c0,0,0,0,0,0
			c0.5,0,1.5-0.1,2.6,0.1c0.4,0,0.7,0.1,1,0.2c0.4,0.1,0.8,0.2,1.1,0.4c0,0,0,0,0,0c0,0,0.4-0.9,0.9-2.1c0,0,0-0.1,0-0.1
			c0.1-0.4,0.1-0.9,0-1.3C32.9,82.9,33.2,82.9,33.2,82.9z"/>
		<path class="st9" d="M31.9,80c0,0-2.1-0.4-1.8-1.7c0.3-1.3,0.2-2.2,1.5-2c1.3,0.2,1.5,0.7,1.5,1.2C33.1,77.9,32.4,80,31.9,80z"/>
		<path class="st25" d="M31.7,86.6C31.7,86.6,31.7,86.6,31.7,86.6c-0.4-0.2-0.7-0.3-1.1-0.4c-0.3-0.1-0.7-0.1-1-0.2
			c-1.1-0.1-2.2-0.1-2.6-0.1c0,0,0,0,0,0c0-0.3-0.1-2-0.1-2.7c0,0,0,0,0,0c0.1-0.1,0.2-0.2,0.3-0.2C28.5,83.5,31,84.9,31.7,86.6z"/>
		<path class="st11" d="M33.2,76.8c-0.2-0.4-0.5-0.4-0.7-0.3c-1-0.8-1.9-0.1-1.9-0.1c-0.3,0.9-1.1,1.3-1.1,1.3s0.3,0.3,1.2,0.3
			c0.3,0,0.5-0.1,0.8-0.3c-0.5,0.5-1,0.8-1,0.8c1.1-0.3,1.8-1.6,1.9-1.7c0.1,0.1,0.3,0.4,0.3,0.7c0,0.3-0.1,1,0.1,1
			C32.9,78.4,33.5,77.4,33.2,76.8z"/>
		<path class="st9" d="M34.3,89.3l-0.1,0.6c0,0-3.4-0.5-4.6-1.1c-1.1-0.7-2.8-4.5-3-6.1c0-0.1,0-0.2,0-0.2c0-1.4,0.7-1.6,0.7-1.6
			c0.3-0.1,0.6,0.3,1,1.1c0.8,1.6,1.6,4.3,2.1,5.1C30.8,87.6,34.3,89.3,34.3,89.3z"/>
		<path class="st20" d="M28.3,81.9c-0.9-0.2-1.6,0.5-1.6,0.5c0-1.4,0.7-1.6,0.7-1.6C27.6,80.6,27.9,81.1,28.3,81.9z"/>
		<path class="st9" d="M25.2,90.4c0,0-1.5,2.4,0.4,3.7c1.9,1.3,8.2,2,7.9,2.2c-1,0.8-1.8,2-1.8,9.3l0.5,0.2c0,0,4.5-9.8,4.2-11
			C36.2,94.1,29.6,89.9,25.2,90.4z"/>
		<path class="st17" d="M28.8,95.5c0,0-3.7-0.7-4.2-2c-0.4-0.9-0.4-1.4,1.4-4.7c0,0,0.7,1.4,4.5,1.1c0,0,0,0.2,0,0.4
			c0,0.4,0.1,1,0.4,1.1c0,0,0,0,0,0c0.5,0.2,1.3,0.7,1.4,0.7C32.2,92.1,29.9,92.6,28.8,95.5z"/>
		<path class="st11" d="M30.8,91.4c-1.7-0.5-3.7-0.6-3.7-0.6c1.4-0.4,2.5-0.5,3.3-0.5C30.4,90.7,30.5,91.2,30.8,91.4z"/>
		<g>
			<path class="st15" d="M31,106l0.4,0.2c0.1,0,0.3,0.1,0.4,0.1c0.2,0.1,0.3,0.2,0.3,0.2c0,0,0,0,0,0l1.7,0.8c0.1,0,0.1-0.2,0.1-0.3
				c0-0.1,0-0.2-0.1-0.2c-0.2-0.1-0.5-0.4-0.7-0.8c-0.1-0.3-0.6-1-0.6-1l0,0c0,0-0.1,0-0.5,0.1c-0.2,0.1-0.3-0.4-0.3-0.4
				s-0.1,0-0.2,0.1c-0.1,0-0.1,0.1-0.2,0.2c0,0.2-0.3,0.4-0.4,0.6c-0.1,0.1-0.2,0.2-0.2,0.2S30.7,105.8,31,106z"/>
			<path class="st23" d="M31.5,104.8c0.1,0.1,0.2,0.3,0.3,0.4c0.2,0.1,0.7-0.2,0.7-0.2l0,0c0,0-0.1,0-0.5,0.1
				c-0.2,0.1-0.3-0.4-0.3-0.4S31.6,104.7,31.5,104.8z"/>
			<path class="st23" d="M31,106l0.4,0.2c0.1,0,0.3,0.1,0.4,0.1c0.2,0.1,0.3,0.2,0.3,0.2c0,0,0,0,0,0l1.7,0.8c0.1,0,0.1-0.2,0.1-0.3
				c0-0.1-0.2,0.2-0.2,0.2c0,0-1.4-0.6-1.4-0.7c-0.1-0.1-0.2-0.3-0.6-0.4c-0.3-0.1-0.6-0.4-0.7-0.5c-0.1,0.1-0.2,0.2-0.2,0.2
				S30.7,105.8,31,106z"/>
		</g>
		<path class="st15" d="M40.6,98c-0.1-0.3-0.4-0.4-0.6-0.5c-3.1-7.2-3.1-7.2-3.2-7.3l-0.5,0.9c0,0,1.7,3.8,2.9,6.6l0,0
			c-0.1,0-0.1,0.1-0.1,0.2l4.2,9l0.7-0.3L40.6,98z"/>
		<path class="st14" d="M40.8,89.2c-0.1-0.5-0.7-0.8-1.2-0.6c-0.4,0.1-0.7,0.5-0.7,0.9l-4.2,1.1c-0.2-0.3-0.6-0.4-1-0.3
			c-0.5,0.1-0.8,0.7-0.6,1.2s0.7,0.8,1.2,0.6c0.2-0.1,0.4-0.2,0.6-0.4l4.8-1.2c0.2,0,0.3,0,0.5,0C40.7,90.2,40.9,89.7,40.8,89.2z"/>
		<path class="st9" d="M34.3,89.3c0,0,0.7,0.3,0.9,0.3c0.4,0,0.8,0.1,0.8,0.1s0.5,0.1,0.5,0.7c0,0,0,0.2-0.8-0.1
			c-0.2-0.1-0.6,0-0.7,0s-0.7-0.4-0.9-0.5L34.3,89.3z"/>
		<path class="st19" d="M37.1,88.6c0,0,0.5,0.3,0.9,0.3c0.4,0,0.8,0.1,0.8,0.1s0.5,0.1,0.5,0.7c0,0,0,0.2-0.8-0.1
			c-0.2-0.1-0.6,0-0.7,0s-0.6-0.4-1-0.5L37.1,88.6z"/>
		<g>
			<g>
				<path class="st14" d="M50.3,106.4l0-0.2l-6.3,1.1l0.2-0.3l0.1,0l0.1-0.3l3.4-4.8l-0.1-0.1l-3.1,4.4l1.6-4.9l-0.2-0.1l-1.8,5.5
					l-0.4,0.6l-0.1,0l0,0l0.1-0.1v-6.3h-0.2v6.2l0,0l-0.2-0.4l0,0l0,0l-1.8-4.9l-0.2,0.1l1.6,4.5l-3.3-3.8l-0.1,0.1l3.5,4.1l0.1,0.4
					l-0.9-0.2l-4.7-2.4l-0.1,0.1l4.3,2.2l-4.8-0.8l0,0.2l5.3,0.9l0.9,0.4l-0.1,0.1l-6,0.9l0,0.2l5.7-0.9l0,0l-5.2,2.2l0.1,0.2
					l4.8-2.1l-3.8,3.8l0.1,0.1l4.1-4.1l0.5-0.2l-3.3,5.2l0.1,0.1l3-4.7c-0.6,1.7-2.1,5.5-2.1,5.6l0.2,0.1c0-0.1,1.5-4,2.3-6.2
					c0,0.1,0.1,0.2,0.1,0.3l-0.5,6l0.2,0l0.5-5.7c0.9,2.2,2.1,5.2,2.2,5.3l0.2-0.1c0-0.1-1.5-3.6-2.2-5.3l3.1,4.9l0.1-0.1l-3.5-5.6
					l5.2,3.6l0.1-0.1l-5.1-3.5L50.3,106.4z M43.6,107l-0.1,0.1l-0.4-0.2L43.6,107z"/>
				<circle class="st11" cx="43.8" cy="107.4" r="1.2"/>
			</g>
			<g>
				<path class="st11" d="M43.8,114.6c-4,0-7.2-3.2-7.2-7.2s3.2-7.2,7.2-7.2s7.2,3.2,7.2,7.2c0,1.3-0.3,2.5-1,3.6
					c-0.6,1.1-1.5,2-2.6,2.6C46.4,114.3,45.1,114.6,43.8,114.6z M43.8,101.2c-3.4,0-6.2,2.8-6.2,6.2c0,3.4,2.8,6.2,6.2,6.2
					c1.1,0,2.2-0.3,3.1-0.9c0.9-0.5,1.7-1.3,2.2-2.2c0.5-0.9,0.8-2,0.8-3.1C50,104,47.3,101.2,43.8,101.2z"/>
			</g>
			<g>
				<path class="st15" d="M43.9,113.8c-3.5,0-6.4-2.9-6.4-6.4c0-3.5,2.9-6.4,6.4-6.4c3.5,0,6.4,2.9,6.4,6.4
					C50.2,110.9,47.4,113.8,43.9,113.8z M43.9,101.3c-3.4,0-6.1,2.7-6.1,6.1c0,3.4,2.7,6.1,6.1,6.1c3.4,0,6.1-2.7,6.1-6.1
					C50,104.1,47.2,101.3,43.9,101.3z"/>
			</g>
		</g>
	</g>
	<g>
		<path class="st19" d="M71.2,108.3l-0.6-0.1c0,0,1.5-5.9,1.3-6.4c-0.2-0.4-1.9-0.7-2.7-1.4c-0.2-0.2-0.3-0.3-0.4-0.5
			c-0.4-1.1,0.3-1.9,0.3-1.9s1.5,0.3,2.9,0.9c1,0.4,1.9,1,2.2,1.6C74.7,102.1,71.2,108.3,71.2,108.3z"/>
		<path class="st14" d="M72.9,109.3c0-0.1-0.1-0.1-0.1-0.1c-0.1-0.1-0.5-0.2-0.7-0.5c-0.1-0.2-0.7-0.7-0.7-0.7l0,0
			c0,0-0.1,0-0.4,0.1c-0.2,0.1-0.4-0.3-0.4-0.3s-0.1,0-0.1,0.1c0,0-0.1,0.1-0.1,0.2c0,0.1-0.1,0.3-0.2,0.5c-0.1,0.1-0.1,0.1-0.1,0.1
			s0,0.1,0.3,0.2l0.4,0.1c0.1,0,0.2,0,0.3,0c0.2,0,0.3,0.1,0.3,0.1c0,0,0,0,0,0l1.5,0.4C72.9,109.5,72.9,109.3,72.9,109.3z"/>
		<g id="BPbxa9_2_">
			<path class="st20" d="M78,100.8l-0.6-0.7l0.1-0.1l-0.1,0.1l0,0l0,0l-7.1,4.8l-1.6-5l-0.5,0.2l1.6,5.1l-6.2,4.2l7.5,0.7l0-0.6
				l-5.9-0.5l4.8-3.1l1.3,4.1l0.5-0.2l-0.2-0.5l0.4,0.2L78,100.8z M70.4,105.6l5.7-3.7l-4.6,7.3L70.4,105.6z"/>
			<path class="st14" d="M79.2,102.2c-0.1-0.3-0.4-0.4-0.7-0.3c-0.8-2.1-1.1-2.8-1.2-3.1l0.7-0.4c0.1,0,0.2,0,0.3-0.1
				c0.3-0.2,0.3-0.5,0.1-0.8c-0.2-0.3-0.5-0.3-0.8-0.1c-0.2,0.1-0.3,0.4-0.2,0.6l-1.3,0.8c-0.2-0.1-0.4-0.1-0.6,0
				c-0.3,0.2-0.3,0.5-0.1,0.8c0.2,0.3,0.5,0.3,0.8,0.1c0.1-0.1,0.2-0.2,0.2-0.3l0.5-0.3c0.2,0.4,0.8,1.9,1.2,3l3.2,6.9l0.5-0.2
				L79.2,102.2z"/>
			<g>
				<path class="st14" d="M65.2,109.2C65.2,109.2,65.2,109.2,65.2,109.2l3.9-0.8l0-0.1l-3.9,0.7c0-0.2-0.2-0.4-0.3-0.5l2.4-3.4
					l-0.1-0.1l-2.3,3.3l1.2-3.7l-0.1,0l-1.3,3.9c-0.1-0.1-0.2-0.1-0.3-0.1v-4.1h-0.1v4.1c-0.1,0-0.1,0-0.2,0l-1.3-3.6l-0.1,0
					l1.2,3.4l-2.4-2.8l-0.1,0.1l2.6,2.9c-0.1,0.1-0.2,0.2-0.3,0.3l-0.1,0l-3.6-1.8l-0.1,0.1l3.2,1.6l-3.6-0.6l0,0.1l4,0.7l0.1,0.1
					c0,0.1-0.1,0.2-0.1,0.4c0,0,0,0,0,0.1l-3.9,0.6l0,0.1l3.9-0.6c0,0,0,0.1,0,0.1l-3.6,1.5l0,0.1l3.6-1.5c0,0,0,0,0,0l-2.8,2.9
					l0.1,0.1l2.8-2.8c0.1,0.1,0.1,0.2,0.2,0.2l-2.1,3.3l0.1,0.1l2.1-3.3c0,0,0,0,0.1,0c-0.5,1.4-1.5,3.9-1.5,3.9l0.1,0
					c0-0.1,0.9-2.3,1.5-3.9c0.1,0,0.2,0,0.3,0c0,0,0,0,0,0l-0.3,4l0.1,0l0.3-4c0,0,0.1,0,0.1,0c0.7,1.6,1.5,3.7,1.5,3.8l0.1,0
					c0-0.1-1-2.5-1.5-3.8c0,0,0,0,0,0l2.2,3.5l0.1-0.1l-2.2-3.5c0.1-0.1,0.2-0.1,0.2-0.2l3.3,2.3l0.1-0.1l-3.3-2.3
					C65.2,109.5,65.2,109.4,65.2,109.2z"/>
				<g>
					<path class="st11" d="M64.3,114.6c-3,0-5.4-2.4-5.4-5.4s2.4-5.4,5.4-5.4c3,0,5.4,2.4,5.4,5.4c0,1-0.3,1.9-0.7,2.7
						c-0.5,0.8-1.1,1.5-1.9,2C66.2,114.4,65.3,114.6,64.3,114.6z M64.3,104.5c-2.6,0-4.7,2.1-4.7,4.7c0,2.6,2.1,4.7,4.7,4.7
						c0.8,0,1.6-0.2,2.4-0.6c0.7-0.4,1.3-1,1.7-1.7c0.4-0.7,0.6-1.5,0.6-2.3C69,106.6,66.9,104.5,64.3,104.5z"/>
				</g>
			</g>
			<g>
				<path class="st14" d="M82.7,109.2C82.7,109.2,82.7,109.2,82.7,109.2l3.9-0.8l0-0.1l-3.9,0.7c0-0.2-0.2-0.4-0.3-0.5l2.4-3.4
					l-0.1-0.1l-2.3,3.3l1.2-3.7l-0.1,0l-1.3,3.9c-0.1-0.1-0.2-0.1-0.3-0.1v-4.1h-0.1v4.1c-0.1,0-0.1,0-0.2,0l-1.3-3.6l-0.1,0
					l1.2,3.4l-2.4-2.8l-0.1,0.1l2.6,2.9c-0.1,0.1-0.2,0.2-0.3,0.3l-0.1,0l-3.6-1.8l-0.1,0.1l3.2,1.6l-3.6-0.6l0,0.1l4,0.7l0.1,0.1
					c0,0.1-0.1,0.2-0.1,0.4c0,0,0,0,0,0.1l-3.9,0.6l0,0.1l3.9-0.6c0,0,0,0.1,0,0.1l-3.6,1.5l0,0.1l3.6-1.5c0,0,0,0,0,0l-2.8,2.9
					l0.1,0.1l2.8-2.8c0.1,0.1,0.1,0.2,0.2,0.2l-2.1,3.3l0.1,0.1l2.1-3.3c0,0,0,0,0.1,0c-0.5,1.4-1.5,3.9-1.5,3.9l0.1,0
					c0-0.1,0.9-2.3,1.5-3.9c0.1,0,0.2,0,0.3,0c0,0,0,0,0,0l-0.3,4l0.1,0l0.3-4c0,0,0.1,0,0.1,0c0.7,1.6,1.5,3.7,1.5,3.8l0.1,0
					c0-0.1-1-2.5-1.5-3.8c0,0,0,0,0,0l2.2,3.5l0.1-0.1l-2.2-3.5c0.1-0.1,0.2-0.1,0.2-0.2l3.3,2.3l0.1-0.1l-3.3-2.3
					C82.6,109.5,82.7,109.4,82.7,109.2z"/>
				<g>
					<path class="st11" d="M81.8,114.6c-3,0-5.4-2.4-5.4-5.4s2.4-5.4,5.4-5.4c3,0,5.4,2.4,5.4,5.4c0,1-0.3,1.9-0.7,2.7
						c-0.5,0.8-1.1,1.5-1.9,2C83.7,114.4,82.7,114.6,81.8,114.6z M81.8,104.5c-2.6,0-4.7,2.1-4.7,4.7c0,2.6,2.1,4.7,4.7,4.7
						c0.8,0,1.6-0.2,2.4-0.6c0.7-0.4,1.3-1,1.7-1.7c0.4-0.7,0.6-1.5,0.6-2.3C86.4,106.6,84.3,104.5,81.8,104.5z"/>
				</g>
			</g>
			<g>
				<path class="st13" d="M68.7,103.6c-0.1,0-0.2,0-0.2,0l0,0c-2.5-1.5-6-1-7.1-0.7l0,0c-0.1,0-0.1,0-0.1-0.1v-0.2
					c0-0.2,0.1-0.3,0.3-0.3c0.5-0.1,1.8-0.3,2.6-0.3c0,0,0,0,0.1,0c1.6,0,3,0.3,4.1,0.9c0.2,0.1,0.5,0.1,0.7,0l0.3-0.1
					c0.2-0.1,0.4,0,0.4,0.2l0,0c0,0.1,0,0.2-0.1,0.3L68.7,103.6z"/>
			</g>
			<path class="st14" d="M66.4,99.8c0,0-0.1-0.5,0.2-0.5c0.3,0,1.3,0.2,1.6,0.2c0.3,0,1.8-0.3,2,0c0.3,0.3,0.1,0.5-0.4,0.5
				c-0.5,0-1.2,0.1-1.4,0.3C68.2,100.4,66.8,100.9,66.4,99.8z"/>
			<path class="st11" d="M74.5,110.9H74l-1.1-0.5c0-0.1,0.1-0.3,0.1-0.4c0-0.8-0.6-1.4-1.4-1.4c-0.8,0-1.4,0.6-1.4,1.4
				c0,0.8,0.6,1.4,1.4,1.4c0.6,0,1-0.3,1.3-0.8l0.6,0.3h-0.2c-0.1,0-0.3,0.1-0.3,0.3s0.1,0.3,0.3,0.3h1.2c0.1,0,0.3-0.1,0.3-0.3
				S74.6,110.9,74.5,110.9z"/>
		</g>
		<path class="st19" d="M77.2,97.5C77.2,97.5,77.2,97.5,77.2,97.5c-0.5-0.3-3-1.6-3.1-2c-0.1-0.2-0.4-1.1-0.7-1.8
			c-0.1-0.2-0.2-0.2-0.3-0.3c-0.2-0.4-0.9-0.1-1-0.1c-0.4-0.2-0.9-0.4-0.9,0.1c0,0,0.1,0.3,0.3,0.8c0.1,0.2,0.2,0.4,0.3,0.6
			c0.4,0.8,0.9,1.8,1.2,2c0.6,0.3,2.7,1.2,3.5,1.3c0,0,0,0,0,0s0.4,0.4,0.5,0.5c0.1,0.1,0.3,0.2,0.5,0.1c0.2-0.1,0.2-0.4,0.2-0.5
			C77.6,98,77.6,97.6,77.2,97.5z"/>
		<path class="st9" d="M70.8,92.6l1.6,0.6c0.2-0.2,0.4-0.5,0.6-0.8c0.2-0.3,0.3-0.7,0.3-0.7l-1.1-0.8l-0.5-0.3
			C71.7,91.3,70.8,92.6,70.8,92.6z"/>
		<path class="st19" d="M71.7,91c0,0,0.4,1.1,1.3,1.4c0.2-0.3,0.3-0.7,0.3-0.7l-1.1-0.8L71.7,91z"/>
		<path class="st9" d="M73.8,91.7c0,0-1.9,0.3-2.1-0.9c-0.2-1.2-0.5-2,0.7-2.2c1.2-0.2,1.5,0.2,1.7,0.6
			C74.2,89.5,74.3,91.6,73.8,91.7z"/>
		<path class="st11" d="M71,88.3c0,0,0.1,0,0.2,0.1c0,0,0,0,0,0c0-0.3,0.3-0.5,0.3-0.5c-0.1,0.2-0.1,0.4-0.1,0.4
			c0.4-0.6,2.1-0.1,2.3-0.1c0.2,0,0.3-0.2,0.3-0.2c0.3,0.2,0.4,0.8,0.1,1.1c-0.2,0.4-0.9,0.9-1.1,0.8c-0.2-0.1-0.2,0.1-0.2,0.4
			c0,0.3-0.5,0.8-0.9,0.9c-0.3,0.1-0.3-0.1-0.4-0.3c0,0,0-0.1-0.1-0.1c-0.4-0.4-0.6-1.1-0.5-1.8c0-0.3,0.2-0.5,0.2-0.6
			C71.1,88.5,71,88.4,71,88.3z"/>
		<path class="st23" d="M71.9,99c0,0.1-0.2,0.8-0.8,1c-0.4,0.1-1.2,0.4-2,0.5c-0.2-0.2-0.3-0.3-0.4-0.5c-0.4-1.1,0.3-1.9,0.3-1.9
			S70.5,98.4,71.9,99z"/>
		<path class="st9" d="M67.7,96.5c0,0-1.7,1.7-0.2,3.8c1.4,2,3.8,3.7,3.9,4.4c0.2,1.4,1.7,4.3,2.4,5.7l0.6-0.2c0,0-1.1-6.8-1.5-7.6
			c-0.4-0.8-2.5-4.6-2.5-4.6L67.7,96.5z"/>
		<path class="st25" d="M73.4,93.6c-0.2,0-0.5,0.2-0.6,0.3c-0.1,0.2-1.2-0.3-1.3-0.7c0.3-0.3,0.8-0.6,1.1-0.5
			C72.8,92.8,73.1,93.1,73.4,93.6z"/>
		<path class="st15" d="M67.2,97c0,0,2,1.4,3.4,1.4c0,0,0.9,1.5,1.1,2c0,0-2.3,1.2-3.5,0.9c0,0-1.6-1.5-1.5-2.6
			C66.8,97.7,67.2,97,67.2,97z"/>
		<path class="st20" d="M72.8,94.3L72.3,95l0,0.1l-1,2.3l-0.5,1.2c-0.3,0.1-1,0-1.3-0.1c-1.6-0.5-2.2-1.5-2.2-1.5
			c0.9-2.4,2.2-4,2.4-4.3c0.4-0.5,1.6-0.9,1.6-0.9c0.3,0.3,1.5,0.9,1.5,0.9C73,93,72.8,94.3,72.8,94.3z"/>
		<path class="st25" d="M72.3,95.1l-1,2.3c-0.8-1.5-0.3-3.8-0.3-3.8s1.2,1.1,1.3,1.2C72.3,94.8,72.3,94.9,72.3,95.1z"/>
		<path class="st9" d="M76.8,97.8C76.8,97.8,76.8,97.8,76.8,97.8c-0.5-0.3-3-1.6-3.1-2c-0.1-0.2-0.4-1.1-0.7-1.8
			c-0.1-0.2-0.2-0.4-0.3-0.5c-0.2-0.4-0.4-0.6-0.5-0.7c-0.4-0.2-1.5,0.4-1.5,0.8c0,0,0.1,0.3,0.3,0.8c0.1,0.2,0.2,0.4,0.3,0.6
			c0.4,0.8,0.9,1.8,1.2,2c0.6,0.3,2.7,1.2,3.5,1.3c0,0,0,0,0,0s0.4,0.4,0.5,0.5c0.1,0.1,0.3,0.2,0.5,0.1c0.2-0.1,0.2-0.3,0.2-0.4
			C77.4,98.4,77.4,98,76.8,97.8z"/>
		<path class="st20" d="M73,94c-0.4,0.2-1.1,0.5-1.7,1c-0.1-0.2-0.2-0.4-0.3-0.6c-0.2-0.5-0.3-0.8-0.3-0.8c0-0.4,1.1-1.1,1.5-0.8
			c0.1,0.1,0.3,0.3,0.5,0.7C72.8,93.7,72.9,93.9,73,94z"/>
		<g>
			<path class="st20" d="M73.5,110.9h0.4c0.1,0,0.2,0,0.3-0.1c0.2,0,0.3,0,0.3,0.1c0,0,0,0,0,0h1.5c0,0,0-0.2,0-0.2
				c0-0.1-0.1-0.1-0.1-0.1c-0.2,0-0.5-0.1-0.8-0.3c-0.2-0.1-0.8-0.5-0.8-0.5l0,0c0,0-0.1,0-0.4,0.2c-0.1,0.1-0.4-0.2-0.4-0.2
				s0,0-0.1,0.1c0,0.1,0,0.1,0,0.2c0,0.1-0.1,0.4-0.1,0.5c0,0.1-0.1,0.2-0.1,0.2S73.2,110.9,73.5,110.9z"/>
			<path class="st14" d="M73.4,109.9c0.1,0.1,0.3,0.2,0.4,0.2c0.2,0,0.5-0.4,0.5-0.4l0,0c0,0-0.1,0-0.4,0.2
				c-0.1,0.1-0.4-0.2-0.4-0.2S73.5,109.9,73.4,109.9z"/>
			<path class="st14" d="M73.5,110.9h0.4c0.1,0,0.2,0,0.3-0.1c0.2,0,0.3,0,0.3,0.1c0,0,0,0,0,0h1.5c0,0,0-0.2,0-0.2
				c0,0-0.1,0.2-0.1,0.2c0,0-1.3,0-1.3,0c-0.1,0-0.3-0.1-0.6-0.1c-0.3,0.1-0.6-0.1-0.7-0.1c0,0.1-0.1,0.2-0.1,0.2
				S73.2,110.9,73.5,110.9z"/>
		</g>
	</g>
	<path class="st5" d="M149.2,114.8H0.8c-0.1,0-0.1-0.1-0.1-0.1l0,0c0-0.1,0.1-0.1,0.1-0.1h148.4c0.1,0,0.1,0.1,0.1,0.1l0,0
		C149.4,114.8,149.3,114.8,149.2,114.8z"/>
</g>
</svg>
