<svg id="Capa_1" data-name="Capa 1" xmlns="http://www.w3.org/2000/svg" viewBox="0 0 80 80"><title>mapaweb</title><path d="M70,19.85H58.66a.85.85,0,0,0-.82.87.86.86,0,0,0,.87.82H70a.84.84,0,0,1,.84.84V26.6H58.17a.85.85,0,0,0,0,1.69H70.83V40.63l-13.5-4a.82.82,0,0,0-.68.09.85.85,0,0,0-.39.55c-1.2,5.91-6.22,9.91-8.08,11.22l-1.64-2.68a.84.84,0,0,0-1.44.84l2.09,3.43a.85.85,0,0,0,1.16.28c.31-.18,7.37-4.47,9.36-11.9l13.12,3.9v3.43L60.07,42.27A.85.85,0,0,0,59,42.8s0,0,0,.05a15,15,0,0,1-7.27,8.54.84.84,0,0,0-.35,1.14.77.77,0,0,0,.35.34L70.83,63.7v5.07h-6L49.19,54.57a.8.8,0,0,0-.35-.19L40.4,52.22a.85.85,0,0,0-.9.32l-5.21,7.22a.83.83,0,0,0,0,1l6.56,8H32.7L32,59.65l5.32-7.45a.85.85,0,0,0-.2-1.18h0l-9.75-6.69a.88.88,0,0,0-1,0L6.69,59V56.51l19-13.92a.82.82,0,0,0,.3-.94L21.27,27.18h0a.86.86,0,0,0-.79-.59H6.69V22.37a.85.85,0,0,1,.84-.84H19.47a.85.85,0,1,0,0-1.69H7.53A2.53,2.53,0,0,0,5,22.37V70.48H72.52V22.37A2.53,2.53,0,0,0,70,19.85ZM36,60.23,40.53,54l7.68,2L62.35,68.8H43ZM19.85,28.29,24.17,41.6,6.69,54.38V28.29ZM6.69,61.15l20.17-15.1,8.57,5.86-5,7a.78.78,0,0,0-.15.55L31,68.8H6.69Zm47.12-9a16.76,16.76,0,0,0,6.53-8l10.49,3.46V61.76Z"/><circle cx="9.33" cy="24.07" r="0.81"/><circle cx="12.16" cy="24.07" r="0.81"/><circle cx="14.98" cy="24.07" r="0.81"/><path d="M39.37,47.73c2.83,0,16.39-13.63,16.39-24.19a16.39,16.39,0,1,0-32.78,0C23,35.66,36.52,47.73,39.37,47.73Zm0-38.9A14.73,14.73,0,0,1,54.08,23.55c0,10-12.75,22.21-14.69,22.5-1.6-.17-14.72-11.2-14.72-22.5A14.73,14.73,0,0,1,39.37,8.83Z"/><path d="M39.37,28.85a7,7,0,1,0-7-7A7,7,0,0,0,39.37,28.85Zm0-12.4A5.36,5.36,0,1,1,34,21.81h0A5.36,5.36,0,0,1,39.37,16.45Z"/></svg>