<?xml version="1.0" encoding="utf-8"?>
<!-- Generator: Adobe Illustrator 22.0.0, SVG Export Plug-In . SVG Version: 6.00 Build 0)  -->
<svg version="1.1" id="Capa_1" xmlns="http://www.w3.org/2000/svg" xmlns:xlink="http://www.w3.org/1999/xlink" x="0px" y="0px"
	 viewBox="0 0 50 50" style="enable-background:new 0 0 50 50;" xml:space="preserve">
<style type="text/css">
	.st0{fill:#AAD0D6;}
	.st1{fill:#EFE5D5;}
	.st2{fill:#D2C6B3;}
	.st3{fill:#C1B5A3;}
	.st4{fill:#8DC63F;}
	.st5{fill:#F1F2F2;}
	.st6{fill:#FBF43F;}
	.st7{fill:#C49A6C;}
	.st8{fill:#E5E5E5;}
	.st9{fill:#F7941E;}
	.st10{fill:#58595B;}
</style>
<g>
	<polygon class="st0" points="28.7,40 19.8,44 8.4,44.4 1.6,14.4 12.1,9.8 21.8,9.6 30.7,5.6 42.2,5.2 49,35.2 38.5,39.7 	"/>
	<polygon class="st1" points="28.2,39.5 19.3,43.5 7.8,43.9 1,13.9 11.5,9.4 21.3,9.1 30.2,5.1 41.6,4.7 48.4,34.7 37.9,39.3 	"/>
	<polygon class="st2" points="8.6,43 19.1,42.6 11.7,10.3 2.1,14.5 	"/>
	<polygon class="st3" points="28,38.6 19.1,42.6 11.7,10.3 21.5,10 	"/>
	<polygon class="st4" points="6.3,33.3 11.6,33.1 13.1,39.6 7.8,39.8 	"/>
	<polygon class="st3" points="47.4,34.2 37.7,38.4 30.4,6 40.9,5.6 	"/>
	<polygon class="st2" points="28,38.6 37.7,38.4 30.4,6 21.5,10 	"/>
	<polygon class="st5" points="36.5,32.9 36.8,34.3 46.4,30.1 46.1,28.7 	"/>
	<polygon class="st5" points="9.3,22.4 6.9,23.4 7,24.1 9.5,23 	"/>
	<polygon class="st6" points="22.3,9.7 21.5,10 23,17 23.9,16.6 	"/>
	<polygon class="st7" points="9.5,23 9.9,25 7.8,25.9 7.3,23.9 	"/>
	<polygon class="st6" points="35.5,15.2 38.3,27.4 39.8,26.8 37.2,15.1 	"/>
	<polygon class="st5" points="7,22.5 13.8,19.5 13.3,17.2 8.6,19.3 7.4,13.7 6.4,14.2 7.6,19.7 3.6,21.4 4.2,23.7 6,22.9 7.2,27.9 
		8.1,27.5 7.9,26.6 9.9,25.7 11.1,30.9 12.2,30.7 11.2,26.5 15.1,25.2 14.9,24.3 11,25.7 10.8,24.6 9.9,25 7.8,25.9 	"/>
	<polygon class="st8" points="23.6,19.3 23,17 13.3,17.2 13.8,19.5 17.9,19.4 20.3,29.8 16.5,31.2 16.7,32.2 20.5,30.8 21.7,35.9 
		17.9,37.6 18.4,39.9 27.3,35.9 26.8,33.6 23.6,35 21.1,23.9 24.6,23.8 24.2,21.9 20.7,22 20.1,19.4 	"/>
	<polygon class="st6" points="15,37.9 13.7,32.3 15,31.8 16.4,37.9 	"/>
	<polygon class="st8" points="29.4,9 30.4,13.7 28.2,14.7 28.2,14.7 27.7,14.9 23,17 23.6,19.3 28,17.3 28.7,20.1 24.2,21.9 
		24.9,25 30.1,23.1 29.4,19.8 28.7,17 32.5,15.3 32,13 31.9,13 30.8,8.1 	"/>
	<polygon class="st8" points="29.3,28.8 29.5,29.9 29.8,31.1 30.3,33.5 26.8,33.6 27.3,35.9 30.8,35.8 30.8,35.8 33,35.7 32.5,33.5 
		31.9,31 34.4,31 35.1,34.3 36.8,34.3 36,30.9 35.5,28.6 	"/>
	<polygon class="st4" points="36,30.9 45.7,26.7 46.1,28.7 36.5,32.9 	"/>
	<polygon class="st5" points="41.1,12.6 39.5,5.7 37.5,5.8 39.1,12.7 31.9,13 32.5,15.3 43,14.9 42.5,12.6 	"/>
	<path class="st9" d="M13.1,16.4L13.1,16.4L13.1,16.4c-1.5,0.3-2.5,1.8-2.1,3.4l0,0c0.1,0.5,0.3,1,0.6,1.5c0.5,0.9,1.5,2.3,3.4,3.3
		c1.2-1.7,1.6-3.4,1.6-4.5c0-0.5,0-1.1-0.1-1.6l0,0C16.1,17,14.6,16,13.1,16.4z M14,20.1c-0.7,0.2-1.4-0.3-1.5-1
		c-0.2-0.7,0.3-1.4,1-1.5c0.7-0.2,1.4,0.3,1.5,1C15.1,19.3,14.6,20,14,20.1z"/>
	<polygon class="st10" points="24.7,14.1 24.1,14.9 24.3,14.8 24.4,15.5 25.5,15.3 25.4,14.6 25.5,14.6 	"/>
	<polygon class="st10" points="34.6,16.8 34,17.6 34.2,17.5 34.3,18.2 35.4,17.9 35.3,17.3 35.4,17.2 	"/>
	<polygon class="st10" points="29.9,23.6 29.3,24.4 29.4,24.4 29.6,25.1 30.7,24.8 30.5,24.1 30.7,24.1 	"/>
	<polygon class="st10" points="18.7,28.3 18.1,29.1 18.3,29.1 18.4,29.8 19.5,29.5 19.4,28.8 19.5,28.8 	"/>
	<polygon class="st10" points="9.4,31.1 8.8,31.9 9,31.9 9.1,32.6 10.2,32.3 10.1,31.6 10.2,31.6 	"/>
	<polygon class="st10" points="24.3,32.9 23.7,33.7 23.9,33.7 24,34.3 25.1,34.1 24.9,33.4 25.1,33.4 	"/>
	<polygon class="st5" points="45.7,26.7 36,30.9 35.5,28.6 45.2,24.4 	"/>
	<path class="st9" d="M34.6,23.2L34.6,23.2L34.6,23.2c-1.5,0.3-2.5,1.8-2.1,3.4l0,0c0.1,0.5,0.3,1,0.6,1.5c0.5,0.9,1.5,2.3,3.4,3.3
		c1.2-1.7,1.6-3.4,1.6-4.5c0-0.5,0-1.1-0.1-1.6l0,0C37.6,23.9,36.1,22.9,34.6,23.2z M35.4,27c-0.7,0.2-1.4-0.3-1.5-1
		c-0.2-0.7,0.3-1.4,1-1.5c0.7-0.2,1.4,0.3,1.5,1C36.6,26.2,36.1,26.8,35.4,27z"/>
	<polygon class="st5" points="7.9,40.3 18.4,39.9 17.9,37.6 7.4,38 	"/>
</g>
</svg>
