<svg id="Capa_1" data-name="Capa 1" xmlns="http://www.w3.org/2000/svg" viewBox="0 0 30 30"><defs><style>.cls-1{fill:#fff;}</style></defs><title>noun_weather_3093736</title><path class="cls-1" d="M21.14,16.36h-.09c0-.09-.05-.23-.05-.32a4.64,4.64,0,0,0,3.9-4.55,4.6,4.6,0,1,0-9.19,0v.14A4.49,4.49,0,0,0,11.52,8.7a4.43,4.43,0,0,0-4.41,4H7a5,5,0,1,0,0,10H7.3a5,5,0,0,0,4.83,3.72h9.06a5,5,0,0,0,5-5h0A5.17,5.17,0,0,0,21.14,16.36Zm-.83-8.54a3.66,3.66,0,0,1,.41,7.29,4.47,4.47,0,0,0-4-2.69,3,3,0,0,1-.14-.93A3.71,3.71,0,0,1,20.31,7.82ZM7,21.75a4.09,4.09,0,1,1,0-8.17,1.36,1.36,0,0,1,.42,0,.45.45,0,0,0,.41-.09A.54.54,0,0,0,8,13.16a3.53,3.53,0,0,1,3.53-3.53,3.49,3.49,0,0,1,3.49,3.06,4.5,4.5,0,0,0-2.84,3.67h-.09a5,5,0,0,0-5,5v.37Zm14.17,3.72H12.13a4.09,4.09,0,0,1,0-8.18h.23c.09,0,.19.05.28.05a.44.44,0,0,0,.46-.46A3.53,3.53,0,0,1,20,15.76a3.11,3.11,0,0,1,.19,1.12.59.59,0,0,0,.18.37.45.45,0,0,0,.42,0h.37a4.27,4.27,0,0,1,4.14,4.09A4.09,4.09,0,0,1,21.19,25.47Z"/><path class="cls-1" d="M20.26,5.59a.44.44,0,0,0,.46-.47V3.31a.43.43,0,0,0-.46-.46.44.44,0,0,0-.47.46V5.12A.45.45,0,0,0,20.26,5.59Z"/><path class="cls-1" d="M28.44,11H26.67a.44.44,0,0,0-.46.47.43.43,0,0,0,.46.46h1.77a.44.44,0,0,0,.46-.46A.44.44,0,0,0,28.44,11Z"/><path class="cls-1" d="M25.09,15.67a.46.46,0,0,0-.65.65l1.3,1.25a.4.4,0,0,0,.33.14.39.39,0,0,0,.32-.14.44.44,0,0,0,0-.65Z"/><path class="cls-1" d="M15.43,7.31a.49.49,0,0,0,.32.13.44.44,0,0,0,.33-.13.47.47,0,0,0,0-.66l-1.26-1.3a.46.46,0,0,0-.65.65Z"/><path class="cls-1" d="M24.77,7.44a.42.42,0,0,0,.32-.13L26.39,6a.44.44,0,0,0,0-.65.46.46,0,0,0-.65,0l-1.3,1.3a.45.45,0,0,0,0,.66A.43.43,0,0,0,24.77,7.44Z"/></svg>