<?xml version="1.0" encoding="utf-8"?>
<!-- Generator: Adobe Illustrator 22.0.0, SVG Export Plug-In . SVG Version: 6.00 Build 0)  -->
<svg version="1.1" id="Capa_1" xmlns="http://www.w3.org/2000/svg" xmlns:xlink="http://www.w3.org/1999/xlink" x="0px" y="0px"
	 viewBox="0 0 2460 936" style="enable-background:new 0 0 2460 936;" xml:space="preserve">
<style type="text/css">
	.st0{fill:#A8B2B2;}
	.st1{fill:#FFFFFF;}
	.st2{fill:#8A8C8E;}
	.st3{fill:#66696A;}
	.st4{fill:#E4E5E6;}
	.st5{fill:#DCA100;}
	.st6{fill:#F7A491;}
	.st7{fill:#414042;}
	.st8{fill:#1227C4;}
	.st9{fill:#4052A8;}
	.st10{fill:#3F3E40;}
	.st11{fill:#FECF1E;}
	.st12{fill:#5C595C;}
	.st13{fill:#525052;}
	.st14{fill:#DEE1E2;}
	.st15{fill:#B6BABC;}
	.st16{fill:#FEC900;}
	.st17{fill:#2F2E30;}
	.st18{fill:#382E0D;}
	.st19{fill:#382E10;}
	.st20{fill:url(#SVGID_1_);}
	.st21{fill:#02BEC4;}
	.st22{fill:url(#SVGID_2_);}
	.st23{fill:url(#SVGID_3_);}
	.st24{fill:url(#SVGID_4_);}
	.st25{fill:url(#SVGID_5_);}
	.st26{fill:url(#SVGID_6_);}
	.st27{fill:url(#SVGID_7_);}
	.st28{fill:url(#SVGID_8_);}
	.st29{fill:url(#SVGID_9_);}
	.st30{fill:url(#SVGID_10_);}
	.st31{fill:url(#SVGID_11_);}
	.st32{fill:url(#SVGID_12_);}
	.st33{fill:url(#SVGID_13_);}
	.st34{fill:url(#SVGID_14_);}
	.st35{fill:url(#SVGID_15_);}
	.st36{opacity:0.3;fill:#232D3D;enable-background:new    ;}
	.st37{fill:#60B1B8;}
	.st38{fill:#57AAAA;}
	.st39{fill:#4B999B;}
	.st40{fill:#B9DF47;}
	.st41{fill:#B1D337;}
	.st42{opacity:0.5;fill:#60B1B8;enable-background:new    ;}
	.st43{opacity:0.3;fill:#60B1B8;enable-background:new    ;}
	.st44{opacity:0.5;fill:#B9DF47;enable-background:new    ;}
	.st45{fill:#FDFAEB;}
	.st46{opacity:0.6;fill:#B8F1F2;enable-background:new    ;}
	.st47{fill:#FDCB26;}
	.st48{fill:#FF8A0B;}
	.st49{fill:#FC7E00;}
	.st50{fill:#FFF58D;}
	.st51{opacity:0.59;fill:#FFF58D;enable-background:new    ;}
	.st52{fill:#FF5B00;}
	.st53{fill:#C0C0C0;}
	.st54{fill:#000072;}
	.st55{opacity:0.4;}
	.st56{fill:#29B6F6;}
	.st57{opacity:0.2;}
	.st58{fill:#4DD0E1;}
	.st59{opacity:0.5;}
	.st60{fill:#E0F7FA;}
	.st61{fill:#FFBA0D;}
	.st62{opacity:0.6;}
	.st63{fill:#F5F5F5;}
</style>
<path class="st0" d="M927.2,949.6c-6.7-45.2,12.7-93.6,34.5-137.4c31.7-63.8,85.7-136.7,153.1-165c17.8-7.4,83.1-16,213-32.8
	c76.8-9.9,106.4-13,147.5-29c56.2-21.9,96.9-53.8,122.9-77.8c30.8-36.9,84.6-90.1,164.2-122.9c9.8-4,50.3-20.3,106.5-28.7
	c42.4-6.4,79-6.1,106.5-4.1c57.1,4.2,115.4-0.7,171.2-12.9c60.8-13.3,125.5-30.3,173.8-71.7c56.6-48.5,118.5-155.5,208.4-124.4
	c22.1,7.7,55.1,31.3,77.8,127c35.6,149.9,37.9,441.6-110.6,643.5c-101,137.4-260.5,216.8-422.2,258.9
	c-176.5,45.9-363.2,52.8-544.2,35.2c-154-15-313.7-46.2-453.7-114.7c-42.5-20.8-85.5-45.9-118-80.9
	C939.7,992.5,930.4,971.4,927.2,949.6z"/>
<rect x="1318" y="728.7" class="st1" width="8.3" height="6.1"/>
<rect x="1318" y="702.3" class="st1" width="8.3" height="8.3"/>
<rect x="1318" y="675.9" class="st1" width="8.3" height="8.3"/>
<rect x="1318" y="649.5" class="st1" width="8.3" height="8.3"/>
<rect x="1318" y="623.1" class="st1" width="8.3" height="8.3"/>
<rect x="1318" y="596.7" class="st1" width="8.3" height="8.3"/>
<rect x="1318" y="570.3" class="st1" width="8.3" height="8.3"/>
<rect x="1288.4" y="750.6" class="st1" width="5.6" height="132"/>
<rect x="1298.1" y="750.6" class="st1" width="5.6" height="132"/>
<rect x="1307.7" y="750.6" class="st1" width="5.6" height="132"/>
<rect x="1317.3" y="750.6" class="st1" width="5.6" height="132"/>
<rect x="1327" y="750.6" class="st1" width="5.6" height="132"/>
<rect x="1357.1" y="615.5" class="st1" width="4.7" height="270.1"/>
<rect x="1366.3" y="615.5" class="st1" width="4.7" height="270.1"/>
<rect x="1375.6" y="615.5" class="st1" width="4.7" height="270.1"/>
<path class="st1" d="M1270.9,880.4V725c-2.3,4.2-4.8,8.3-7.4,12.3v143.2L1270.9,880.4L1270.9,880.4z"/>
<g>
	<g>
		<path class="st2" d="M1384.7,735v49.7h-16.5V735H1384.7z M1363.9,735v49.7h-16.5V735H1363.9z M1343.1,735v49.7h-16.5V735H1343.1z
			 M1322.3,735v49.7h-16.5V735H1322.3z M1301.5,735v49.7H1285V735H1301.5z M1280.7,735v49.7h-16.5V735H1280.7z"/>
		<g>
			<g>
				<rect x="1312.8" y="845.9" class="st3" width="51" height="95.6"/>
				<rect x="1308.6" y="845.9" class="st4" width="51" height="95.6"/>
				<rect x="1314.9" y="855" class="st5" width="38.4" height="86.5"/>
				<rect x="1314.8" y="855" class="st2" width="2.4" height="86.5"/>
				<g>
					<rect x="1331.6" y="855" class="st2" width="8.7" height="86.5"/>
					<rect x="1328.1" y="855" class="st4" width="8.7" height="86.5"/>
				</g>
			</g>
		</g>
	</g>
</g>
<g>
	<g>
		<path class="st6" d="M1314,550.2c2.5-6.5,0.6-19.1-4.4-32.5c-1.1-2.9,2.9-6.9,1.5-9.8c-2.3-5.1-10.2-9.2-13.2-13.9
			c-8.3-13.1-18.9-23.9-30.5-26.8c-29.4-7.4-44.5,26.5-44.5,26.5c-1.2,0.3,13.1,62.3,36.5,68.7l-5.6,35.2c0,0,30.9,24.8,49,19.6
			c15.1-4.4,4.8-24.2,4.8-24.2s-5-17-5.9-31.2C1307.6,559.1,1312.1,555.2,1314,550.2z"/>
		<path class="st7" d="M1247.1,441c-16.7,9.6-38.5,20.2-38.5,42.6c-7.8,3.7-13.3,21.5-10.5,35.7c5.5,28.6,14.5,32.1,35.6,38.3
			s24.4,20.1,24.4,20.1s24.4-6,26.1-15.8s5.7-20.5-1.4-27s-14.2-6.9-14.2-16.5c0-9.6,16.4,0.7,17.4-9.2c0,0,2.4-27.2-5-37.1
			C1294.7,452.9,1268.6,428.6,1247.1,441z"/>
	</g>
	<path class="st8" d="M1265.1,941.5h71.7c2.3-22.4,4-39.8,4-39.8L1291.5,792l-23.9,4.3c0,0-9.5,45.7-5.6,80.3
		C1263.5,889.6,1264.5,914.9,1265.1,941.5z"/>
	<path class="st9" d="M1308.6,941.5h96.5l-8.7-106.1l-17.8-56.4l-101.7,15.2c0,0-6.2,41.1,1.5,59.2
		C1281.8,861.2,1294.9,899.6,1308.6,941.5z"/>
	<path class="st10" d="M1384.7,729.2c-5.3-29-24.2-119.6-27.3-136.2c-1-14.8-100.9-3-103.5-2.9c0,0-18.5,3-26.7,10.7
		c-23.7,18.4,19.2,114.2,27.8,141c6.5,26,3.8,104.1,3.4,104.3c0,0,106.1,19.5,143.9-12.3C1402.3,833.9,1390.2,758.9,1384.7,729.2z"
		/>
	<g>
		<g>
			<path class="st5" d="M1467,507.6c-3.8-0.3-6.8,5.9-2.7,7.5l-17.6,84.7c-7-0.6-7.3,1-8.3,7.4h-3.9l-0.4-12.4h-22.6
				c-3.5,7.2-5.7,11.9-5.9,12.4h-3.9c1.3-6.1,2.1-8-5.2-7.4l14.9-84.7c3.8-0.8,5.1-7.5,0.3-7.5c-3.8-0.3-6.8,5.9-2.7,7.5l-17.6,84.7
				c-8.3-1-7.3,2.9-8.7,9.3l-6.8,35.2c-0.2,0.9,0.4,1.6,1.3,1.6h70.6c3.2,1.9,7.8-36,8.7-36.8c0.8-5.7,4.1-10.4-4.9-9.3l14.9-84.7
				C1470.5,514.3,1471.7,507.6,1467,507.6z M1412.8,597.2h19l0.3,10H1408C1408.8,605.5,1411.1,600.7,1412.8,597.2z"/>
			<path class="st11" d="M1466,505.6c-3.8-0.3-6.8,5.9-2.7,7.5l-17.6,84.7c-7-0.6-7.4,1-8.3,7.4h-3.9l-0.4-12.4h-22.6
				c-3.5,7.2-5.7,11.9-5.9,12.4h-3.9c1.3-6.1,2.1-8-5.2-7.4l14.9-84.7c3.8-0.8,5.1-7.5,0.3-7.5c-3.8-0.3-6.8,5.9-2.7,7.5l-17.6,84.7
				c-8.3-1-7.3,2.9-8.7,9.3l-6.8,35.2c-0.2,0.9,0.4,1.6,1.3,1.6h70.6c3.2,1.9,7.8-36,8.7-36.8c0.8-5.7,4.1-10.4-4.9-9.3l14.9-84.7
				C1469.5,512.4,1470.8,505.7,1466,505.6z M1411.9,595.3h19l0.3,10h-24.1C1407.9,603.6,1410.2,598.8,1411.9,595.3z"/>
			<ellipse class="st7" cx="1391.7" cy="622" rx="8.5" ry="8.5"/>
			<ellipse class="st7" cx="1437.7" cy="622" rx="8.5" ry="8.5"/>
			<polygon class="st12" points="1404.8,610.1 1399.9,637.4 1423.8,637.4 1428.2,610.1 			"/>
		</g>
		<path class="st6" d="M1375.1,638.8c0.7-6.7,7.9-19.5,15.9-20.1c7.9-0.6,0.6,4.9,0,7.3c-0.6,2.4-0.6,29.3-8.5,33
			S1373.3,655.3,1375.1,638.8z"/>
		<path class="st6" d="M1435.6,646.1c-6.1-12.2-1.2-33,2.4-29.9c3.7,3.1-0.6,11,4.3,14c4.9,3.1,13.2-24.3,13.2-24.3s2.6-0.1,3.2,5.4
			s0.6,14.7,0.6,14.7s1.2,3.1,0.6,7.3c-0.6,4.3,0,9.2-11,24.4c-4.9,6.7-17.7,70.8-33.6,75.7s-53.7-80.6-51.3-85.5
			c2.4-4.9,14-20.1,14-17.7s37.9,53.1,37.9,53.1L1435.6,646.1z"/>
		<path class="st13" d="M1411.5,668.1c0,0-10.1,36.6-33.9,44.9c-6.6-1.4-62.5-108.2-37.2-125.1
			C1365.7,571,1411.5,668.1,1411.5,668.1z"/>
	</g>
	<g>
		<path class="st1" d="M1425.7,500l3.6,3.6c2.7-2.7,6.4-4.2,10.2-4.2c3.9,0,7.5,1.5,10.2,4.2l3.6-3.6c-3.7-3.7-8.6-5.7-13.8-5.7
			C1434.3,494.2,1429.4,496.3,1425.7,500z"/>
		<path class="st1" d="M1416.3,491l3.6,3.6c10.8-10.8,28.3-10.8,39.1,0l3.6-3.6C1449.9,478.2,1429.1,478.2,1416.3,491z"/>
	</g>
</g>
<g>
	<g>
		<g>
			
				<ellipse transform="matrix(0.1071 -0.9942 0.9942 0.1071 1058.2598 1794.2308)" class="st14" cx="1528.1" cy="307.9" rx="21.7" ry="43.6"/>
			
				<ellipse transform="matrix(0.1071 -0.9942 0.9942 0.1071 1057.1361 1794.9677)" class="st15" cx="1527.9" cy="308.9" rx="14.3" ry="32.1"/>
			<path class="st1" d="M1511.5,307.5c-0.4,3.8,6.4,7.7,15.3,8.6c8.8,1,16.3-1.4,16.7-5.2c0.4-3.8-6.4-7.7-15.3-8.6
				C1519.4,301.4,1511.9,303.7,1511.5,307.5z"/>
			<g>
				<path class="st1" d="M1558.5,304c-12-11.5-33.5-13.3-49.3-10.7c-1.2-0.1-9.8,3.1-7.9,0.4C1517.6,288,1548.3,289.7,1558.5,304z"
					/>
				<path class="st1" d="M1511.9,299.2c10.1-5.5,23.4-3.7,33.4,1.1c0.4,0.2,0.1,0.8-0.2,0.6c-7.7-3.5-16.5-4.4-24.8-3
					C1519.1,297.8,1511,301.1,1511.9,299.2z"/>
				<path class="st1" d="M1522.6,301.3c2.8-2.6,18,1.6,15,2.7c-4.6-2.8-9.8-2.5-14.9-1.9C1522.2,302.1,1522.2,301.5,1522.6,301.3z"
					/>
				<path class="st1" d="M1530.8,306.5c-1,0-1.8,0.1-2.8-0.1c-1.4-1.9,8.8-0.8,5.9,0.4C1532.9,306.6,1531.9,306.5,1530.8,306.5z"/>
				<path class="st1" d="M1506.3,316.3c13.3,8.9,29.7,9,44.8,5.8c0.6-0.1,0.7,0.8,0.1,0.9c-8.3,1.6-16.8,2.9-25.2,2.2
					c-7.2-0.7-15.2-2.8-20.5-8.1C1505.2,316.5,1505.8,316,1506.3,316.3z"/>
				<path class="st1" d="M1542.3,320.7c-9,1.7-19.9,1.8-27.7-3.5c-0.3-0.2-0.1-0.8,0.3-0.7c8.7,3.3,18,5.4,27.3,3.2
					C1542.7,319.6,1542.9,320.6,1542.3,320.7z"/>
				<path class="st1" d="M1534.6,317.3c-4.4,0.8-9.7,0.8-13.6-1.5c-0.4-0.2-0.1-0.8,0.3-0.8c4.5,0.9,8.5,2,13.2,1.4
					C1535,316.4,1535.2,317.2,1534.6,317.3z"/>
				<path class="st1" d="M1503.6,296.4c0.5,0,0.5,0.9,0,0.9c-7.5,0.4-10,8-6,13.8c0.1,0.3-0.2,0.8-0.6,0.6
					C1490.4,307,1495.9,295.9,1503.6,296.4z"/>
				<path class="st1" d="M1490.2,302c0.5-1.9,1.6-3.4,3.3-4.4c0.6-0.4,1.3,0.7,0.7,1.1c-1.4,0.9-2.3,2.2-2.5,3.8
					c-0.2,1.4,0.5,2.6,0.3,3.9c0,0.4-0.5,0.6-0.8,0.4C1489.7,306,1489.8,303.5,1490.2,302z"/>
				<path class="st1" d="M1562.5,313.8c0.3-2.1,0-4.1-0.9-6c-0.3-0.6,0.7-1.1,1-0.4c1.9,3.7,1.8,10-2.1,12.5
					C1558.6,320.5,1562.9,315.1,1562.5,313.8z"/>
				<path class="st1" d="M1558.1,314.8c0.6-1.3,0.7-2.7,0.3-4.1c-0.4-1.2,1.4-2,1.8-0.8c0.6,1.8,0.6,3.7-0.1,5.5
					c-0.1,1.2-3.8,4.9-4,2.4C1556.6,316.6,1557.6,315.8,1558.1,314.8z"/>
			</g>
		</g>
		<g>
			
				<ellipse transform="matrix(0.1071 -0.9942 0.9942 0.1071 960.3262 1726.0426)" class="st14" cx="1441.1" cy="328.4" rx="15.9" ry="31.9"/>
			
				<ellipse transform="matrix(0.1071 -0.9942 0.9942 0.1071 959.4519 1726.428)" class="st15" cx="1440.9" cy="329" rx="10.4" ry="23.5"/>
			<path class="st1" d="M1429,328c-0.3,2.8,4.7,5.6,11.2,6.3c6.5,0.7,11.9-1,12.2-3.8c0.3-2.8-4.7-5.6-11.2-6.3
				C1434.8,323.5,1429.3,325.2,1429,328z"/>
			<g>
				<path class="st1" d="M1463.4,325.5c-8.8-8.4-24.5-9.7-36-7.8c-0.9,0-7.2,2.3-5.7,0.3C1433.5,313.7,1455.9,315,1463.4,325.5z"/>
				<path class="st1" d="M1429.3,321.9c7.4-4,17.1-2.7,24.4,0.8c0.3,0.1,0.1,0.6-0.2,0.4c-5.7-2.5-12-3.3-18.1-2.2
					C1434.6,320.9,1428.6,323.3,1429.3,321.9z"/>
				<path class="st1" d="M1437.1,323.5c2-1.9,13.2,1.2,11,1.9c-3.3-2.1-7.2-1.8-10.9-1.4C1436.9,324,1436.8,323.6,1437.1,323.5z"/>
				<path class="st1" d="M1443.1,327.3c-0.7,0-1.3,0.1-2-0.1c-1-1.4,6.4-0.6,4.3,0.3C1444.7,327.4,1443.9,327.3,1443.1,327.3z"/>
				<path class="st1" d="M1425.2,334.4c9.7,6.5,21.7,6.6,32.8,4.2c0.4-0.1,0.5,0.6,0.1,0.6c-6.1,1.2-12.3,2.2-18.5,1.6
					c-5.3-0.5-11.1-2-15-5.9C1424.4,334.6,1424.8,334.2,1425.2,334.4z"/>
				<path class="st1" d="M1451.5,337.7c-6.6,1.3-14.6,1.3-20.3-2.6c-0.2-0.2-0.1-0.6,0.2-0.5c6.3,2.4,13.2,4,19.9,2.4
					C1451.8,336.9,1451.9,337.6,1451.5,337.7z"/>
				<path class="st1" d="M1445.9,335.2c-3.2,0.6-7.1,0.6-10-1.1c-0.3-0.2-0.1-0.6,0.2-0.6c3.3,0.7,6.2,1.5,9.6,1
					C1446.2,334.5,1446.3,335.1,1445.9,335.2z"/>
				<path class="st1" d="M1423.2,319.9c0.4,0,0.4,0.7,0,0.7c-5.5,0.3-7.3,5.9-4.4,10.1c0.1,0.2-0.1,0.6-0.4,0.5
					C1413.5,327.7,1417.6,319.5,1423.2,319.9z"/>
				<path class="st1" d="M1413.4,324c0.3-1.4,1.2-2.5,2.4-3.2c0.5-0.3,0.9,0.5,0.5,0.8c-1,0.6-1.7,1.6-1.8,2.8
					c-0.2,1,0.3,1.9,0.2,2.8c0,0.3-0.4,0.4-0.6,0.3C1413,326.9,1413.1,325.1,1413.4,324z"/>
				<path class="st1" d="M1466.3,332.6c0.3-1.5,0-3-0.7-4.4c-0.2-0.5,0.5-0.8,0.7-0.3c1.4,2.7,1.3,7.3-1.5,9.1
					C1463.5,337.5,1466.6,333.6,1466.3,332.6z"/>
				<path class="st1" d="M1463.1,333.3c0.4-0.9,0.5-2,0.2-3c-0.3-0.9,1-1.5,1.3-0.6c0.4,1.3,0.4,2.7-0.1,4c-0.1,0.9-2.8,3.6-2.9,1.7
					C1461.9,334.7,1462.7,334.1,1463.1,333.3z"/>
			</g>
		</g>
		<g>
			
				<ellipse transform="matrix(0.1071 -0.9942 0.9942 0.1071 1090.9015 1907.1852)" class="st14" cx="1607.3" cy="346.2" rx="15.9" ry="31.9"/>
			<path class="st15" d="M1583.9,344.2c-0.6,5.7,9.3,11.5,22.2,12.9c12.9,1.4,23.9-2.1,24.5-7.8c0.6-5.7-9.3-11.5-22.2-12.9
				C1595.5,335,1584.5,338.5,1583.9,344.2z"/>
			
				<ellipse transform="matrix(0.1071 -0.9942 0.9942 0.1071 1089.5225 1907.7252)" class="st1" cx="1606.9" cy="347.3" rx="5.1" ry="11.8"/>
			<g>
				<path class="st1" d="M1629.6,343.3c-8.8-8.4-24.5-9.7-36-7.8c-0.9,0-7.2,2.3-5.7,0.3C1599.7,331.6,1622.1,332.8,1629.6,343.3z"
					/>
				<path class="st1" d="M1595.5,339.7c7.4-4,17.1-2.7,24.4,0.8c0.3,0.1,0.1,0.6-0.2,0.4c-5.7-2.5-12-3.3-18.1-2.2
					C1600.8,338.7,1594.9,341.1,1595.5,339.7z"/>
				<path class="st1" d="M1603.3,341.3c2-1.9,13.2,1.2,11,1.9c-3.3-2.1-7.2-1.8-10.9-1.4C1603.1,341.9,1603.1,341.4,1603.3,341.3z"
					/>
				<path class="st1" d="M1609.4,345.1c-0.7,0-1.3,0.1-2-0.1c-1-1.4,6.4-0.6,4.3,0.3C1610.9,345.2,1610.1,345.1,1609.4,345.1z"/>
				<path class="st1" d="M1591.4,352.2c9.7,6.5,21.7,6.6,32.8,4.2c0.4-0.1,0.5,0.6,0.1,0.6c-6.1,1.2-12.3,2.2-18.5,1.6
					c-5.3-0.5-11.1-2-15-5.9C1590.6,352.4,1591.1,352,1591.4,352.2z"/>
				<path class="st1" d="M1617.7,355.5c-6.6,1.3-14.6,1.3-20.3-2.6c-0.2-0.2-0.1-0.6,0.2-0.5c6.3,2.4,13.2,4,19.9,2.4
					C1618.1,354.7,1618.2,355.4,1617.7,355.5z"/>
				<path class="st1" d="M1612.1,353c-3.2,0.6-7.1,0.6-10-1.1c-0.3-0.2-0.1-0.6,0.2-0.6c3.3,0.7,6.2,1.5,9.6,1
					C1612.4,352.3,1612.5,352.9,1612.1,353z"/>
				<path class="st1" d="M1589.4,337.7c0.4,0,0.4,0.7,0,0.7c-5.5,0.3-7.3,5.9-4.4,10.1c0.1,0.2-0.1,0.6-0.4,0.5
					C1579.8,345.5,1583.8,337.3,1589.4,337.7z"/>
				<path class="st1" d="M1579.7,341.8c0.3-1.4,1.2-2.5,2.4-3.2c0.5-0.3,0.9,0.5,0.5,0.8c-1,0.6-1.7,1.6-1.8,2.8
					c-0.2,1,0.3,1.9,0.2,2.8c0,0.3-0.4,0.4-0.6,0.3C1579.3,344.7,1579.4,342.9,1579.7,341.8z"/>
				<path class="st1" d="M1632.5,350.5c0.3-1.5,0-3-0.7-4.4c-0.2-0.5,0.5-0.8,0.7-0.3c1.4,2.7,1.3,7.3-1.5,9.1
					C1629.7,355.3,1632.8,351.4,1632.5,350.5z"/>
				<path class="st1" d="M1629.3,351.1c0.4-0.9,0.5-2,0.2-3c-0.3-0.9,1-1.5,1.3-0.6c0.4,1.3,0.4,2.7-0.1,4c-0.1,0.9-2.8,3.6-2.9,1.7
					C1628.2,352.5,1628.9,351.9,1629.3,351.1z"/>
			</g>
		</g>
		<g>
			
				<ellipse transform="matrix(0.1071 -0.9942 0.9942 0.1071 1013.1292 1823.892)" class="st14" cx="1522" cy="347.9" rx="14.5" ry="29.2"/>
			
				<ellipse transform="matrix(0.1071 -0.9942 0.9942 0.1071 1012.4036 1824.3549)" class="st15" cx="1521.9" cy="348.5" rx="9.5" ry="21.5"/>
			<path class="st1" d="M1510.9,347.5c-0.3,2.6,4.3,5.1,10.2,5.8c5.9,0.6,10.9-0.9,11.2-3.5c0.3-2.6-4.3-5.1-10.2-5.8
				C1516.2,343.4,1511.2,345,1510.9,347.5z"/>
			<g>
				<path class="st1" d="M1542.4,345.2c-8-7.7-22.4-8.9-33-7.2c-0.8,0-6.6,2.1-5.3,0.2C1515,334.5,1535.6,335.6,1542.4,345.2z"/>
				<path class="st1" d="M1511.2,342c6.7-3.7,15.7-2.5,22.4,0.8c0.2,0.1,0.1,0.5-0.2,0.4c-5.2-2.3-11-3-16.6-2
					C1516,341,1510.6,343.2,1511.2,342z"/>
				<path class="st1" d="M1518.3,343.4c1.9-1.7,12.1,1.1,10.1,1.8c-3.1-1.9-6.6-1.6-10-1.3C1518.1,343.9,1518.1,343.5,1518.3,343.4z
					"/>
				<path class="st1" d="M1523.9,346.8c-0.7,0-1.2,0.1-1.9-0.1c-0.9-1.2,5.9-0.6,4,0.3C1525.3,346.9,1524.6,346.9,1523.9,346.8z"/>
				<path class="st1" d="M1507.4,353.4c8.9,6,19.9,6,30,3.9c0.4-0.1,0.5,0.5,0.1,0.6c-5.5,1.1-11.2,2-16.9,1.5
					c-4.9-0.4-10.2-1.9-13.7-5.4C1506.7,353.6,1507.1,353.2,1507.4,353.4z"/>
				<path class="st1" d="M1531.5,356.4c-6,1.2-13.3,1.2-18.6-2.4c-0.2-0.2-0.1-0.5,0.2-0.5c5.8,2.2,12.1,3.6,18.3,2.2
					C1531.9,355.6,1532,356.3,1531.5,356.4z"/>
				<path class="st1" d="M1526.4,354.1c-2.9,0.5-6.5,0.5-9.1-1c-0.2-0.1-0.1-0.6,0.2-0.5c3,0.6,5.7,1.4,8.8,0.9
					C1526.7,353.5,1526.8,354,1526.4,354.1z"/>
				<path class="st1" d="M1505.6,340.1c0.3,0,0.4,0.6,0,0.6c-5,0.3-6.7,5.4-4.1,9.3c0.1,0.2-0.1,0.6-0.4,0.4
					C1496.8,347.2,1500.5,339.7,1505.6,340.1z"/>
				<path class="st1" d="M1496.7,343.9c0.3-1.3,1.1-2.3,2.2-2.9c0.4-0.2,0.9,0.5,0.4,0.7c-0.9,0.6-1.5,1.5-1.7,2.6
					c-0.1,0.9,0.3,1.7,0.2,2.6c0,0.3-0.3,0.4-0.6,0.2C1496.3,346.5,1496.4,344.8,1496.7,343.9z"/>
				<path class="st1" d="M1545.1,351.8c0.2-1.4,0-2.8-0.6-4c-0.2-0.4,0.5-0.7,0.7-0.3c1.2,2.5,1.2,6.7-1.4,8.4
					C1542.5,356.2,1545.4,352.6,1545.1,351.8z"/>
				<path class="st1" d="M1542.2,352.4c0.4-0.9,0.5-1.8,0.2-2.7c-0.3-0.8,0.9-1.4,1.2-0.5c0.4,1.2,0.4,2.5-0.1,3.7
					c-0.1,0.8-2.5,3.3-2.7,1.6C1541.1,353.6,1541.8,353.1,1542.2,352.4z"/>
			</g>
		</g>
		<g>
			<path class="st16" d="M1604.2,348.4l7.4,0.8l0,0c0.2-1.6-1-2.9-2.5-3.1l-2.2-0.2c-1.3-0.1-2.5,0.8-2.6,2.1L1604.2,348.4z"/>
			
				<rect x="1607.5" y="347.6" transform="matrix(0.103 -0.9947 0.9947 0.103 1095.0867 1912.6448)" class="st17" width="1" height="3.1"/>
			<path class="st5" d="M1602.7,357.2l8.6,0.9c2.2,0.2,4.2-1.4,4.4-3.6l0,0c0.2-2.2-1.4-4.2-3.6-4.4l-8.6-0.9
				c-2.2-0.2-4.2,1.4-4.4,3.6l0,0C1598.9,355,1600.5,357,1602.7,357.2z"/>
		</g>
	</g>
	<g>
		<polygon class="st17" points="1529.4,364.3 1530,358.5 1538.7,359.4 1550.9,413.6 1550,422.1 1539.5,421 1540.1,415.2 
			1544.8,415.7 1545,413.9 1534,364.8 		"/>
		<polygon class="st17" points="1550.2,370.5 1550.8,364.7 1559.5,365.6 1571.6,419.7 1570.8,428.2 1560.3,427.1 1560.9,421.4 
			1565.6,421.8 1565.8,420.1 1554.7,371 		"/>
	</g>
	<g>
		<path class="st17" d="M1502.9,354.7c-0.2,2.1,40.3,6.4,40.5,4.2c0-0.1,0-0.2,0-0.4c0.3-3.4-0.3-6.6-1.5-9.6
			c-2.8-6.7-9-11.6-16.7-12.4c-7.6-0.8-14.7,2.7-18.8,8.6c-1.9,2.7-3.1,5.8-3.5,9.3C1503,354.5,1502.9,354.6,1502.9,354.7z"/>
		<polygon class="st18" points="1528.9,318.8 1528.6,350.1 1517.9,349 1525.2,318.4 		"/>
		<path class="st19" d="M1441.7,335.6L1441.7,335.6c0.3-1,1.3-1.6,2.3-1.4l80,13.2v0.1l81.2,3.3c1,0,1.9,0.8,2,1.9l0,0
			c0.1,1.2-0.8,2.2-2,2.2l-81.5,1.8c-0.2,0-0.3,0-0.5-0.1l-80-18.5C1442,338,1441.3,336.8,1441.7,335.6z"/>
		<g>
			<path class="st5" d="M1445.5,340.3l-9.3-1c-2-0.2-3.5-2-3.3-4v-0.1c0.2-2,2-3.5,4-3.3l9.3,1c2,0.2,3.5,2,3.3,4v0.1
				C1449.3,339.1,1447.5,340.6,1445.5,340.3z"/>
			<path class="st16" d="M1445.1,331.9l-6.7-0.7l0,0c0.2-1.6,1.6-2.7,3.1-2.5l1.5,0.2c1.3,0.1,2.3,1.3,2.1,2.6V331.9z"/>
			
				<rect x="1441.2" y="330.5" transform="matrix(0.103 -0.9947 0.9947 0.103 962.9919 1731.741)" class="st17" width="1" height="2.9"/>
		</g>
		<path class="st13" d="M1470.3,345.9l-0.7,15.2l47.3,9.8c1.6,0.4,4.3,0.6,6,0.6l46.6-0.2l4.9-8.8c0.3-2.6-1.8-4.8-4.4-4.7
			l-26.6,0.6l-20.6,0.5v-0.1l-19.9-4.4L1470.3,345.9z"/>
		<path class="st17" d="M1527,345.5l44.6,10.2c2,0.5,3.3,2.3,3.1,4.4l-0.8,8.2c-0.2,2.1-2.3,3.6-4.4,3.1l-45.2-10.4
			c-1-0.2-2-0.3-3.1-0.3l-50.3,0.6c-2.1,0-3.7-1.8-3.5-3.8l0.9-8.6c0.2-1.9,1.7-3.3,3.6-3.3l49.7-0.6
			C1523.4,344.9,1525.2,345.1,1527,345.5z"/>
		<path class="st16" d="M1534.3,357.7l29.5,6.9c1.2,0.3,2.2-0.5,2.4-1.7l0.2-2.2c0.1-1.2-0.7-2.4-1.9-2.7l-29.5-6.9
			c-1.2-0.3-2.2,0.5-2.4,1.7l-0.2,2.2C1532.3,356.3,1533.1,357.5,1534.3,357.7z"/>
		<g>
			<path class="st5" d="M1531.8,321l-10.3-1.1c-1.7-0.2-3-1.7-2.8-3.5l0.1-1.4c0.2-1.7,1.7-3,3.5-2.8l10.3,1.1
				c1.7,0.2,3,1.7,2.8,3.5l-0.1,1.4C1535.1,320,1533.5,321.2,1531.8,321z"/>
			<path class="st16" d="M1531,312.3l-7-0.7l0,0c0.2-1.6,1.6-2.7,3.1-2.5l1.8,0.2c1.3,0.1,2.3,1.3,2.1,2.6V312.3z"/>
			
				<rect x="1526.9" y="310.9" transform="matrix(0.103 -0.9947 0.9947 0.103 1059.3347 1799.5127)" class="st17" width="1" height="3"/>
		</g>
		<g>
			<path class="st17" d="M1508.9,366.2c-0.8,6.8,4.1,13,10.9,13.8s13-4.1,13.8-10.9C1534.3,362.3,1509.7,359.4,1508.9,366.2z"/>
			<path class="st1" d="M1520.6,371.3c-0.2,1.8,1.1,3.4,2.9,3.6s3.4-1.1,3.6-2.9s-1.1-3.4-2.9-3.6
				C1522.5,368.2,1520.8,369.5,1520.6,371.3z"/>
		</g>
		<g>
			<path class="st17" d="M1459.6,399.2c0.1-0.9,0.2-1.9,0.7-2.7l20.3-42.3c1.2-2.5,3.8-3.9,6.5-3.6c2.1,0,5.1,0.7,4.7,3.4
				c-0.3,2.7-3.2,2.8-5.3,2.3c-0.3,0-0.6,0.1-0.7,0.4l-14.9,31.1l22.1,3.5l17-37.3c1.2-2.5,3.8-4.1,6.6-3.8c6-0.4,6.1,5.9,1.5,6
				c-0.6,0.2-2.5-0.7-2.8,0.2l-20.6,45.3c-0.1,0.6-0.5,1.8,0.5,1.9c5.7-0.4,6.2,5.5,1.8,6c-8,0.1-10.1-6.5-6.4-12.8l-22.2-3.5
				c-0.2,0.5-3.1,6.1-2.8,6.5c0.1,2,5.3-0.6,5.3,4.2c-0.2,2.7-3.2,2.8-5.2,2.3C1461.8,405.9,1459.2,402.7,1459.6,399.2z"/>
			<path class="st13" d="M1457.9,398.6c0.1-0.9,0.2-1.9,0.7-2.7l20.3-42.3c1.2-2.5,3.8-3.9,6.5-3.6c2.1,0,5.1,0.7,4.7,3.4
				c-0.2,2.7-3.2,2.8-5.3,2.3c-0.3,0-0.6,0.1-0.7,0.4l-14.9,31.1l22.1,3.5l17-37.3c1.2-2.5,3.8-4.1,6.6-3.8c6-0.4,6.1,5.9,1.5,6
				c-0.6,0.2-2.5-0.7-2.8,0.2l-20.6,45.3c-0.1,0.6-0.5,1.8,0.5,1.9c5.7-0.4,6.2,5.5,1.8,6c-8,0.1-10.1-6.5-6.4-12.8l-22.2-3.5
				c-0.2,0.5-3.1,6.1-2.8,6.5c0.1,2,5.3-0.6,5.3,4.2c-0.2,2.7-3.2,2.8-5.2,2.3C1460.1,405.4,1457.6,402.2,1457.9,398.6z"/>
			<g>
				<path class="st1" d="M1466.9,389.8c7.3,0.7,14.6,1.8,21.8,3.4c0.3,0.1,0.2,0.5-0.1,0.5c-7.2-1.2-14.4-2.2-21.6-2.9
					C1466.2,390.7,1466.2,389.7,1466.9,389.8z"/>
				<path class="st1" d="M1459.7,398.3c0.2-2.5,1.2-4.8,2.9-6.6c0.4-0.4,1,0.2,0.6,0.6c-5.3,6.2,0.5,10.4-1.4,10.9
					C1459.7,403.2,1459.6,399.9,1459.7,398.3z"/>
				<path class="st1" d="M1483.7,353c-1.4,0.2-2.1,1.5-2.4,2.8c-0.2,0.6-1.1,0.6-1.2,0C1479,352.7,1485.3,351,1483.7,353z"/>
				<path class="st1" d="M1510.4,352.9c0.5-0.7,3.5-1.5,2.2,0c-1.3,0.2-1.6,1.6-2.6,2.1C1508.8,354.8,1509.8,353.3,1510.4,352.9z"/>
				<path class="st1" d="M1490.2,400.5c1.8-0.4-0.7,3.8,2.8,5.1c0.4,0.2,0.1,0.9-0.3,0.8C1490.4,405.7,1488.4,402.3,1490.2,400.5z"
					/>
			</g>
		</g>
	</g>
</g>
<g id="satellite">
	<g>
		<g>
			
				<linearGradient id="SVGID_1_" gradientUnits="userSpaceOnUse" x1="2828.4087" y1="11229.9863" x2="2944.5271" y2="11229.9863" gradientTransform="matrix(0.5835 0.8121 -0.8121 0.5835 9030.2354 -8048.4399)">
				<stop  offset="0" style="stop-color:#CCCCCC"/>
				<stop  offset="1" style="stop-color:#E6E6E6"/>
			</linearGradient>
			<polygon class="st20" points="1547.4,827.6 1566.7,813.7 1558.8,802.7 1562.7,799.8 1570.7,810.8 1590,797 1649.8,880.2 
				1607.2,910.8 			"/>
			<g>
				<path class="st21" d="M1563.3,841.7l-6.2-8.6c-1.4-1.9-0.9-4.6,1-6l8.6-6.2c1.9-1.4,4.6-0.9,6,1l6.2,8.6c1.4,1.9,0.9,4.6-1,6
					l-8.6,6.2C1567.4,844,1564.7,843.6,1563.3,841.7z"/>
				<path class="st21" d="M1577.2,861.1l-6.2-8.6c-1.4-1.9-0.9-4.6,1-6l8.6-6.2c1.9-1.4,4.6-0.9,6,1l6.2,8.6c1.4,1.9,0.9,4.6-1,6
					l-8.6,6.2C1581.3,863.4,1578.6,863,1577.2,861.1z"/>
				<path class="st21" d="M1591.2,880.5l-6.2-8.6c-1.4-1.9-0.9-4.6,1-6l8.6-6.2c1.9-1.4,4.6-0.9,6,1l6.2,8.6c1.4,1.9,0.9,4.6-1,6
					l-8.6,6.2C1595.2,882.8,1592.6,882.4,1591.2,880.5z"/>
				<path class="st21" d="M1605.1,899.9l-6.2-8.6c-1.4-1.9-0.9-4.6,1-6l8.6-6.2c1.9-1.4,4.6-0.9,6,1l6.2,8.6c1.4,1.9,0.9,4.6-1,6
					l-8.6,6.2C1609.2,902.2,1606.5,901.8,1605.1,899.9z"/>
				<path class="st21" d="M1582.7,827.7l-6.2-8.6c-1.4-1.9-0.9-4.6,1-6l8.6-6.2c1.9-1.4,4.6-0.9,6,1l6.2,8.6c1.4,1.9,0.9,4.6-1,6
					l-8.6,6.2C1586.7,830.1,1584.1,829.6,1582.7,827.7z"/>
				<path class="st21" d="M1596.6,847.1l-6.2-8.6c-1.4-1.9-0.9-4.6,1-6l8.6-6.2c1.9-1.4,4.6-0.9,6,1l6.2,8.6c1.4,1.9,0.9,4.6-1,6
					l-8.6,6.2C1600.7,849.5,1598,849,1596.6,847.1z"/>
				<path class="st21" d="M1610.6,866.5l-6.2-8.6c-1.4-1.9-0.9-4.6,1-6l8.6-6.2c1.9-1.4,4.6-0.9,6,1l6.2,8.6c1.4,1.9,0.9,4.6-1,6
					l-8.6,6.2C1614.6,868.9,1612,868.4,1610.6,866.5z"/>
				<path class="st21" d="M1624.5,885.9l-6.2-8.6c-1.4-1.9-0.9-4.6,1-6l8.6-6.2c1.9-1.4,4.6-0.9,6,1l6.2,8.6c1.4,1.9,0.9,4.6-1,6
					l-8.6,6.2C1628.6,888.3,1625.9,887.8,1624.5,885.9z"/>
			</g>
		</g>
		<g>
			
				<linearGradient id="SVGID_2_" gradientUnits="userSpaceOnUse" x1="2676.5591" y1="11229.9893" x2="2792.6772" y2="11229.9893" gradientTransform="matrix(0.5835 0.8121 -0.8121 0.5835 9030.2354 -8048.4399)">
				<stop  offset="0" style="stop-color:#E6E6E6"/>
				<stop  offset="1" style="stop-color:#CCCCCC"/>
			</linearGradient>
			<polygon class="st22" points="1510.7,776.5 1530,762.6 1538,773.7 1541.9,770.8 1534,759.8 1553.3,745.9 1493.5,662.7 
				1450.9,693.3 			"/>
			<g>
				<path class="st21" d="M1502.4,757l6.2,8.6c1.4,1.9,4,2.4,6,1l8.6-6.2c1.9-1.4,2.4-4,1-6l-6.2-8.6c-1.4-1.9-4-2.4-6-1l-8.6,6.2
					C1501.5,752.4,1501.1,755,1502.4,757z"/>
				<path class="st21" d="M1488.5,737.6l6.2,8.6c1.4,1.9,4,2.4,6,1l8.6-6.2c1.9-1.4,2.4-4,1-6l-6.2-8.6c-1.4-1.9-4-2.4-6-1l-8.6,6.2
					C1487.6,733,1487.1,735.6,1488.5,737.6z"/>
				<path class="st21" d="M1474.6,718.2l6.2,8.6c1.4,1.9,4,2.4,6,1l8.6-6.2c1.9-1.4,2.4-4,1-6l-6.2-8.6c-1.4-1.9-4-2.4-6-1l-8.6,6.2
					C1473.6,713.6,1473.2,716.2,1474.6,718.2z"/>
				<path class="st21" d="M1460.6,698.8l6.2,8.6c1.4,1.9,4,2.4,6,1l8.6-6.2c1.9-1.4,2.4-4,1-6l-6.2-8.6c-1.4-1.9-4-2.4-6-1l-8.6,6.2
					C1459.7,694.2,1459.2,696.8,1460.6,698.8z"/>
				<path class="st21" d="M1521.8,743l6.2,8.6c1.4,1.9,4,2.4,6,1l8.6-6.2c1.9-1.4,2.4-4,1-6l-6.2-8.6c-1.4-1.9-4-2.4-6-1l-8.6,6.2
					C1520.9,738.4,1520.5,741.1,1521.8,743z"/>
				<path class="st21" d="M1507.9,723.6l6.2,8.6c1.4,1.9,4,2.4,6,1l8.6-6.2c1.9-1.4,2.4-4,1-6l-6.2-8.6c-1.4-1.9-4-2.4-6-1l-8.6,6.2
					C1507,719,1506.5,721.7,1507.9,723.6z"/>
				<path class="st21" d="M1494,704.2l6.2,8.6c1.4,1.9,4,2.4,6,1l8.6-6.2c1.9-1.4,2.4-4,1-6l-6.2-8.6c-1.4-1.9-4-2.4-6-1l-8.6,6.2
					C1493,699.6,1492.6,702.3,1494,704.2z"/>
				<path class="st21" d="M1480,684.8l6.2,8.6c1.4,1.9,4,2.4,6,1l8.6-6.2c1.9-1.4,2.4-4,1-6l-6.2-8.6c-1.4-1.9-4-2.4-6-1l-8.6,6.2
					C1479.1,680.2,1478.6,682.9,1480,684.8z"/>
			</g>
		</g>
	</g>
	<g>
		
			<linearGradient id="SVGID_3_" gradientUnits="userSpaceOnUse" x1="2808.2908" y1="11197.5605" x2="2812.634" y2="11197.5605" gradientTransform="matrix(0.5835 0.8121 -0.8121 0.5835 9030.2354 -8048.4399)">
			<stop  offset="0" style="stop-color:#E6E6E6"/>
			<stop  offset="1" style="stop-color:#CCCCCC"/>
		</linearGradient>
		<polygon class="st23" points="1582.4,761.1 1584.9,764.6 1571,774.6 1568.5,771.1 		"/>
		<g>
			
				<linearGradient id="SVGID_4_" gradientUnits="userSpaceOnUse" x1="2803.7893" y1="11165.042" x2="2817.1353" y2="11165.042" gradientTransform="matrix(0.5835 0.8121 -0.8121 0.5835 9030.2354 -8048.4399)">
				<stop  offset="0" style="stop-color:#E6E6E6"/>
				<stop  offset="1" style="stop-color:#CCCCCC"/>
			</linearGradient>
			<polygon class="st24" points="1619.4,737.1 1590.7,766 1582.9,755.2 			"/>
			
				<linearGradient id="SVGID_5_" gradientUnits="userSpaceOnUse" x1="2810.4617" y1="11165.0332" x2="2817.1353" y2="11165.0332" gradientTransform="matrix(0.5835 0.8121 -0.8121 0.5835 9030.2354 -8048.4399)">
				<stop  offset="0" style="stop-color:#E6E6E6"/>
				<stop  offset="1" style="stop-color:#CCCCCC"/>
			</linearGradient>
			<polygon class="st25" points="1619.4,737.1 1586.8,760.6 1590.7,766 			"/>
		</g>
		<g>
			
				<linearGradient id="SVGID_6_" gradientUnits="userSpaceOnUse" x1="2774.9509" y1="11182.2939" x2="2846.0259" y2="11182.2939" gradientTransform="matrix(0.5835 0.8121 -0.8121 0.5835 9030.2354 -8048.4399)">
				<stop  offset="0" style="stop-color:#E6E6E6"/>
				<stop  offset="1" style="stop-color:#CCCCCC"/>
			</linearGradient>
			<path class="st26" d="M1577.5,723.5c-7.2,12.9-6.8,29.3,2.4,42c9.2,12.8,24.6,18.4,39.1,15.7L1577.5,723.5z"/>
		</g>
		<g>
			
				<linearGradient id="SVGID_7_" gradientUnits="userSpaceOnUse" x1="2797.5525" y1="11253.0566" x2="2823.3596" y2="11253.0566" gradientTransform="matrix(0.5835 0.8121 -0.8121 0.5835 9030.2354 -8048.4399)">
				<stop  offset="0" style="stop-color:#E6E6E6"/>
				<stop  offset="1" style="stop-color:#CCCCCC"/>
			</linearGradient>
			<polygon class="st27" points="1530.7,785 1545.7,806 1532.6,815.4 1517.5,794.5 			"/>
			
				<linearGradient id="SVGID_8_" gradientUnits="userSpaceOnUse" x1="2810.4631" y1="11253.0635" x2="2823.374" y2="11253.0635" gradientTransform="matrix(0.5835 0.8121 -0.8121 0.5835 9030.2354 -8048.4399)">
				<stop  offset="0" style="stop-color:#CCCCCC"/>
				<stop  offset="1" style="stop-color:#E6E6E6"/>
			</linearGradient>
			<polygon class="st28" points="1538.2,795.5 1525,804.9 1532.6,815.4 1545.7,806 			"/>
		</g>
		<g>
			
				<linearGradient id="SVGID_9_" gradientUnits="userSpaceOnUse" x1="2788.8479" y1="11226.6162" x2="2832.0891" y2="11226.6162" gradientTransform="matrix(0.5835 0.8121 -0.8121 0.5835 9030.2354 -8048.4399)">
				<stop  offset="0" style="stop-color:#E6E6E6"/>
				<stop  offset="1" style="stop-color:#CCCCCC"/>
			</linearGradient>
			<polygon class="st29" points="1563.7,750.6 1588.9,785.7 1542.5,819 1517.3,783.9 			"/>
			
				<linearGradient id="SVGID_10_" gradientUnits="userSpaceOnUse" x1="2810.4624" y1="11226.6064" x2="2832.0779" y2="11226.6064" gradientTransform="matrix(0.5835 0.8121 -0.8121 0.5835 9030.2354 -8048.4399)">
				<stop  offset="0" style="stop-color:#CCCCCC"/>
				<stop  offset="1" style="stop-color:#E6E6E6"/>
			</linearGradient>
			<polygon class="st30" points="1576.3,768.1 1529.9,801.4 1542.5,819 1588.9,785.7 			"/>
		</g>
		
			<linearGradient id="SVGID_11_" gradientUnits="userSpaceOnUse" x1="2810.4619" y1="11182.4072" x2="2845.9729" y2="11182.4072" gradientTransform="matrix(0.5835 0.8121 -0.8121 0.5835 9030.2354 -8048.4399)">
			<stop  offset="0" style="stop-color:#CCCCCC"/>
			<stop  offset="1" style="stop-color:#E6E6E6"/>
		</linearGradient>
		<path class="st31" d="M1598.2,752.4l-18.4,13.2c9.2,12.8,24.6,18.4,39.1,15.7L1598.2,752.4z"/>
	</g>
	
		<linearGradient id="SVGID_12_" gradientUnits="userSpaceOnUse" x1="2805.9495" y1="11146.4619" x2="2814.7693" y2="11146.4619" gradientTransform="matrix(0.5835 0.8121 -0.8121 0.5835 9030.2354 -8048.4399)">
		<stop  offset="0" style="stop-color:#CCCCCC"/>
		<stop  offset="1" style="stop-color:#E6E6E6"/>
	</linearGradient>
	<path class="st32" d="M1620.7,741.5c-2,1.4-4.7,1-6.2-1c-1.4-2-1-4.7,1-6.2c2-1.4,4.7-1,6.2,1
		C1623.1,737.3,1622.7,740.1,1620.7,741.5z"/>
	<g>
		
			<linearGradient id="SVGID_13_" gradientUnits="userSpaceOnUse" x1="2794.3469" y1="11129.6318" x2="2826.5618" y2="11129.6318" gradientTransform="matrix(0.5835 0.8121 -0.8121 0.5835 9030.2354 -8048.4399)">
			<stop  offset="0" style="stop-color:#E6E6E6"/>
			<stop  offset="1" style="stop-color:#CCCCCC"/>
		</linearGradient>
		<path class="st33" d="M1620.1,719c5.1,0.8,9.9,3.6,13.1,8.1c3.3,4.5,4.4,10,3.5,15.1l2.5,0.4c0.9-5.8-0.3-11.9-4-17
			s-9.1-8.2-14.8-9.2L1620.1,719z"/>
		
			<linearGradient id="SVGID_14_" gradientUnits="userSpaceOnUse" x1="2797.9958" y1="11134.0371" x2="2822.9199" y2="11134.0371" gradientTransform="matrix(0.5835 0.8121 -0.8121 0.5835 9030.2354 -8048.4399)">
			<stop  offset="0" style="stop-color:#E6E6E6"/>
			<stop  offset="1" style="stop-color:#CCCCCC"/>
		</linearGradient>
		<path class="st34" d="M1634.2,741.8c0.7-4.5-0.2-9.2-3.1-13.1c-2.8-3.9-7-6.4-11.5-7.1l-0.4,2.5c3.8,0.6,7.4,2.7,9.8,6.1
			c2.4,3.4,3.2,7.4,2.6,11.2L1634.2,741.8z"/>
		
			<linearGradient id="SVGID_15_" gradientUnits="userSpaceOnUse" x1="2801.6377" y1="11138.4902" x2="2819.2852" y2="11138.4902" gradientTransform="matrix(0.5835 0.8121 -0.8121 0.5835 9030.2354 -8048.4399)">
			<stop  offset="0" style="stop-color:#E6E6E6"/>
			<stop  offset="1" style="stop-color:#CCCCCC"/>
		</linearGradient>
		<path class="st35" d="M1618.8,726.7l-0.4,2.5c2.5,0.4,4.8,1.8,6.4,4s2.1,4.9,1.7,7.4l2.5,0.4c0.5-3.2-0.2-6.5-2.2-9.3
			C1625,728.9,1622,727.2,1618.8,726.7z"/>
	</g>
</g>
<g>
	<g>
		<path class="st36" d="M2117.2,649.5c0.1,4.2,0.1,8.4,0,12.6c0,2.8-0.1,5.5-0.2,8.3c-0.1,5.1-0.2,10.2-0.2,15.4
			c0,8.3-0.5,16.6-1.5,24.6c-2.6,21.8-0.1,42.6-9,61.6l-2.5,5.8c-4.5,9.5-9.8,18.5-15.8,26.9c-7.8,11-16.9,21.1-27,30.1
			c-38.5,34.5-91.8,54.1-147.4,54.1c-32.1,0-61.7-1.9-89.6-13.3c-14.3-5.8-26.4-13-36.7-21.3c-1.6-1.3-3.2-2.6-4.7-4
			c-25.1-21.8-39.7-50-53.2-78.9c-11.1-23.8-17.7-50.2-18.8-77.9c-0.1-2.6-0.2-5.2-0.2-7.8c0-33.2,8-64.6,22.1-92.3
			c5.5-10.8,9.9-20.9,15.5-30.5c1.5-2.6,3.1-5.1,4.8-7.6c5.7-8.4,13-16.5,23.5-24.2c14.9-11,31.3-20.8,48.9-28.7
			c27.3-12.2,57.4-19.8,88.3-19.8c2.6,0,5.2,0,7.7,0.2c9.7,0.3,19.2,1.3,28.4,2.8c42.5,7.1,79.6,26.6,110.4,54.4
			c2.2,2,4.3,4,6.5,6.1c3.3,3.2,6.5,6.4,9.7,9.8c5.7,6.2,11.2,12.8,16.5,19.6C2112.7,601.5,2116.7,625.5,2117.2,649.5z"/>
		<path class="st37" d="M2095,623.6c0.1,4.2,0.1,8.4,0,12.6c0,2.8-0.1,5.5-0.2,8.3c-0.1,5.1-0.2,10.2-0.2,15.4
			c0,8.3-0.5,16.6-1.5,24.6c-2.6,21.8-0.1,42.6-9,61.6l-2.5,5.8c-4.5,9.5-9.8,18.5-15.8,26.9c-7.8,11-16.9,21.1-27,30.1
			c-38.5,34.5-91.8,54.1-147.4,54.1c-32.1,0-61.7-1.9-89.6-13.3c-14.3-5.8-26.4-13-36.7-21.3c-1.6-1.3-3.2-2.6-4.7-4
			c-25.1-21.8-39.7-50-53.2-78.9c-11.1-23.8-17.7-50.2-18.8-77.9c-0.1-2.6-0.2-5.2-0.2-7.8c0-33.2,8-64.6,22.1-92.3
			c5.5-10.8,9.9-20.9,15.5-30.5c1.5-2.6,3.1-5.1,4.8-7.6c5.7-8.4,13-16.5,23.5-24.2c14.9-11,31.3-20.8,48.9-28.7
			c27.3-12.2,57.4-19.8,88.3-19.8c2.6,0,5.2,0,7.7,0.2c9.7,0.3,19.2,1.3,28.4,2.8c42.5,7.1,79.6,26.6,110.4,54.4
			c2.2,2,4.3,4,6.5,6.1c3.3,3.2,6.5,6.4,9.7,9.8c5.7,6.2,11.2,12.8,16.5,19.6C2090.4,575.6,2094.5,599.5,2095,623.6z"/>
		<path class="st38" d="M2038.8,808.9c-38.5,34.5-91.8,54.1-147.4,54.1c-32.1,0-61.7-1.9-89.6-13.3c-14.3-5.8-26.4-13-36.7-21.3
			c-1.6-1.3-3.2-2.6-4.7-4c-25.1-21.8-39.7-50-53.2-78.9c-11.1-23.8-17.7-50.2-18.8-77.9c1.7-2.6,15.5-23.2,25.8-18.3
			c11,5.3-0.6,42.6,11.6,55.4c12.2,12.9,42.9,16.2,50.5,39.4s18.6,23.8,25.8,39.8c7.2,16,21,40.9,32.1,41.5
			c11,0.5,22.7-26,27.6-41.5c5-15.5,1.2-36,3.3-58c2.2-22.1,16.6-31.5,13.8-49.8c-2.8-18.2-11.6-35.9-35.9-37.3
			c-24.3-1.4-32.6-3.1-27.1-14.1c5.5-11.1,11.6-19.1,27.1-27.5c15.5-8.5,18.4,22.5,36.3,32.7s22.9,23.5,30.6,55.6
			s-2.8,51.2-6.1,75.1c-3.3,23.8-1.7,73.6,17.1,69.2c18.8-4.4,13.3-25.7,39.8-17.6c26.5,8.2,22.7,9.1,50.3-2.4
			C2021.1,805.7,2030.8,805.9,2038.8,808.9z"/>
		<path class="st38" d="M2095,636.2c0,2.8-0.1,5.5-0.2,8.3c-0.1,5.1-0.2,10.2-0.2,15.4c0,8.3-0.5,16.6-1.5,24.6
			c-2.6,21.8-0.1,42.6-9,61.6l-2.5,5.8c-4.5,9.5-9.8,18.5-15.8,26.9c-5.2,0.4-9.7,1.5-12.7,3.7c-13.5,10-26.7,16.6-47.6,14.1
			c-21-2.5-44.1-8.7-55.3-3.7c-11.1,5-24.9,17.4-34.5,3.3c-9.5-14.1,8.7-49.4,29-55.6c20.3-6.2,7,35.3,38.5,36.1s15.8-7.5,35.8-12.4
			c20-5,8.6-5,22-16.4c13.4-11.3,7.8-20.1,10.2-37.1c2.5-17,11.6-24.4,11.2-35.2c-0.4-10.8-6.2-19.1-2.2-26.3
			C2063.3,644,2084.1,638.6,2095,636.2z"/>
		<path class="st38" d="M1882.6,554c0,0-1.7,16-12.4,22.6c-10.8,6.6-4.6,20.9,5.4,29.9c9.9,9,23.6,6.1,32.3,23.6
			c8.7,17.4,7.9,37.7,14.9,36.9s-4.1-14.9-2.9-42.3c1.2-27.4,0-48.1-2.1-61.8C1915.8,549.2,1895,535.5,1882.6,554z"/>
		<path class="st38" d="M1966.3,531c-6.6,4.1-6.6-5.4-13.3-12.9c-6.6-7.5-18.2-11.2-21.6,3c-3.3,14.2-6.6,23.5-11.2,23
			c-4.5-0.5-0.8-10.3,0-23c0.9-12.7-14.5-15.9-28.7-13.4s-20.7,2.5-24,0s1.7-6.2,9.1-4.9c7.5,1.4,21.2-5.9,14.9-14.4
			c-6.3-8.4-17.8-18.1-37.2-15.2c-19.5,2.9-19.5,12.4-34,10.8c-7.7-0.9-13.4-4.3-17.3-7.5c27.3-12.2,57.4-19.8,88.3-19.8
			c2.6,0,5.2,0,7.7,0.2c9.7,0.3,19.2,1.3,28.4,2.8c0,3.2,0.3,6.1,1.1,8.2c2.5,6.2,7.1,11.2,10.2,23.6c3.2,12.3,6.8,10,19.1,21.2
			C1970.2,523.9,1973,526.8,1966.3,531z"/>
		<path class="st39" d="M1700.6,589.9c0,0,0.9,8,3.4,11.1c2.5,3,7.5,9.7,15.5,15.2s11.6,5.4,20.7,12.9s14.6,11.4,21.6,13.9
			c6.9,2.5,10.5,2.5,13.5,4.4s4.9-0.6,8.6,1.9s1.7,3.6,2.2,6.1c0.6,2.5-7.7,8.6-9.4,13.5c-1.7,5-12.1,10.8-13.3,15.2
			c-1.1,4.4-2.8,10.8-1.7,13c1.1,2.2,6.6,16,10.8,21.8c4.1,5.8,6.1,10.5,10.5,14.9s8.8,9.7,14.4,13.3s10.2,4.5,12.4,9
			c2.2,4.5,3.9,9.5,3.9,16.1s0.9,12,4.5,14.6c3.5,2.5,11,2,11,2s1.4,8,1.4,11.3s0.7,8.4,4.6,9.6c0,0,1.5-43.6,1.5-44.7
			c0-1.1-22.4-60.9-24-65.3c-1.7-4.4-18.5-52.7-18.5-52.7s-38.1-46.4-41.7-48.4C1748.8,596.9,1700.6,589.9,1700.6,589.9z"/>
		<path class="st39" d="M1899.9,521.1c0,0,1.8,2.2,0,5.4s-14.2,10.4-18.9,12.6c-4.7,2.2-8.7,6.4-11.9,7.5c-3.2,1.1-3.6,2.5-3.6,4.7
			s-6.4,17.7-9,19.5c-2.6,1.7-4.3,5.4-10.1,7.9c-5.8,2.5-12.2,4.1-16,6.4c-3.9,2.2-6.9,7.2-11.1,13.5c-4.1,6.4-12.2,24.4-15.2,28.5
			s-5.2,9.2-4.4,14.4c0.8,5.2-14.1-18.3-14.1-18.3s-0.8-22.4,3-27.1c3.9-4.7,32.1-34.3,33.7-36.8c1.7-2.5,14.1-12.2,17.7-14.4
			s18.8-11.9,18.8-11.9L1899.9,521.1z"/>
		<path class="st40" d="M1874.6,516.4c-7.7,2.2-22.1-6.1-29.9-2.2c-7.7,3.8-33-11.8-33.2-12c-14.3-9.1-28-15.8-28-15.8h-14.1
			c0,0-16.2,11.4-26.5,21.3c-10.4,9.9-12,10.8-20.7,28.2s-21.6,36.1-22.4,41.9c-0.8,5.8,0.9,12.2,0.9,12.2s12,17.7,28.6,28.5
			s50.5,29.9,54.3,28.2l0,0c2.6-1.2,5.5-0.7,7.2,1.6c0.4,0.5,0.7,1,1.1,1.5c-2.3,0.9-5.4,2.5-8.4,5.5c-5.5,5.5-0.6,5.9-6.6,10.4
			c-6.1,4.5-9.4,6.9-12.7,15.9c-3.3,9,7.5,23.6,9.8,28.6l0,0c4.9,11.5,12.9,22.9,22.2,30.1c6.3,4.8,12.5,10.8,18.2,16.9
			c1.6,4.4,2.8,8.4,2.8,10.8c0,7.2-2.2,14.5,0,17.8s11.6,7.7,15.5,8.5s0,16.3,4.4,17.9s2.4-13.8,6.5-17.9c2.4-2.5,3.6-12.4,4.2-19.9
			c0.3-2.7,0.4-5.8,0.5-9v-0.1l0,0c0.1-6.6-0.2-13.7-0.6-19.9c-1.1-16,0.6-28.7,8.3-38.7c7.7-10,13.8-32.6,6.1-43.1
			c-7.7-10.5-22.7-14.9-31-11.6c-8.3,3.3-23.8,2.8-26.5,0c-5.4-12.2-4.5-26.2,2.2-37.7c1.5-2.6,3.1-5.3,4.7-8.2
			c3.5-6.2,7.9-13.2,12.3-20.4l0,0c2.5-4.1,11.2-8.9,21.2-10s21.6-10,20.7-24.3c-0.8-14.4,25.2-18.2,32.9-27.1
			C1906.1,515.3,1882.3,514.2,1874.6,516.4z"/>
		<path class="st39" d="M1950.2,486.4c0,0,0.6,5.1,5.1,11.8c4.6,6.6,8.9,10.2,14.5,15.1c5.6,5,16,9.8,19.7,13.2s10,4.2,13.9,3
			s8.3-7.2,11.6-8.4c3.3-1.2,4.2-1.1,9.1,0s5.6,5.3,7.5,7.7c1.9,2.5-1.5,4.6,5.4,6.8c6.8,2.3,6.8,0.2,12.2,3.7
			c5.4,3.5,9,3.4,10.8,4.6c1.8,1.2-7.1-18.9-7.1-18.9s-16.6-13.7-23-15.8s-22.4-8.2-28.4-9s-33.2-11.5-33.2-11.5"/>
		<path class="st40" d="M1948.3,464.3c0,0-1.9,19.9,4.8,27.2c6.6,7.3,12.2,9.5,17.7,13.9s18.8,19.9,29.3,19.9s11.1-9.4,19.3-8.3
			c8.3,1.1,8.8,4.4,13.8,11.1c5,6.6,12.7,6.1,20.5,11.6c7.7,5.5,18.8,12.6,19.9,14.1c1.1,1.6,2.8-7.5,2.8-7.5s-14.9-24.6-31-37.2
			c-16-12.6-30.4-25.3-52.5-35.8c-14.9-7.1-30.1-12.2-38.4-14.7c-4.8-1.5-9.9-1-14.2,1.6c-1.4,0.8-2.1,1.6-0.8,1.9
			C1943.2,462.9,1948.3,464.3,1948.3,464.3z"/>
		<path class="st39" d="M1958,540.7c0,0,24.9,9.1,35.7,7.5c10.8-1.7,21.6,2.9,30.7,10.2c9.1,7.2,15.8,12.2,22.4,8.9
			s19.1-10.3,22.4,1c3.3,11.4,11.6,31.6,15.5,31.6s7.2-1.8,8,2.8s7,6.6,5.8,11.5c-1.1,5-3.5,13.7-3.5,13.7s-7,1.7-18.6,3.9
			s-15.5,6.6-28.2,14.4c-12.7,7.7,0.3,13.8,1.9,28.7c1.7,14.9-6.6,31.5-11.6,47.3s-15.4,29.9-30.9,36.5s-31-6.4-30.2-11.3
			c0.8-5,5.8-15.8,9.9-29.9c4.1-14.1,1.4-74.9-2.8-83.2c-4.1-8.3-26.8,17.7-35.9,19.3c-9.1,1.7-17.1-28.4-17.1-50s8-22,7.3-30.7
			s-9.8-14.5-2.7-23.2c7-8.7-1.2-13.7,2.7-17C1942.7,529.6,1946,529.6,1958,540.7z"/>
		<path class="st40" d="M1958,536.3c0,0,24.9,9.1,35.7,7.5c10.8-1.7,21.6,2.9,30.7,10.2c9.1,7.2,15.8,12.2,22.4,8.9
			s19.1-10.3,22.4,1c3.3,11.4,11.6,31.6,15.5,31.6s7.2-1.8,8,2.8s7,6.6,5.8,11.5c-1.1,5-3.5,13.7-3.5,13.7s-7,1.7-18.6,3.9
			s-15.5,6.6-28.2,14.4c-12.7,7.7,0.3,13.8,1.9,28.7c1.7,14.9-6.6,31.5-11.6,47.3s-15.4,29.9-30.9,36.5s-31-6.4-30.2-11.3
			c0.8-5,5.8-15.8,9.9-29.9c4.1-14.1,1.4-74.9-2.8-83.2c-4.1-8.3-26.8,17.7-35.9,19.3c-9.1,1.7-17.1-28.4-17.1-50s8-22,7.3-30.7
			s-9.8-14.5-2.7-23.2c7-8.7-1.2-13.7,2.7-17C1942.7,525.1,1946,525.1,1958,536.3z"/>
		<path class="st39" d="M1700.6,606.5c0,0,2.4,1.6,3.1,6.3c0.6,4.8-1.2,9.6-1.9,16.3c-0.8,6.7-3.2,15.6-5.5,19.3s-4.4,5.8-6.2,4.9
			c-1.9-0.9,2.1-14,2.1-14"/>
		<path class="st40" d="M1694.9,608.3c0,0-10.5,12-10,20.6c0.4,8.6,3.4,12.5,3.4,19.9s4.2,6.1,6.6-5.9s5.7-19.9,6.5-24
			C1702.2,614.7,1702.1,597.7,1694.9,608.3z"/>
		<path class="st39" d="M1838.6,491.5c0,0,3,5.7,5.8,8s6.1,4.3,9,2.8s2.1-5.4,3.3-7.2c1.2-1.8,2.6-2.2,8.8-1.4
			c6.2,0.8,13.7,0.1,13.4-2.2c-0.3-2.3-16.6-3-16.6-3"/>
		<path class="st40" d="M1838.6,491.5c0,0,7.7,8.8,13.3,8.8c5.5,0,1.1-7.7,6.1-8.8c5-1.1,18.8,3.3,21,0s-6.6-5-16-8.3
			C1853.6,479.9,1836.2,489,1838.6,491.5z"/>
		<path class="st41" d="M1709.7,574.1c0,0,3.3,14.5,8.7,20.3c5.4,5.8,24.5,13.7,34,18.2c9.5,4.6,33.6,17.8,37.3,21.6
			c3.7,3.7,4.1-12,5.8-21.1c1.7-9.1,9.5-24,17.8-34.8s31.9-10,34.8-21.6s6.6-24,13.7-25.7c7-1.7,3.7-2.9-17-6.6
			c-20.7-3.7-26.5-5-50.2-15.3c-23.6-10.4-24.5-17-36.1-0.4s-25.3,33.6-33.2,39C1717.6,552.9,1707.6,566.9,1709.7,574.1z"/>
		<path class="st41" d="M1795.1,659.9c0,0-11.6,24.9-16.2,24.9s-2.5,12.9,1.7,15.1c4.1,2.3,5.4,13.5,14.5,20.1s16.2,10.8,22.4,19.1
			c6.2,8.3,10,3.4,10,21.6s3.7,24.4,5.8,23.2s-0.8-16.2,0-32.8s-5.8-29.8-2.5-40.8s14.8-23.4,3.3-33.4s-18.6-6.2-26.1-12
			S1796.9,656.2,1795.1,659.9z"/>
		<path class="st41" d="M1948.1,560.4c0,0,4.7,10.8,2.1,15.8c-2.5,5-8.8,11.2-8.8,19.5s1.2,35.2,4.8,37.3c3.5,2.1,8.9-2.5,13.1-9.1
			c4.1-6.6,13.3-9.5,19.5-7s14.9-0.4,16.6,7.9c1.7,8.3,5.8,28.2,6.6,37.7s-6.6,34.4-4.6,43.5c2.1,9.1-7,18.2-5.4,24
			c1.7,5.8,16.2,4.4,21.6-8.8c5.3-13.3,13.3-30.6,12.4-46.3c-0.8-15.8-12-41.9-8.3-49.8c3.7-7.9,23.2-5,22.8-15.8
			c-0.4-10.8,5.8-8.3-15.8-22c-21.6-13.7-18.2-11.6-33.8-23.6c-15.6-12-25.1-12-34.6-17.4C1946.9,540.9,1943.5,548.8,1948.1,560.4z"
			/>
		<path class="st41" d="M2034.7,584c0,0,4.1,9.1,9.1,10c5,0.8,33.2,7,30.7,0s-13.2-15.3-14.2-21.6
			C2059.2,566.2,2025.6,574.1,2034.7,584z"/>
		<path class="st41" d="M1958.5,469.6c0,0-3.3,10.5,5.8,16.8c9.1,6.4,11.6,11.8,18.7,19.5c7,7.7,8.7,13.7,12.4,15.2
			c3.7,1.5,13.3,1.3,19.7-5.8c6.4-7.1,15.7-1.3,18.1,3.2c2.4,4.6,6.5,10.4,13.6,12.4c7,2.1,11.8-5-5.7-17.8
			c-17.5-12.9-15.8-11.5-37.2-24.6C1982.5,475.4,1956.8,463.4,1958.5,469.6z"/>
		<path class="st41" d="M2033.2,678.5c0,0-0.1,18.2-4.7,28.6c-4.6,10.4-5.8,24.5-13.5,27.8s-21.3,4.1-19.7,8.7
			c1.7,4.6,10.8,5.4,16.6,3.3c5.8-2.1,15.8-7.9,16.6-18.2c0.8-10.4,6.2-18.2,9.5-28.8s7.3-28.4,3-35.9
			C2036.8,656.6,2033.9,667.5,2033.2,678.5z"/>
		<path class="st41" d="M2041.1,619.2c0,0-10.9,3.3-12.1,8.9c-1.2,5.6,2.7,16.2,5.6,16.2s8.1-5.8,13.9-10.4
			c5.8-4.6,11-8.9,20.7-10.2c9.7-1.2,20.1-3.9,19.9-8.5c-0.2-4.6,0.1-9.5-12.7-11s-17.3-8.1-22.4-2.5
			C2048.8,607.4,2049.6,615.1,2041.1,619.2z"/>
		<path class="st42" d="M1957.6,784.8c-32.1,0-61.7-1.9-89.6-13.3c-14.3-5.8-26.4-13-36.7-21.3c-1.6-1.3-3.2-2.6-4.7-4
			c-25.1-21.8-39.7-50-53.2-78.9c-11.1-23.8-17.7-50.2-18.8-77.9c-0.1-2.6-0.2-5.2-0.2-7.8c0-2.9,0.1-5.7,0.3-8.5
			c-0.2-0.7-0.3-1.6-0.3-2.6c0-7.4-3-11.3-3.4-19.9c-0.4-8.6,10-20.6,10-20.6l0.1-0.1c1.6-6.2,3.5-12.3,5.6-18.2v-0.1
			c0,0-1.7-6.3-0.9-12.1c0.3-2.4,2.9-7.2,6.2-13.1h-2.8c0,0-16.2,11.4-26.5,21.3c-10.3,10-12,10.7-20.7,28.2
			c-8.7,17.4-21.6,36.1-22.4,41.9c-0.8,5.8,0.9,12.1,0.9,12.1v0.1c-2.2,5.9-4,12-5.6,18.2c-0.1,0.1-0.1,0.1-0.1,0.2
			c0,0-10.4,12-10,20.5c0.4,8.6,3.4,12.5,3.4,19.9c0,1.1,0.1,1.9,0.3,2.6c-0.1,2.8-0.3,5.6-0.3,8.5c0,2.6,0,5.2,0.2,7.8
			c1,27.8,7.6,54.1,18.8,77.9c13.5,28.9,28.1,57.1,53.2,78.9c1.5,1.4,3.1,2.7,4.7,4c10.3,8.3,22.4,15.5,36.7,21.3
			c27.9,11.3,57.4,13.3,89.6,13.3c55.7,0,109-19.6,147.4-54.1c10.1-9,19.2-19.1,27-30.1c6-8.4,11.3-17.4,15.8-26.9
			c0,0,1.2-2.9,2-4.5C2047.8,771.4,2003.5,784.8,1957.6,784.8z"/>
		<path class="st43" d="M1957.6,784.8c-32.1,0-61.7-1.9-89.6-13.3c-14.3-5.8-26.4-13-36.7-21.3c-1.6-1.3-3.2-2.6-4.7-4
			c-25.1-21.8-39.7-50-53.2-78.9c-11.1-23.8-17.7-50.2-18.8-77.9c-0.1-2.6-0.2-5.2-0.2-7.8c0-2.9,0.1-5.7,0.3-8.5
			c-0.2-0.7-0.3-1.6-0.3-2.6c0-7.4-3-11.3-3.4-19.9c-0.4-8.6,10-20.6,10-20.6l0.1-0.1c1.6-6.2,3.5-12.3,5.6-18.2v-0.1
			c0,0-1.7-6.3-0.9-12.1c0.3-2.4,2.9-7.2,6.2-13.1h-2.8c0,0-16.2,11.4-26.5,21.3c-10.3,10-12,10.7-20.7,28.2
			c-8.7,17.4-21.6,36.1-22.4,41.9c-0.8,5.8,0.9,12.1,0.9,12.1v0.1c-2.2,5.9-4,12-5.6,18.2c-0.1,0.1-0.1,0.1-0.1,0.2
			c0,0-10.4,12-10,20.5c0.4,8.6,3.4,12.5,3.4,19.9c0,1.1,0.1,1.9,0.3,2.6c-0.1,2.8-0.3,5.6-0.3,8.5c0,2.6,0,5.2,0.2,7.8
			c1,27.8,7.6,54.1,18.8,77.9c13.5,28.9,28.1,57.1,53.2,78.9c1.5,1.4,3.1,2.7,4.7,4c10.3,8.3,22.4,15.5,36.7,21.3
			c27.9,11.3,57.4,13.3,89.6,13.3c55.7,0,109-19.6,147.4-54.1c10.1-9,19.2-19.1,27-30.1c6-8.4,11.3-17.4,15.8-26.9
			c0,0,1.2-2.9,2-4.5C2047.8,771.4,2003.5,784.8,1957.6,784.8z"/>
		<path class="st43" d="M1922.9,829.7c-32.1,0-61.7-1.9-89.6-13.3c-14.3-5.8-26.4-13-36.7-21.3c-1.6-1.3-3.2-2.6-4.7-4
			c-25.1-21.8-39.7-50-53.2-78.9c-11.1-23.8-17.7-50.2-18.8-77.9c-0.1-2.6-0.2-5.2-0.2-7.8c0-2.9,0.1-5.7,0.3-8.5
			c-0.2-0.7-0.3-1.6-0.3-2.6c0-7.4-3-11.3-3.4-19.9c-0.4-8.6,10-20.5,10-20.5c0-0.1,0.1-0.1,0.1-0.2c1.6-6.2,3.5-12.3,5.6-18.2v-0.1
			c0,0-1.7-6.3-0.9-12.1c0.9-5.8,13.7-24.5,22.4-41.9c1.4-2.8,2.6-5.1,3.7-7.2c-4.8,3.7-10.1,8.2-14.5,12.3
			c-10.3,10-12,10.7-20.7,28.2c-8.7,17.4-21.6,36.1-22.4,41.9c-0.8,5.8,0.9,12.1,0.9,12.1v0.1c-2.2,5.9-4,12-5.6,18.2
			c-0.1,0.1-0.1,0.1-0.1,0.2c0,0-10.4,12-10,20.5c0.4,8.6,3.4,12.5,3.4,19.9c0,1.1,0.1,1.9,0.3,2.6c-0.1,2.8-0.3,5.6-0.3,8.5
			c0,2.6,0,5.2,0.2,7.8c1,27.8,7.6,54.1,18.8,77.9c13.5,28.9,28.1,57.1,53.2,78.9c1.5,1.4,3.1,2.7,4.7,4
			c10.3,8.3,22.4,15.5,36.7,21.3c27.9,11.3,57.4,13.3,89.6,13.3c55.7,0,109-19.6,147.4-54.1c9.6-8.6,18.2-18.1,25.8-28.4
			C2026.7,811.9,1975.9,829.7,1922.9,829.7z"/>
		<path class="st44" d="M2098.4,609.9c1.1-5-5.1-6.9-5.8-11.5c-2.7-14.5-8.2-29.2-19.1-44.6c0,0,0,0,0.1,0c1.1,1.6,2.8-7.5,2.8-7.5
			s-14.9-24.6-31-37.2c-16-12.6-30.4-25.3-52.5-35.8c-14.9-7.1-30.1-12.1-38.4-14.7c-4.7-1.5-9.9-1-14.2,1.6
			c-1.4,0.8-2.1,1.6-0.8,1.9c0.9,0.2,1.8,0.4,2.7,0.6c-4.8-1.2-9.7-2.2-14.6-3c-9.2-1.6-18.7-2.5-28.4-2.8c-2.6-0.1-5.1-0.2-7.7-0.2
			c-30.9,0-61,7.6-88.3,19.8c-6.7,3-13.2,6.4-19.6,9.9h-0.1h-14.1c0,0-16.2,11.4-26.5,21.3c-6.2,6-9.3,8.7-12.7,13.6
			c1.5-1.4,3.2-3,5.2-4.9c10.3-10,26.5-21.3,26.5-21.3h14c0,0,0.1,0,0.1,0.1c6.4-3.5,12.8-6.9,19.6-9.9
			c27.3-12.2,57.4-19.8,88.3-19.8c2.6,0,5.2,0,7.7,0.2c9.7,0.3,19.2,1.3,28.4,2.8c4.9,0.8,5.6,2.2,10.4,3.4c-0.9-0.2,2.9-1.6,2-1.8
			c-1.3-0.3-1.1-0.3,0.3-1.1c4.3-2.6,9.5-3,14.2-1.6c8.3,2.6,23.5,7.6,38.4,14.7c22.1,10.5,36.5,23.2,52.5,35.8
			c16.1,12.6,31,37.1,31,37.1s-1.7,9.1-2.8,7.5c-2-1.6,0,0-0.1,0c10.9,15.4,16.4,30.1,19.1,44.6c0.8,4.6,7,6.6,5.8,11.5
			c-0.1,0.4-0.2,0.9-0.3,1.3c0.4,0.9,0.6,2,0.3,3.1c-1.1,4.9-3.4,13.5-3.5,13.7c0,2.7,0,5.4,0,8.2s-0.1,5.5-0.2,8.3
			c-0.1,5.1-0.2,10.2-0.2,15.4c0,8.3-0.5,16.6-1.5,24.6c-2.6,21.8-0.1,42.6-9,61.6l-2.5,5.8c-4.5,9.5-9.8,18.5-15.8,26.9
			c-2.2,3.1-4.6,6.2-7,9.2c5.2-5.6,10.1-11.6,14.5-17.8c6-8.4,11.3-17.4,15.8-26.9l2.5-5.8c8.9-19.1,6.4-39.9,9-61.6
			c1-8.1,1.5-16.3,1.5-24.6c0-5.2,0.1-10.3,0.2-15.4c0.1-2.8,0.1-5.5,0.2-8.3c0-2.8,0-5.4,0-8.2c0.1-0.2,2.4-8.8,3.5-13.7
			c0.3-1.2,0.1-2.2-0.3-3.1C2098.2,610.7,2098.4,610.3,2098.4,609.9z M1948.3,464.3c-0.4-0.1-0.7-0.2-1.1-0.3
			C1947.9,464.2,1948.3,464.3,1948.3,464.3L1948.3,464.3z"/>
	</g>
	<g>
		<g>
			<g>
				<path class="st45" d="M1851,704.4L1851,704.4c-0.2,0.6-0.4,1.1-0.7,1.6c-8.6,16-23.2,18.8-39.8,16.9c-0.2,7.5-6.1,15.6-13.5,18
					c-5.9,1.9-17.8-0.9-23-4.2c0.6,15.2-15.2,25.8-28.8,27.7c-6,0.9-16.3,1.3-21.9-0.9c-4.1-1.6-13.9-10.7-13.7-15.6
					c-5.7,3.8-17.1,4.4-22.2-0.6c-5.2-5-3.9-17.6-1-23.2c-6.5,0.1-11.6-5.8-13.8-11.2c-2.7-6.9-2.4-14.6,0.7-21.2l0,0
					c2.3-5,6.2-9.3,11.4-12c11.4-5.8,21.5-1.9,30.3,5.8c12.8-15.2,33.6-5.1,37.7,4.4c5.6-9.4,15.4-15.5,28.4-14.8
					c12.4,0.6,22.2,9.7,26.7,21.8c6-5.9,11.6-14.3,20.8-14.7c6.6-0.3,14.6,0.1,19.4,5C1852.3,691.4,1853.1,698.9,1851,704.4z"/>
			</g>
			<path class="st46" d="M1850.9,704.4c-0.2,0.5-0.4,1-0.7,1.5c-8.6,16-23.2,18.8-39.8,16.9c-0.2,7.5-6.1,15.6-13.5,18
				c-5.9,1.9-17.8-0.9-23-4.2c0.6,15.2-15.2,25.8-28.8,27.7c-6,0.9-16.3,1.3-21.9-0.9c-4.1-1.6-13.9-10.7-13.7-15.6
				c-5.7,3.8-17.1,4.4-22.2-0.6c-5.2-5-3.9-17.6-1-23.2c-6.5,0.1-11.6-5.8-13.8-11.2c-2.7-6.9-2.4-14.6,0.7-21.2
				c-0.1,1-1.1,21.6,21,22.8c0,0-2.5,13.7,9.5,11.6c0,0,5.9,21.1,21,10.6c0,0,31.5,16.4,41-12.2c0,0,11.2,9.8,17.8,2.3
				c6.1-6.8,5.2-10.9,5-11.5c0.6,0.8,5.3,7.8,11,4.1c6-3.8,5.4-9.4,5.4-9.4S1834.6,725.7,1850.9,704.4z"/>
		</g>
		<g>
			<g>
				<path class="st45" d="M2098.7,614.7c1.9,8.6,2.9,17.9-5.5,23.2c-6.4,4-19.9,4-24.5-4.7c3.5,9.3-4.5,18.6-12.9,21.2
					c-9.7,3.1-21.3,0-26.4-8.9c-0.5,8.9-4.7,16.3-14.6,17.9c-9.7,1.6-17.7-3.3-19.2-13.1c-6,4.6-12.8,9.7-21,7.5
					c-7.6-2.1-10.8-9.8-11.6-16.9c-0.1-1-0.2-2-0.2-3.1c-0.2-5.5,0.8-12,4-16.1c2.7-3.4,7.1-6.6,11.4-6.6c2.9,0,5.7,2.2,5.9,5.8
					c5-8.2,11.5-16.6,21.8-18.2c8-1.3,22.9,1,25.8,9.4c-3.7-11.5,5.2-29.3,18.5-30.5c14.1-1.3,33.1,1.7,34.2,19.3
					c1.1-4.5,2.6-10.8,8.1-12.3c3.2-0.8,8.6-0.5,12.6,0.9c1.7,0.6,3.1,1.3,4,2.3C2116,599.2,2111.1,617.4,2098.7,614.7z"/>
			</g>
			<path class="st46" d="M2098.7,614.7c1.9,8.6,2.9,17.9-5.5,23.2c-6.4,4-19.9,4-24.5-4.7c3.5,9.3-4.5,18.6-12.9,21.2
				c-9.7,3.1-21.3,0-26.4-8.9c-0.5,8.9-4.7,16.3-14.6,17.9c-9.7,1.6-17.7-3.3-19.2-13.1c-6,4.6-12.8,9.7-21,7.5
				c-7.6-2.1-10.8-9.8-11.6-16.9c-0.1-1-0.2-2-0.2-3.1c0.6,0.5,16.1,13.3,26.4-1.6c0,0,6.9,16.8,18.4,1.6c0,0,5.3,11.9,14.2,9.7
				c9.6-2.4,8-16.6,8-16.6s5.4,11.8,15.8,8.8c10.8-3.2,7.5-14.6,7.5-14.6s5.9,8,18.6,0.7c9.7-5.6,5-18.9,4.6-19.7
				c0.6,0.9,9.2,10.7,16.5,7.2c10.2-4.9,5.7-15.4,5.7-15.4s9.4,0.2,6.8-7.9c-0.1-0.2-0.1-0.3-0.2-0.5c1.7,0.6,3.1,1.3,4,2.3
				C2116,599.2,2111.1,617.4,2098.7,614.7z"/>
		</g>
		<g>
			<g>
				<path class="st45" d="M1984.6,706.6c-2.3,1.8-10.2,6.8-12.5,3c0.2,7-2.4,13.1-9.5,15.3c-6.8,2.1-16.1,2.5-18.7-5.7
					c-2.2,3.4-6.2,6.3-10.6,6.2c-4.1-0.1-10.5-2.8-12.1-6.8c-1-2.7-0.7-6.2,0.6-9.6l0,0c2.1-5.8,7-11.1,12.5-10.4l0.8-0.6
					c-4.4-7,7.9-14.2,10-7.8c-2.1-7.1,3.7-9.8,10.1-9.6c2.8,0.1,6.1,1.1,8.7,2c3.5,1.2,4.5,4.4,7.5,6c3.2-3.2,6-5.2,10.4-4.7
					c0.5,0,0.9,0.1,1.4,0.2c4.4,0.9,7.7,5.7,8.1,10.1C1991.6,699.3,1988.5,703.6,1984.6,706.6z"/>
			</g>
			<path class="st46" d="M1984.6,706.6c-2.3,1.8-10.2,6.8-12.5,3c0.2,7-2.4,13.1-9.5,15.3c-6.8,2.1-16.1,2.5-18.7-5.7
				c-2.2,3.4-6.2,6.3-10.6,6.2c-4.1-0.1-10.5-2.8-12.1-6.8c-1-2.7-0.7-6.2,0.6-9.6l0,0c0,0-0.6,3.9,3,5.9s8-3.3,8-3.3
				c0,0.4,0.1,5.6,4.5,5.8c4.5,0.2,4.9-7,4.9-7s3.4,4.9,8.4,3.5c4.9-1.4,3.8-8.2,3.8-8.2s3.3,3.9,11.4,1.6
				c8.1-2.3,7.3-11.7,7.3-11.7s3.2,4.9,7.6,2.5s6.6-10.4,1.1-14.1c0.5,0,0.9,0.1,1.4,0.2c4.4,0.9,7.7,5.7,8.1,10.1
				C1991.6,699.3,1988.5,703.6,1984.6,706.6z"/>
		</g>
		<g>
			<path class="st45" d="M1848.6,661.6c-7.2,4.1-19.9,4.7-25.4-4.4c-0.8-1.3-1.2-2.8-1.3-4.2c-0.6-8.5,8.8-18.1,8.8-18.1
				c4.4-3.4,9.7-3.8,14.3-2.9c4.3,0.8,7.9,2.7,9.5,4.3C1857.7,639.5,1855.8,657.4,1848.6,661.6z"/>
			<path class="st46" d="M1848.6,661.6c-7.2,4.1-19.9,4.7-25.4-4.4c-0.8-1.3-1.2-2.8-1.3-4.2l0,0c0,0,8.9,6,12.6-2.5
				c0,0,22.1,0.2,10.4-18.5c4.3,0.8,7.9,2.7,9.5,4.3C1857.7,639.5,1855.8,657.4,1848.6,661.6z"/>
		</g>
		<g>
			<path class="st45" d="M2104.4,675.1c-4.3,2.5-11.9,2.8-15.2-2.7c-0.5-0.8-0.7-1.7-0.8-2.5c-0.4-5.1,5.3-10.9,5.3-10.9
				c2.6-2,5.8-2.3,8.6-1.7c2.6,0.5,4.7,1.6,5.7,2.6C2109.9,661.9,2108.7,672.6,2104.4,675.1z"/>
			<path class="st46" d="M2104.4,675.1c-4.3,2.5-11.9,2.8-15.2-2.7c-0.5-0.8-0.7-1.7-0.8-2.5l0,0c0,0,5.3,3.6,7.6-1.5
				c0,0,13.2,0.1,6.2-11.1c2.6,0.5,4.7,1.6,5.7,2.6C2109.9,661.9,2108.7,672.6,2104.4,675.1z"/>
		</g>
		<g>
			<path class="st45" d="M1706.5,781.9c-4.3,2.5-11.9,2.8-15.2-2.7c-0.5-0.8-0.7-1.7-0.8-2.5c-0.4-5.1,5.3-10.9,5.3-10.9
				c2.6-2,5.8-2.3,8.6-1.7c2.6,0.5,4.7,1.6,5.7,2.6C1711.9,768.7,1710.8,779.4,1706.5,781.9z"/>
			<path class="st46" d="M1706.5,781.9c-4.3,2.5-11.9,2.8-15.2-2.7c-0.5-0.8-0.7-1.7-0.8-2.5l0,0c0,0,5.3,3.6,7.6-1.5
				c0,0,13.2,0.1,6.2-11.1c2.6,0.5,4.7,1.6,5.7,2.6C1711.9,768.7,1710.8,779.4,1706.5,781.9z"/>
		</g>
	</g>
</g>
<g>
	<g>
		<path class="st36" d="M2314.3,822.6c0.1,5-0.3,9.7-1,14.3l0,0c-1.2,7.4-3.4,14.3-6.5,20.6c-1.1,2.2-2.3,4.4-3.6,6.5
			c-5.7,9.1-13.4,16.6-22.5,22.2c-12,7.4-26.3,11.5-41.6,11.5c-3.2,0.3-6.2,0.4-9.2,0.3c-3-0.1-6-0.4-8.8-0.8
			c-15-2.4-27.5-9.7-36.8-20.1c-0.8-0.9-1.5-1.8-2.3-2.7l0,0c-0.9-1.1-1.7-2.2-2.6-3.4c-8.9-12.7-13.8-28.8-13.8-45.9
			c0-6.6,0.5-13.4,1.7-19.9c0.2-1.3,0.5-2.5,0.7-3.8c0.3-1.5,0.7-3,1.1-4.4c2.6-9.5,6.6-18.3,12.6-25.4c8.2-9.8,19.8-16.8,32.7-20.6
			c7.9-2.4,16.3-3.5,24.8-3.5c12.5,0,24.3,2.6,34.6,7.5c2.7,1.3,5.4,2.8,7.9,4.4c2.8,1.8,5.4,3.8,7.9,5.9c2,1.8,4,3.7,5.8,5.7
			c6.1,6.7,10.9,14.8,14.2,24c1.7,4.8,3,10,3.8,15.4c0.3,2.1,0.6,4.3,0.7,6.6C2314.2,818.8,2314.3,820.7,2314.3,822.6z"/>
		<path class="st47" d="M2303.2,810.4c0.1,5-0.3,9.7-1,14.3l0,0c-1.2,7.4-3.4,14.3-6.5,20.6c-1.1,2.2-2.3,4.4-3.6,6.5
			c-5.7,9.1-13.4,16.6-22.5,22.2c-12,7.4-26.3,11.5-41.6,11.5c-3.2,0.3-6.2,0.4-9.2,0.3c-3-0.1-6-0.4-8.8-0.8
			c-15-2.4-27.5-9.7-36.8-20.1c-0.8-0.9-1.5-1.8-2.3-2.7l0,0c-0.9-1.1-1.7-2.2-2.6-3.4c-8.9-12.7-13.8-28.8-13.8-45.9
			c0-6.6,0.5-13.4,1.7-19.9c0.2-1.3,0.5-2.5,0.7-3.8c0.3-1.5,0.7-3,1.1-4.4c2.6-9.5,6.6-18.3,12.6-25.4c8.2-9.8,19.8-16.8,32.7-20.6
			c7.9-2.4,16.3-3.5,24.8-3.5c12.5,0,24.3,2.6,34.6,7.5c2.7,1.3,5.4,2.8,7.9,4.4c2.8,1.8,5.4,3.8,7.9,5.9c2,1.8,4,3.7,5.8,5.7
			c6.1,6.7,10.9,14.8,14.2,24c1.7,4.8,3,10,3.8,15.4c0.3,2.1,0.6,4.3,0.7,6.6C2303.1,806.5,2303.2,808.4,2303.2,810.4z"/>
		<path class="st48" d="M2262.6,742.7c-0.5,2.2-1.9,4.1-4.4,5.6c-14.5,8.6-32.5-0.8-48,9.8s-18.8,21.7-37.5,28.2
			c-5.9,2.1-11.2,2.8-15.8,2.9c2.4-11.2,6.8-21.6,13.7-29.9c13.3-15.9,35.2-24.1,57.4-24.1C2240.5,735.2,2252.3,737.8,2262.6,742.7z
			"/>
		<path class="st48" d="M2302.2,798.1c-10,7.8-22.5,15.5-33.2,15.8c-21.8,0.6-37.1-8.6-49.6-7.4c-12.5,1.2-35.3,31.3-43,25.1
			c-7.7-6.1-2.8-26.4,17.3-38c20-11.6,40.7-6.7,64.6-12.9c12.3-3.2,20.7-13.1,25.9-22C2293.5,768.9,2299.8,782.2,2302.2,798.1z"/>
		<path class="st48" d="M2251.5,861.7c-16.6,3.2-31.3,13.9-41.6,23.3c-15-2.4-27.5-9.7-36.8-20.1c9.3-8.2,32.9-28.1,46.2-29.6
			c16.8-1.8,26.1,8.6,43.3,1.8c17.1-6.7,21.3-15.4,28.7-7.4C2298.9,837.9,2283.4,855.6,2251.5,861.7z"/>
		<path class="st48" d="M2292,851.9c-13.3,21.1-37.2,33.7-64,33.7c-3.2,0.3-6.2,0.4-9.2,0.3c3-4.5,8.8-11.2,17.4-13.8
			c13.5-4,20.2,0,30.7-4.9C2272.5,864.5,2282.7,857.6,2292,851.9z"/>
		<path class="st49" d="M2235.6,766.7c-19.6,3.7-20,3.7-27.6,12.1c-7.6,8.4-11.2,10.3-22.8,16.9c-11.6,6.6-16.7,6.4-18.9,17.7
			c-2.2,11.2-3.9,23.1,5.5,25.5c9.4,2.5,12.1-5.5,20.4-8.8c8.4-3.3,14.7,7.1,5.3,10s-18.6,3.3-23.3,11.9c-1.6,2.8-3.6,5.2-5.9,6.9
			c-8.9-12.7-13.8-28.8-13.8-45.9c0-6.6,0.5-13.4,1.7-19.9c2.4,0.1,5.7,0.1,10.5-0.1c14.9-0.8,28-11.4,35.4-20.8
			c7.4-9.4,19.4-18.2,33.9-16.8s19,1.8,21.7,5.5S2255.2,763,2235.6,766.7z"/>
		<path class="st49" d="M2208.2,821.6c0,0,6.1-9,13.7-9.6c7.6-0.6,19,6.5,29.8,7.6c10.8,1,15.5-6.4,22.9-2.8
			c7.4,3.6,0.8,5.4-12.9,7.9s-8.9,5.3-3.4,7.8c5.5,2.4,2,4.9-15.4,1.2s-23.9-0.6-30.2-1.2C2206.4,831.8,2204.9,825.5,2208.2,821.6z"
			/>
		<path class="st49" d="M2303.2,810.4c0.2,13-2.5,24.8-7.5,35c-2.6,1.5-5,2.5-5.9,1.8c-2.3-1.6,8.8-12.1,8.6-19.6
			c-0.2-7.6-10.2-4.9-13.9-7.4s-3.9-6.1,4.1-8.2c4.6-1.2,10.3-4.6,14.4-7.3C2303.1,806.5,2303.2,808.4,2303.2,810.4z"/>
		<path class="st50" d="M2270.5,747.1c-4.3,4.2-11,7.8-17.6,7.9c-10.8,0.3-24.1,7.7-32.5,7.1c-8.4-0.6-20.2-4.5-27.8,2
			s-12.9,15.3-23.9,18.6c-4.7,1.4-8.3,1.9-10.7,1.9c2.6-9.5,6.6-18.3,12.6-25.4c13.3-15.9,35.2-24.1,57.4-24.1
			c12.5,0,24.3,2.6,34.6,7.5C2265.4,744,2268,745.5,2270.5,747.1z"/>
		<path class="st50" d="M2298.4,782.7c-8.6,3.7-20.9,10.6-27.8,22c-4.5,7.3-14.2,14.9-20.5,11.1c-6.2-3.8-12.5-12.9-24.7-14.7
			c-12.3-1.8-18.8,3.7-29,12.5s-15.3,14.7-18.8,9.2s12.9-24.7,27-29.4s29.6-6.5,43.3-7.4c13.7-0.8,18.7-6.9,13.5-9.5
			c-2.4-1.2-6.3-1.7-21.5-0.1c-15.1,1.6-26.8,7.8-29.2,4.5c-2.5-3.3,14.4-12.1,34.9-11.6c20.6,0.4,24.7-2,28.6-7.8
			c2.1-3.1,3.4-6.2,4.2-8.3c2,1.8,4,3.7,5.8,5.7C2290.3,765.4,2295.1,773.5,2298.4,782.7z"/>
		<path class="st50" d="M2198.3,814.9c0,0-16.8,14.5-10.5,13.4s8.2-2.3,12.6-2.3c4.4,0,6.8-8.6,9.3-11.7
			C2212.3,811.3,2207.9,805.7,2198.3,814.9z"/>
		<path class="st50" d="M2278.7,845.7c-9,4.3-17,5.4-33.9,10c-17,4.7-23.3,12-20.6,14.1c2.6,2.1,12.5-1,21.9-3.3
			c7.9-1.9,20.1-1.6,23.6,7.5c-12,7.4-26.3,11.5-41.6,11.5c-3.2,0.3-6.2,0.4-9.2,0.3c-3-0.1-6-0.4-8.8-0.8
			c-15-2.4-27.5-9.7-36.8-20.1c-0.8-0.9-1.5-1.8-2.3-2.7l0,0c0.1-0.3,4.9-10.1,10.1-13c5.3-2.9,8.4-2.2,21.5-1.8s25.5-7.2,33.3-7
			s14.7,5.1,24.3,3.1s20.2-12.3,24.7-11C2289.3,833.7,2287.7,841.5,2278.7,845.7z"/>
		<path class="st47" d="M2297.6,841.2c-0.6,1.4-1.2,2.8-1.9,4.1c-1.1,2.2-2.3,4.4-3.6,6.5c-1.7,2.7-3.5,5.2-5.6,7.6
			c-4.8,5.8-10.5,10.7-16.9,14.6c-12,7.4-26.3,11.5-41.6,11.5c-3.2,0.3-6.2,0.4-9.2,0.3c-3-0.1-6-0.4-8.8-0.8
			c-15-2.4-27.5-9.7-36.8-20.1c-0.8-0.9-1.5-1.8-2.3-2.7l0,0c-0.9-1.1-1.7-2.2-2.6-3.4c-8.9-12.7-13.8-28.8-13.8-45.9
			c0-6.6,0.5-13.4,1.7-19.9c0.2-1.3,0.5-2.5,0.7-3.8c0.3-1.5,0.7-3,1.1-4.4c1.6-6,3.8-11.7,6.8-16.9l0,0c1.7-3,3.6-5.8,5.8-8.4
			c4.5-5.4,10-9.9,16.2-13.5c-0.8,2.3-1.6,4.6-2.2,7c-0.4,1.5-0.8,2.9-1.1,4.4c-0.3,1.2-0.5,2.5-0.7,3.8c-1.2,6.5-1.7,13.3-1.7,19.9
			c0,17.2,4.9,33.2,13.8,45.9c0.8,1.2,1.7,2.3,2.6,3.4l0,0c0.7,0.9,1.5,1.8,2.3,2.7c9.3,10.4,21.8,17.7,36.8,20.1
			c2.9,0.5,5.8,0.8,8.8,0.8c3,0.1,6.1,0,9.2-0.3c15.3,0,29.6-4.1,41.6-11.5C2296.6,841.9,2297.1,841.6,2297.6,841.2z"/>
		<path class="st47" d="M2286.5,859.5c-4.8,5.8-10.5,10.7-16.9,14.6c-12,7.4-26.3,11.5-41.6,11.5c-3.2,0.3-6.2,0.4-9.2,0.3
			c-3-0.1-6-0.4-8.8-0.8c-15-2.4-27.5-9.7-36.8-20.1c-0.8-0.9-1.5-1.8-2.3-2.7l0,0c-0.9-1.1-1.7-2.2-2.6-3.4
			c-8.9-12.7-13.8-28.8-13.8-45.9c0-6.6,0.5-13.4,1.7-19.9c0.2-1.3,0.5-2.5,0.7-3.8c0.3-1.5,0.7-3,1.1-4.4c1.6-6,3.8-11.7,6.8-16.9
			c-0.2,1.3-6.5,41.5,6.1,67.8c12.8,26.7,27,33.7,43.4,36.5C2230.2,874.9,2256.6,879.6,2286.5,859.5z"/>
		<path class="st51" d="M2303.2,810.4c0.1,5-0.3,9.7-1,14.3c0-6.3-4.3-28-6.3-33.6c-2-5.5-5-17.4-28.9-38.1s-63.8-14.3-63.8-14.3
			c7.9-2.4,16.3-3.5,24.8-3.5c12.5,0,24.3,2.6,34.6,7.5c2.7,1.3,5.4,2.8,7.9,4.4c2.8,1.8,5.4,3.8,7.9,5.9c2,1.8,4,3.7,5.8,5.7
			c6.1,6.7,10.9,14.8,14.2,24c1.7,4.8,3,10,3.8,15.4c0.3,2.1,0.6,4.3,0.7,6.6C2303.1,806.5,2303.2,808.4,2303.2,810.4z"/>
	</g>
	<g>
		<path class="st52" d="M2209.1,876.9c0,0-0.3,2.8,1.4,2.8s3.1-2.2,1.7-3.4C2210.7,875.2,2209.1,876.2,2209.1,876.9z"/>
		<path class="st52" d="M2183.5,860c0,0-1.3,1.7,0,2.3s2.6-1.7,2.4-2.3S2184.6,858.7,2183.5,860z"/>
		<path class="st52" d="M2187.1,751.5c-1.7,0.6-5.3,3-5.3,5.1s6.8-1.3,8.7-2.6C2192.5,752.6,2189.8,750.5,2187.1,751.5z"/>
		<path class="st52" d="M2192.6,861.9c-1.7,0.6-5.3,3-5.3,5.1s5.9,2.3,7.8,1C2197,866.7,2195.3,861,2192.6,861.9z"/>
		<path class="st52" d="M2193.5,746.2c0,0-2.1,1.1-1.4,1.9c0.6,0.8,2.8-0.1,3.4-0.9C2196.2,746.3,2195,745.3,2193.5,746.2z"/>
		<path class="st52" d="M2198.4,747.5c0,0-2.2,0.8-1.7,1.8c0.5,1.1,2.8,0.5,3.6-0.3C2201,748.2,2200,746.8,2198.4,747.5z"/>
		<path class="st52" d="M2193.8,753.1c0,0-2.2,0.8-1.7,1.8c0.5,1.1,2.8,0.5,3.6-0.3C2196.4,753.8,2195.4,752.4,2193.8,753.1z"/>
		<path class="st52" d="M2263.4,772.2c0,0-2.2,0.8-1.7,1.8s2.8,0.5,3.6-0.3S2265,771.5,2263.4,772.2z"/>
		<path class="st52" d="M2258.5,767.7c0,0-1.5,0.5-1,1.6s2.1,0.7,2.8,0C2261.1,768.4,2260.2,767,2258.5,767.7z"/>
		<path class="st52" d="M2278.8,821.9c0,0-1.5,0.5-1,1.6s2.1,0.7,2.8,0C2281.4,822.7,2280.4,821.3,2278.8,821.9z"/>
		<path class="st52" d="M2272.9,826.6c0,0-1.2,1.3-0.7,2.4c0.5,1.1,2.1,0.7,2.8,0S2276.2,824.6,2272.9,826.6z"/>
		<path class="st52" d="M2278.5,826c0,0-0.5,0.6-0.3,1.1s0.9,0.3,1.3,0C2279.8,826.7,2280,825.1,2278.5,826z"/>
		<path class="st52" d="M2268.2,825c0,0-0.5,0.6-0.3,1.1s0.9,0.3,1.3,0C2269.5,825.7,2269.7,824.1,2268.2,825z"/>
		<path class="st52" d="M2266,768.8c0,0-1.5-0.1-1.8,1s1.2,1.4,2,0.9C2266.9,770.3,2267.1,768.8,2266,768.8z"/>
		<path class="st52" d="M2270.8,766.6c0,0-2.4-0.1-2.9,1.7c-0.4,1.8,1.9,2.2,3.2,1.5C2272.4,769.1,2272.6,766.6,2270.8,766.6z"/>
		<path class="st52" d="M2194.5,870.4c0,0-4,1.8-2.9,3.4c1.1,1.5,4.1,2.5,5.1,1.2c1-1.2,2.7-3.8,1.1-4.6
			C2196.2,869.7,2195.6,869.8,2194.5,870.4z"/>
		<path class="st52" d="M2198.5,865.3c0,0-1.2,0.1-0.4,1.8c0.9,1.7,4,0.9,4.1-0.3C2202.4,865.5,2201.2,863.5,2198.5,865.3z"/>
		<path class="st52" d="M2201.8,875.6c0,0,0.3,1.7,2.1,1.8c1.8,0.2,2.5-2.6,1.5-4C2204.5,872,2201.4,873.1,2201.8,875.6z"/>
	</g>
</g>
<g>
	<g>
		<g>
			<g>
				<g>
					
						<rect x="2129.5" y="375.5" transform="matrix(-0.6963 -0.7178 0.7178 -0.6963 3356.7378 2192.0425)" class="st53" width="25.2" height="20.6"/>
					<path class="st54" d="M2143.5,406c-1,0-2-0.4-2.8-1.2l-17.6-18.1c-0.7-0.7-1.1-1.7-1.1-2.8c0-1,0.4-2,1.2-2.7l14.8-14.4
						c0.7-0.7,1.8-1.1,2.8-1.1c1,0,2,0.4,2.7,1.2l17.6,18.1c0.7,0.7,1.1,1.7,1.1,2.8c0,1-0.4,2-1.2,2.7l-14.8,14.4
						C2145.5,405.6,2144.5,406,2143.5,406z M2131.4,384.1l12.2,12.5l9.2-9l-12.2-12.5L2131.4,384.1z"/>
				</g>
				<g class="st55">
					<polygon class="st1" points="2142.9,378.4 2152.3,388.1 2152.8,387.6 2140.7,375.1 2131.4,384.1 2134.2,386.9 					"/>
				</g>
				<g>
					
						<rect x="2112.1" y="318" transform="matrix(-0.6963 -0.7178 0.7178 -0.6963 3494.0388 2133.5186)" class="st53" width="172.7" height="19.1"/>
					<path class="st54" d="M2251.7,400c-1,0-2-0.4-2.8-1.2l-120.2-123.9c-1.5-1.5-1.5-4,0.1-5.5l13.7-13.3c0.7-0.7,1.7-1.1,2.8-1.1
						c1,0,2,0.4,2.7,1.2l120.2,123.9c0.7,0.7,1.1,1.7,1.1,2.8c0,1-0.4,2-1.2,2.7l-13.7,13.3C2253.6,399.7,2252.6,400,2251.7,400z
						 M2136.9,272.3l114.8,118.4l8.1-7.9l-114.8-118.4L2136.9,272.3z"/>
				</g>
				<g class="st55">
					<polygon class="st1" points="2142.8,267.7 2257.1,385.5 2259.9,382.8 2145.1,264.4 2136.9,272.3 2137.5,272.9 					"/>
				</g>
				<g>
					<g>
						<g>
							<path class="st56" d="M2294.7,353.3l100.5,103.6c5,5.2,4.9,13.4-0.3,18.4l-54.8,53.2c-5.2,5-13.4,4.9-18.4-0.3l-100.5-103.6
								c-5-5.2-4.9-13.4,0.3-18.4l54.8-53.2C2281.5,348,2289.7,348.1,2294.7,353.3z"/>
							<path class="st54" d="M2331.1,536c-4.4,0-8.8-1.7-12.1-5.1l-100.5-103.6c-6.5-6.7-6.3-17.4,0.4-23.9l54.8-53.2
								c3.2-3.1,7.5-4.8,12-4.8c4.5,0.1,8.7,1.9,11.9,5.1L2398,454.2c6.5,6.7,6.3,17.4-0.4,23.9l-54.8,53.2
								C2339.6,534.4,2335.3,536,2331.1,536z M2285.4,353.2c-2.3,0-4.6,0.9-6.4,2.6l-54.8,53.2c-3.6,3.5-3.7,9.3-0.2,12.9
								l100.5,103.6c1.7,1.8,4,2.7,6.4,2.8c2.4,0,4.7-0.9,6.5-2.6l54.8-53.2c3.6-3.5,3.7-9.3,0.2-12.9L2291.9,356
								C2290.1,354.1,2287.7,353.2,2285.4,353.2z"/>
						</g>
					</g>
					<g class="st55">
						<path class="st1" d="M2351.2,481.1l32.1-31l-3.9-4l-32.1,31l-20-20.7l32-30.9l-3.9-4l-32,30.9l-20-20.7l32-30.9l-3.9-4
							l-32,30.9l-20-20.7l31.9-30.8l-3.9-4l-31.9,30.8l-21.4-22.2c-0.2-0.2-0.5-0.4-0.8-0.6l-3.7,3.6c0.1,0.3,0.3,0.5,0.5,0.8
							l21.4,22.2l-32.2,31.1l3.9,4l32.2-31.1l20,20.7l-32.1,31l3.9,4l32.1-31l20,20.7l-32.1,31l3.9,4l32.1-31l20,20.7l-32,30.9
							l3.9,4l32-30.9l15.5,16.1l4-3.9L2351.2,481.1z"/>
					</g>
					<g class="st55">
						<path class="st1" d="M2228.4,425.1c-1.7-1.8-2.6-4.1-2.6-6.5c0-2.4,1-4.7,2.8-6.4l54.8-53.2c1.7-1.7,4-2.6,6.4-2.6
							c0,0,0.1,0,0.1,0c1,0,2,0.2,2.9,0.5l-0.9-0.9v0c-1.7-1.8-4-2.7-6.4-2.8c0,0-0.1,0-0.1,0c-2.4,0-4.6,0.9-6.4,2.6l-54.8,53.2
							c-1.8,1.7-2.7,4-2.8,6.4c0,2.4,0.9,4.7,2.6,6.5l100.5,103.6c1,1,2.2,1.8,3.5,2.2L2228.4,425.1z"/>
					</g>
					<g>
						<g>
							<path class="st56" d="M2078.2,129.2l100.5,103.6c5,5.2,4.9,13.4-0.3,18.4l-54.8,53.2c-5.2,5-13.4,4.9-18.4-0.3l-100.5-103.6
								c-5-5.2-4.9-13.4,0.3-18.4l54.8-53.2C2065,123.9,2073.2,124,2078.2,129.2z"/>
							<path class="st54" d="M2114.6,311.9c-0.1,0-0.2,0-0.3,0c-4.5-0.1-8.7-1.9-11.9-5.1l-100.5-103.6c-3.1-3.2-4.8-7.5-4.8-12
								c0.1-4.5,1.9-8.7,5.1-11.9l54.8-53.2c6.7-6.5,17.4-6.3,23.9,0.4v0l100.5,103.6c3.1,3.2,4.8,7.5,4.8,12
								c-0.1,4.5-1.9,8.7-5.1,11.9l-54.8,53.2C2123.2,310.2,2119,311.9,2114.6,311.9z M2068.9,129.1c-2.3,0-4.6,0.9-6.4,2.6
								l-54.8,53.2c-1.8,1.7-2.7,4-2.8,6.4c0,2.4,0.9,4.7,2.6,6.5L2108,301.4c1.7,1.8,4,2.7,6.4,2.8c2.4,0,4.7-0.9,6.5-2.6
								l54.8-53.2c1.8-1.7,2.7-4,2.8-6.4c0-2.4-0.9-4.7-2.6-6.5l-100.5-103.6c0,0,0,0,0,0C2073.6,130,2071.3,129.1,2068.9,129.1z"/>
						</g>
					</g>
					<g class="st55">
						<path class="st1" d="M2011.9,202.2c-3.5-3.6-3.4-9.4,0.2-12.9l54.8-53.2c1.7-1.7,4-2.6,6.4-2.6c0,0,0.1,0,0.1,0
							c2,0,3.9,0.7,5.4,1.9l-3.4-3.5h0c-1.7-1.8-4-2.7-6.4-2.8c0,0-0.1,0-0.1,0c-2.4,0-4.6,0.9-6.4,2.6l-54.8,53.2
							c-3.6,3.5-3.7,9.3-0.2,12.9L2108,301.4c0.3,0.3,0.7,0.6,1,0.9L2011.9,202.2z"/>
					</g>
					<g>
						<g>
							<line class="st56" x1="2367.3" y1="501.9" x2="2249.1" y2="379.5"/>
							<path class="st54" d="M2367.3,504.7c-0.7,0-1.4-0.3-2-0.8l-118.2-122.4c-1.1-1.1-1-2.9,0.1-3.9c1.1-1.1,2.9-1,3.9,0.1
								L2369.3,500c1.1,1.1,1,2.9-0.1,3.9C2368.7,504.4,2368,504.7,2367.3,504.7z"/>
						</g>
						<g>
							<g>
								<line class="st56" x1="2308.2" y1="512.3" x2="2380" y2="443"/>
								<path class="st54" d="M2308.2,515.1c-0.7,0-1.5-0.3-2-0.8c-1.1-1.1-1-2.9,0.1-3.9L2378,441c1.1-1.1,2.9-1,3.9,0.1
									c1.1,1.1,1,2.9-0.1,3.9l-71.8,69.3C2309.6,514.8,2308.9,515.1,2308.2,515.1z"/>
							</g>
							<g>
								<line class="st56" x1="2284.3" y1="487.7" x2="2356.1" y2="418.3"/>
								<path class="st54" d="M2284.3,490.4c-0.7,0-1.4-0.3-2-0.8c-1.1-1.1-1-2.9,0.1-3.9l71.8-69.3c1.1-1.1,2.9-1,3.9,0.1
									c1.1,1.1,1,2.9-0.1,3.9l-71.8,69.3C2285.7,490.2,2285,490.4,2284.3,490.4z"/>
							</g>
							<g>
								<line class="st56" x1="2260.5" y1="463" x2="2332.3" y2="393.6"/>
								<path class="st54" d="M2260.5,465.7c-0.7,0-1.5-0.3-2-0.8c-1.1-1.1-1-2.9,0.1-3.9l71.8-69.3c1.1-1.1,2.9-1,3.9,0.1
									c1.1,1.1,1,2.9-0.1,3.9l-71.8,69.3C2261.9,465.5,2261.2,465.7,2260.5,465.7z"/>
							</g>
							<g>
								<line class="st56" x1="2236.7" y1="438.3" x2="2308.4" y2="369"/>
								<path class="st54" d="M2236.7,441.1c-0.7,0-1.4-0.3-2-0.8c-1.1-1.1-1-2.9,0.1-3.9l71.8-69.3c1.1-1.1,2.9-1,3.9,0.1
									c1.1,1.1,1,2.9-0.1,3.9l-71.8,69.3C2238.1,440.8,2237.4,441.1,2236.7,441.1z"/>
							</g>
						</g>
					</g>
					<g class="st55">
						<path class="st1" d="M2134.6,257.1l32.2-31.1l-3.9-4l-32.1,31.1l-20-20.7l32.1-31l-3.9-4l-32.1,31l-20-20.7l32.1-31l-3.9-4
							l-32,31l-20-20.7l32-30.9l-3.9-4l-32,30.9l-21.4-22.2c-0.2-0.2-0.5-0.4-0.8-0.6l-3.7,3.6c0.1,0.3,0.3,0.5,0.5,0.8l21.4,22.2
							l-32.1,31l3.9,4l32.1-31l20,20.7l-32,30.9l3.9,4l32-30.9l20,20.7l-32,30.9l3.9,4l32-30.9l20,20.7l-31.9,30.8l3.9,4l31.9-30.8
							l15.5,16.1l4-3.9L2134.6,257.1z"/>
					</g>
					<g>
						<g>
							<line class="st56" x1="2150.7" y1="277.9" x2="2032.5" y2="155.5"/>
							<path class="st54" d="M2150.7,280.7c-0.7,0-1.4-0.3-2-0.8l-118.2-122.4c-1.1-1.1-1-2.9,0.1-3.9c1.1-1.1,2.9-1,3.9,0.1
								L2152.7,276c1.1,1.1,1,2.9-0.1,3.9C2152.1,280.4,2151.4,280.7,2150.7,280.7z"/>
						</g>
						<g>
							<g>
								<line class="st56" x1="2091.6" y1="288.3" x2="2163.4" y2="219"/>
								<path class="st54" d="M2091.6,291.1c-0.7,0-1.4-0.3-2-0.8c-1.1-1.1-1-2.9,0.1-3.9l71.8-69.3c1.1-1.1,2.9-1,3.9,0.1
									c1.1,1.1,1,2.9-0.1,3.9l-71.8,69.3C2093,290.8,2092.3,291.1,2091.6,291.1z"/>
							</g>
							<g>
								<line class="st56" x1="2067.7" y1="263.6" x2="2139.5" y2="194.3"/>
								<path class="st54" d="M2067.7,266.4c-0.7,0-1.4-0.3-2-0.8c-1.1-1.1-1-2.9,0.1-3.9l71.8-69.3c1.1-1.1,2.9-1,3.9,0.1
									c1.1,1.1,1,2.9-0.1,3.9l-71.8,69.3C2069.1,266.1,2068.4,266.4,2067.7,266.4z"/>
							</g>
							<g>
								<line class="st56" x1="2043.9" y1="238.9" x2="2115.7" y2="169.6"/>
								<path class="st54" d="M2043.9,241.7c-0.7,0-1.4-0.3-2-0.8c-1.1-1.1-1-2.9,0.1-3.9l71.8-69.3c1.1-1.1,2.9-1,3.9,0.1
									c1.1,1.1,1,2.9-0.1,3.9l-71.8,69.3C2045.3,241.5,2044.6,241.7,2043.9,241.7z"/>
							</g>
							<g>
								<line class="st56" x1="2020.1" y1="214.3" x2="2091.9" y2="144.9"/>
								<path class="st54" d="M2020.1,217c-0.7,0-1.4-0.3-2-0.8c-1.1-1.1-1-2.9,0.1-3.9l71.8-69.3c1.1-1.1,2.9-1,3.9,0.1
									c1.1,1.1,1,2.9-0.1,3.9l-71.8,69.3C2021.5,216.8,2020.8,217,2020.1,217z"/>
							</g>
						</g>
					</g>
					<g class="st57">
						<path class="st54" d="M2086.8,141.3c0,0-29.1,32.3-53.9,15l21.4,22.4l35.8-34.1L2086.8,141.3z"/>
					</g>
					<g class="st57">
						<path class="st54" d="M2051.3,176.8c0,0-29.1,32.3-53.9,15l21.4,22.4l35.8-34.1L2051.3,176.8z"/>
					</g>
					<g class="st57">
						<path class="st54" d="M2112.3,165.7c0,0-29.1,32.3-53.9,15l21.4,22.4l35.8-34.1L2112.3,165.7z"/>
					</g>
					<g class="st57">
						<path class="st54" d="M2075.7,201.2c0,0-29.1,32.3-53.9,15l21.4,22.4l35.8-34.1L2075.7,201.2z"/>
					</g>
					<g class="st57">
						<path class="st54" d="M2135.6,191.2c0,0-29.1,32.3-53.9,15l21.4,22.4l35.8-34.1L2135.6,191.2z"/>
					</g>
					<g class="st57">
						<path class="st54" d="M2100.1,225.6c0,0-29.1,32.3-53.9,15l21.4,22.4l35.8-34.1L2100.1,225.6z"/>
					</g>
					<g class="st57">
						<path class="st54" d="M2161.1,214.5c0,0-29.1,32.3-53.9,15l21.4,22.4l35.8-34.1L2161.1,214.5z"/>
					</g>
					<g class="st57">
						<path class="st54" d="M2125.6,248.8c0,0-29.1,32.3-53.9,15l21.4,22.4l35.8-34.1L2125.6,248.8z"/>
					</g>
					<g class="st57">
						<path class="st54" d="M2179.9,237.8c0,0-29.1,32.3-53.9,15l21.4,22.4l35.8-34.1L2179.9,237.8z"/>
					</g>
					<g class="st57">
						<path class="st54" d="M2144.5,272.1c0,0-29.1,32.3-53.9,15l21.4,22.4l35.8-34.1L2144.5,272.1z"/>
					</g>
					<g class="st57">
						<path class="st54" d="M2304.1,364.2c0,0-29.1,32.3-53.9,15l21.4,22.4l35.8-34.1L2304.1,364.2z"/>
					</g>
					<g class="st57">
						<path class="st54" d="M2268.7,399.7c0,0-29.1,32.3-53.9,15l21.4,22.4L2272,403L2268.7,399.7z"/>
					</g>
					<g class="st57">
						<path class="st54" d="M2329.6,388.6c0,0-29.1,32.3-53.9,15l21.4,22.4l35.8-34.1L2329.6,388.6z"/>
					</g>
					<g class="st57">
						<path class="st54" d="M2293,422.9c0,0-29.1,32.3-53.9,15l21.4,22.4l35.8-34.1L2293,422.9z"/>
					</g>
					<g class="st57">
						<path class="st54" d="M2352.9,414.1c0,0-29.1,32.3-53.9,15l21.4,22.4l35.8-34.1L2352.9,414.1z"/>
					</g>
					<g class="st57">
						<path class="st54" d="M2317.4,448.5c0,0-29.1,32.3-53.9,15l21.4,22.4l35.8-34.1L2317.4,448.5z"/>
					</g>
					<g class="st57">
						<path class="st54" d="M2376.2,438.5c0,0-29.1,32.3-53.9,15l21.4,22.4l35.8-34.1L2376.2,438.5z"/>
					</g>
					<g class="st57">
						<path class="st54" d="M2340.7,472.8c0,0-29.1,32.3-53.9,15l21.4,22.4l35.8-34.1L2340.7,472.8z"/>
					</g>
					<g class="st57">
						<path class="st54" d="M2398.4,461.8c0,0-29.1,32.3-53.9,15l21.4,22.4l35.8-34.1L2398.4,461.8z"/>
					</g>
					<g class="st57">
						<path class="st54" d="M2361.8,496.1c0,0-29.1,32.3-53.9,15l21.4,22.4l35.8-34.1L2361.8,496.1z"/>
					</g>
				</g>
				<g>
					
						<rect x="2209.9" y="276.6" transform="matrix(-0.6963 -0.7178 0.7178 -0.6963 3605.4873 2097.8496)" class="st58" width="73.3" height="19.1"/>
					<path class="st54" d="M2265.3,323c-1,0-2-0.4-2.8-1.2l-51.1-52.6c-1.5-1.5-1.5-4,0.1-5.5l13.7-13.3c0.7-0.7,1.7-1.1,2.8-1.1
						c1,0,2,0.4,2.7,1.2l51.1,52.6c0.7,0.7,1.1,1.7,1.1,2.8c0,1-0.4,2-1.2,2.7l-13.7,13.3C2267.2,322.6,2266.2,323,2265.3,323z
						 M2219.7,266.5l45.7,47.1l8.1-7.9l-45.7-47.1L2219.7,266.5z"/>
				</g>
				<g class="st59">
					<polygon class="st1" points="2223,269.9 2231.1,262 2227.8,258.6 2219.7,266.5 2265.3,313.6 2265.4,313.5 					"/>
				</g>
				<g>
					<polygon class="st60" points="2227.9,253.1 2279,305.8 2280.4,283.1 2250.6,252.4 					"/>
					<path class="st54" d="M2279,309.7c-1,0-2-0.4-2.8-1.2l-51.1-52.6c-1.1-1.1-1.4-2.7-0.8-4.2s1.9-2.4,3.5-2.4l22.7-0.7
						c1.1,0,2.2,0.4,2.9,1.2l29.8,30.7c0.8,0.8,1.2,1.9,1.1,2.9l-1.4,22.7c-0.1,1.5-1.1,2.9-2.5,3.4
						C2279.9,309.6,2279.4,309.7,2279,309.7z M2236.8,256.7l38.9,40.1l0.8-12.2l-27.4-28.2L2236.8,256.7z"/>
				</g>
				<g>
					<path class="st61" d="M2131.5,340.3l54.8,56.5l-0.9,0.9c-5.2,5.1-13.6,5-18.7-0.3l-36.4-37.5c-5.1-5.2-5-13.6,0.3-18.7
						L2131.5,340.3z"/>
					<path class="st54" d="M2176,406.8c-0.1,0-0.1,0-0.2,0c-3.1,0-5.9-1.3-8.1-3.5l-43.4-44.7c-4.4-4.6-4.3-11.9,0.2-16.3l4.5-4.4
						c1.3-1.3,3.4-1.2,4.7,0.1l54.8,56.5c0.6,0.6,1,1.5,0.9,2.4c0,0.9-0.4,1.7-1,2.3l-4.5,4.4C2181.9,405.7,2179,406.8,2176,406.8z
						 M2131.4,345l-2.2,2.1c-1.9,1.9-2,4.9-0.1,6.9l43.4,44.7c0.9,0.9,2.1,1.5,3.4,1.5c1.3,0,2.5-0.5,3.5-1.4l2.2-2.1L2131.4,345z"
						/>
				</g>
				<g class="st62">
					<path class="st1" d="M2174.8,398.7l-43.4-44.7c-0.9-0.9-1.4-2.2-1.4-3.5c0-1.3,0.5-2.5,1.5-3.4l1-1l-1.1-1.1l-2.2,2.1
						c-0.9,0.9-1.5,2.1-1.5,3.4c0,1.3,0.5,2.5,1.4,3.5l43.4,44.7c1.2,1.3,3,1.7,4.6,1.3C2176.3,399.8,2175.4,399.4,2174.8,398.7z"/>
				</g>
				<g>
					<polygon class="st53" points="2119,431.5 2079.3,454.2 2072.9,447.9 2096.9,404 					"/>
					<path class="st54" d="M2079.3,458.1c-1,0-2-0.4-2.7-1.1l-6.4-6.4c-1.2-1.2-1.5-3.1-0.7-4.6l24-43.9c0.6-1.1,1.8-1.9,3.1-2
						c1.3-0.1,2.6,0.4,3.4,1.4l22.1,27.5c0.7,0.9,1,2,0.8,3.2c-0.2,1.1-0.9,2.1-1.9,2.6l-39.7,22.7
						C2080.6,458,2080,458.1,2079.3,458.1z M2077.7,447.2l2.3,2.2l33.2-19l-15.6-19.5L2077.7,447.2z"/>
				</g>
				<g class="st59">
					<polygon class="st1" points="2080.7,448.9 2099.7,414.3 2112.8,430.6 2113.1,430.4 2097.5,410.9 2077.7,447.2 2079.9,449.4 
											"/>
				</g>
				<g>
					
						<ellipse transform="matrix(0.9716 -0.2365 0.2365 0.9716 -49.1805 502.6257)" class="st61" cx="2070.7" cy="456.3" rx="13.9" ry="13.9"/>
					<path class="st54" d="M2070.7,473.6c-0.1,0-0.1,0-0.2,0c-4.6-0.1-8.9-1.9-12.1-5.2c-3.2-3.3-5-7.7-4.9-12.3
						c0.1-4.6,1.9-8.9,5.2-12.1c3.3-3.2,7.7-4.9,12.3-4.9c4.6,0.1,8.9,1.9,12.1,5.2c3.2,3.3,5,7.7,4.9,12.3
						c-0.1,4.6-1.9,8.9-5.2,12.1C2079.5,471.9,2075.2,473.6,2070.7,473.6z M2070.7,445.7c-2.8,0-5.4,1.1-7.4,3l0,0
						c-2,2-3.2,4.6-3.2,7.5c0,2.8,1,5.5,3,7.5c2,2,4.6,3.2,7.5,3.2c2.9,0,5.5-1,7.5-3c2-2,3.2-4.6,3.2-7.5c0-2.8-1-5.5-3-7.5
						c-2-2-4.6-3.2-7.5-3.2C2070.8,445.7,2070.7,445.7,2070.7,445.7z M2061,446.4L2061,446.4L2061,446.4z"/>
				</g>
				<g class="st59">
					<path class="st1" d="M2062.3,458.9c0-2.8,1.2-5.5,3.2-7.5c2-1.9,4.6-3,7.4-3c0,0,0.1,0,0.1,0c2.6,0,5,1,6.9,2.6
						c-0.4-0.8-1-1.5-1.6-2.2c-2-2-4.6-3.2-7.5-3.2c0,0-0.1,0-0.1,0c-2.8,0-5.4,1.1-7.4,3c-2,2-3.2,4.6-3.2,7.5c0,2.8,1,5.5,3,7.5
						c0.2,0.2,0.4,0.4,0.6,0.5C2062.8,462.7,2062.3,460.8,2062.3,458.9z"/>
				</g>
				<g>
					<path class="st58" d="M2154.4,470.6c11.1-24.5,4.7-57-18.2-80.5c-22.9-23.4-55.3-30.6-80-20.1L2154.4,470.6z"/>
					<path class="st54" d="M2154.4,474.5c-1,0-2-0.4-2.8-1.2l-98.2-100.6c-0.9-0.9-1.3-2.2-1-3.5c0.3-1.3,1.1-2.3,2.3-2.8
						c27-11.5,60.9-3.1,84.3,20.9c23.5,24,31.1,58.1,18.9,84.8c-0.5,1.2-1.6,2-2.9,2.2C2154.8,474.5,2154.6,474.5,2154.4,474.5z
						 M2063.1,371.6l89.8,92c7.6-22.9,0.1-50.6-19.5-70.8C2113.8,372.7,2086.2,364.6,2063.1,371.6z"/>
				</g>
				<g class="st59">
					<path class="st1" d="M2133.4,397.3c14,14.3,21.8,32.5,22.4,50c0.7-18.9-7.2-38.9-22.4-54.4c-19.7-20.1-47.2-28.3-70.3-21.2
						l3.4,3.5C2088.9,369.8,2114.7,378.1,2133.4,397.3z"/>
				</g>
				<g>
					<path class="st60" d="M2058.7,365.1l100.6,103.1c3.5,3.6,3.5,9.4-0.2,13l0,0c-3.6,3.5-9.4,3.5-13-0.2l-100.6-103.1
						c-3.5-3.6-3.5-9.4,0.2-13l0,0C2049.4,361.4,2055.2,361.5,2058.7,365.1z"/>
					<path class="st54" d="M2152.8,487.6c-3.4,0-6.8-1.3-9.3-3.9l-100.6-103.1c-5-5.1-4.9-13.4,0.2-18.5c5.2-5,13.4-4.9,18.5,0.2
						l100.6,103.1c2.4,2.5,3.8,5.8,3.7,9.3c0,3.5-1.4,6.7-3.9,9.2C2159.4,486.4,2156.1,487.6,2152.8,487.6z M2052.1,366.3
						c-1.3,0-2.7,0.5-3.7,1.5c-1,1-1.6,2.3-1.6,3.7c0,1.4,0.5,2.7,1.5,3.8L2149,478.3c2,2.1,5.4,2.1,7.5,0.1c1-1,1.6-2.3,1.6-3.7
						c0-1.4-0.5-2.7-1.5-3.8l-100.6-103.1l0,0C2054.9,366.8,2053.5,366.3,2052.1,366.3z"/>
				</g>
				<g class="st62">
					<path class="st1" d="M2048.4,372.2c1-1,2.3-1.5,3.7-1.5c0,0,0,0,0.1,0c1.4,0,2.7,0.6,3.7,1.6l100.6,103.1c0.4,0.4,0.8,1,1,1.5
						c0.9-1.9,0.6-4.3-1-5.9l-100.6-103.1c-1-1-2.3-1.6-3.7-1.6c0,0,0,0-0.1,0c-1.4,0-2.7,0.5-3.7,1.5c-1,1-1.6,2.3-1.6,3.7
						c0,0.8,0.2,1.6,0.5,2.3C2047.6,373.2,2048,372.6,2048.4,372.2z"/>
				</g>
				<g>
					<path class="st58" d="M2267.7,251.8l13.2,13.6c4.7,4.9,4.6,12.6-0.3,17.4l-0.9,0.8l-30.3-31.3l0.9-0.8
						C2255.3,246.9,2263,247,2267.7,251.8z"/>
					<path class="st54" d="M2279.9,287C2279.8,287,2279.8,287,2279.9,287c-0.9,0-1.8-0.4-2.4-1l-30.3-31.3c-1.3-1.3-1.2-3.4,0.1-4.7
						l3.9-3.8c4.5-4.4,11.7-4.3,16.1,0.2v0l19.1,19.7c2.1,2.2,3.3,5.1,3.2,8.1c0,3-1.3,5.9-3.5,8l-3.9,3.8
						C2281.6,286.6,2280.7,287,2279.9,287z M2254.2,252.5l25.7,26.5l1.5-1.5c0.9-0.9,1.4-2.1,1.4-3.3c0-1.3-0.5-2.5-1.3-3.4
						l-19.1-19.7v0c-1.8-1.9-4.8-1.9-6.7-0.1L2254.2,252.5z"/>
				</g>
				<g class="st59">
					<path class="st1" d="M2255.7,253.2c1.9-1.8,4.9-1.8,6.7,0.1l19.1,19.7c0.6,0.6,1,1.4,1.2,2.2c0.1-0.3,0.1-0.7,0.1-1.1
						c0-1.3-0.5-2.4-1.3-3.4l-19.1-19.7c-1.8-1.9-4.8-1.9-6.7-0.1l-1.5,1.5l1.1,1.1L2255.7,253.2z"/>
				</g>
				<g>
					<path class="st60" d="M2210.3,260.3l58.3,60.1c2.6,2.6,2.5,6.8-0.1,9.4l-70.5,68.4c-2.6,2.6-6.8,2.5-9.4-0.1l-58.3-60.1
						c-2.6-2.6-2.5-6.8,0.1-9.4l70.5-68.4C2203.6,257.6,2207.8,257.6,2210.3,260.3z"/>
					<path class="st54" d="M2193.4,404c-0.1,0-0.1,0-0.2,0c-2.8,0-5.4-1.2-7.4-3.2l-58.3-60.1c-4-4.2-3.9-10.8,0.2-14.9l70.5-68.4
						c2-2,4.7-3,7.5-3c2.8,0,5.4,1.2,7.4,3.2v0l58.3,60.1c2,2,3,4.7,3,7.5c0,2.8-1.2,5.4-3.2,7.4l-70.5,68.4
						C2198.7,402.9,2196.1,404,2193.4,404z M2205.6,262.1c-0.7,0-1.4,0.3-1.9,0.8l-70.5,68.4c-1.1,1.1-1.1,2.8-0.1,3.9l58.3,60.1
						c0.5,0.5,1.2,0.8,1.9,0.8c0.7,0,1.4-0.3,2-0.8l70.5-68.4c0.5-0.5,0.8-1.2,0.8-1.9c0-0.7-0.3-1.4-0.8-2l-58.3-60.1c0,0,0,0,0,0
						C2207,262.4,2206.4,262.1,2205.6,262.1C2205.6,262.1,2205.6,262.1,2205.6,262.1z"/>
				</g>
				<g class="st62">
					<path class="st1" d="M2204.8,269.6c0.5-0.5,1.2-0.8,1.9-0.8c0,0,0,0,0,0c0.7,0,1.4,0.3,1.9,0.8c0,0,0,0,0,0l56.4,58.1l0.8-0.8
						c1.1-1.1,1.1-2.8,0.1-3.9l-58.3-60.1c0,0,0,0,0,0c-0.5-0.5-1.2-0.8-1.9-0.8c0,0,0,0,0,0c-0.7,0-1.4,0.3-1.9,0.8l-70.5,68.4
						c-1.1,1.1-1.1,2.8-0.1,3.9l1.9,2L2204.8,269.6z"/>
				</g>
				<g>
					
						<ellipse transform="matrix(0.4668 -0.8844 0.8844 0.4668 867.2429 2092.6162)" class="st54" cx="2169" cy="327.1" rx="5.6" ry="5.6"/>
				</g>
				<g>
					
						<ellipse transform="matrix(0.4668 -0.8844 0.8844 0.4668 888.2814 2097.7183)" class="st54" cx="2183.8" cy="312.2" rx="5.6" ry="5.6"/>
				</g>
				<g class="st57">
					<circle class="st54" cx="2170.1" cy="330.4" r="5.6"/>
				</g>
				<g class="st57">
					<path class="st54" d="M2181,311.5c2.2-2.1,5.8-2.1,7.9,0.1c2.1,2.2,2.1,5.8-0.1,7.9c-2.2,2.1-5.8,2.1-7.9-0.1
						C2178.7,317.2,2178.8,313.7,2181,311.5z"/>
				</g>
				<g class="st62">
					<polygon class="st1" points="2163.5,366.6 2167.3,370.6 2242,298.5 2238.1,294.5 					"/>
				</g>
				<g>
					<line class="st63" x1="2159" y1="368.3" x2="2237.5" y2="292.4"/>
					<path class="st54" d="M2159,371c-0.7,0-1.4-0.3-2-0.8c-1.1-1.1-1-2.9,0.1-3.9l78.6-75.9c1.1-1.1,2.9-1,3.9,0.1
						c1.1,1.1,1,2.9-0.1,3.9l-78.6,75.9C2160.4,370.8,2159.7,371,2159,371z"/>
				</g>
				<g class="st57">
					<path class="st54" d="M2257.4,309.7l-33.1-34.3c-1.3-1.3-3.4-1.4-4.7-0.1l-11.8,11.4c-4.1,3.9-4.2,10.4-0.2,14.5l23.5,24.4
						c1.9,2,4.4,3.1,7.2,3.1c0.1,0,0.1,0,0.2,0c2.7,0,5.2-1,7.1-2.9l11.8-11.4C2258.6,313.1,2258.7,311,2257.4,309.7z"/>
				</g>
				<g>
					<path class="st61" d="M2223,273.3l33.1,34.3l-1.5,1.4c-8.4,8.1-21.9,7.9-30-0.5l-3.6-3.7c-8.1-8.4-7.9-21.9,0.5-30L2223,273.3z
						"/>
					<path class="st54" d="M2239.5,324.2c-0.1,0-0.1,0-0.2,0c-2.7,0-5.3-1.2-7.2-3.1l-23.5-24.4c-3.9-4.1-3.8-10.5,0.3-14.5
						l11.8-11.4c1.3-1.3,3.4-1.2,4.7,0.1l33.1,34.3c0.6,0.6,0.9,1.5,0.9,2.4c0,0.9-0.4,1.7-1,2.3l-11.8,11.4
						C2244.7,323.2,2242.2,324.2,2239.5,324.2z M2222.9,278l-9.4,9.1c-1.4,1.4-1.5,3.6-0.1,5l23.5,24.4c0.7,0.7,1.6,1.1,2.5,1.1
						c0.9,0,1.9-0.3,2.5-1l9.4-9.1L2222.9,278z"/>
				</g>
				<g class="st62">
					<path class="st1" d="M2213.5,291.5l7.8-7.6c0.9-0.8,2.3-0.8,3.1,0.1l24.8,25.6l2.2-2.1l-28.5-29.5l-9.4,9.1
						c-1.3,1.3-1.4,3.4-0.3,4.8C2213.3,291.7,2213.4,291.6,2213.5,291.5z"/>
				</g>
				<g>
					<g>
						<line class="st63" x1="2265.9" y1="291.4" x2="2275.5" y2="282.2"/>
						<path class="st54" d="M2265.9,293.7c-0.6,0-1.2-0.2-1.6-0.7c-0.9-0.9-0.8-2.3,0.1-3.1l9.6-9.2c0.9-0.9,2.3-0.8,3.1,0.1
							c0.9,0.9,0.8,2.3-0.1,3.1l-9.6,9.2C2267,293.5,2266.5,293.7,2265.9,293.7z"/>
					</g>
					<g>
						<line class="st63" x1="2258.3" y1="282.8" x2="2267.9" y2="273.5"/>
						<path class="st54" d="M2258.3,285c-0.6,0-1.2-0.2-1.6-0.7c-0.9-0.9-0.8-2.3,0.1-3.1l9.6-9.2c0.9-0.9,2.3-0.8,3.1,0.1
							c0.9,0.9,0.8,2.3-0.1,3.1l-9.6,9.2C2259.4,284.8,2258.9,285,2258.3,285z"/>
					</g>
					<g>
						<line class="st63" x1="2250.7" y1="274.1" x2="2260.3" y2="264.8"/>
						<path class="st54" d="M2250.7,276.3c-0.6,0-1.2-0.2-1.6-0.7c-0.9-0.9-0.8-2.3,0.1-3.1l9.6-9.2c0.9-0.9,2.3-0.8,3.1,0.1
							c0.9,0.9,0.8,2.3-0.1,3.1l-9.6,9.2C2251.8,276.1,2251.3,276.3,2250.7,276.3z"/>
					</g>
					<g>
						<line class="st63" x1="2243.1" y1="265.4" x2="2252.7" y2="256.2"/>
						<path class="st54" d="M2243.1,267.6c-0.6,0-1.2-0.2-1.6-0.7c-0.9-0.9-0.8-2.3,0.1-3.1l9.6-9.2c0.9-0.9,2.3-0.8,3.1,0.1
							c0.9,0.9,0.8,2.3-0.1,3.1l-9.6,9.2C2244.2,267.4,2243.7,267.6,2243.1,267.6z"/>
					</g>
				</g>
				<g class="st57">
					<g>
						<path class="st54" d="M2279.3,281.8c-0.9-0.9-2.3-0.9-3.1-0.1l-9.6,9.2c-0.9,0.9-0.9,2.3-0.1,3.1c0.4,0.5,1,0.7,1.6,0.7
							c0.6,0,1.1-0.2,1.5-0.6l9.6-9.2C2280.2,284,2280.2,282.6,2279.3,281.8z"/>
					</g>
					<g>
						<path class="st54" d="M2271.7,273.1c-0.9-0.9-2.3-0.9-3.1-0.1l-9.6,9.2c-0.9,0.9-0.9,2.3-0.1,3.1c0.4,0.5,1,0.7,1.6,0.7
							c0.6,0,1.1-0.2,1.5-0.6l9.6-9.2C2272.5,275.4,2272.6,274,2271.7,273.1z"/>
					</g>
					<g>
						<path class="st54" d="M2264.1,264.4c-0.9-0.9-2.3-0.9-3.1-0.1l-9.6,9.2c-0.9,0.9-0.9,2.3-0.1,3.1c0.4,0.5,1,0.7,1.6,0.7
							c0.6,0,1.1-0.2,1.5-0.6l9.6-9.2C2264.9,266.7,2264.9,265.3,2264.1,264.4z"/>
					</g>
					<g>
						<path class="st54" d="M2256.5,255.7c-0.9-0.9-2.3-0.9-3.1-0.1l-9.6,9.2c-0.9,0.9-0.9,2.3-0.1,3.1c0.4,0.5,1,0.7,1.6,0.7
							c0.6,0,1.1-0.2,1.5-0.6l9.6-9.2C2257.3,258,2257.3,256.6,2256.5,255.7z"/>
					</g>
				</g>
				<g class="st57">
					<path class="st54" d="M2168.8,285.4c0,0-13.3,6.7-21.1-2.2l-1.1,3.3l11.2,12.6l13.2-12.6L2168.8,285.4z"/>
				</g>
				<g class="st57">
					<path class="st54" d="M2267.5,320.9c0,0-74.3,54.3-136.4,12.2l-1.3,3.7l62.3,64l77.6-74.3L2267.5,320.9z"/>
				</g>
				<g class="st57">
					<path class="st54" d="M2250.9,307.5c0,0-23-1.4-41-19.8l-0.1,5.6c0,0,28.1,28,28.5,27.8c0.4-0.1,15.9-12.3,15.9-12.3
						L2250.9,307.5z"/>
				</g>
				<g class="st57">
					<path class="st54" d="M2275.3,306.5c0,0-15.5-5.5-56.8-43.1l-0.3,2.7l48.9,51.4L2275.3,306.5z"/>
				</g>
				<g class="st57">
					<path class="st54" d="M2283.1,272.1c0,0-5.5,0-29.9-21.1l-0.6,2.8l27.7,27.7C2280.3,281.6,2284.7,278.2,2283.1,272.1z"/>
				</g>
				<g class="st57">
					<path class="st54" d="M2126.5,344.6l53.4,55c0,0,5.1-5.4,4.2-4.9c-0.9,0.5-51.4-53.8-51.4-53.8L2126.5,344.6z"/>
				</g>
				<g class="st57">
					<path class="st54" d="M2153.3,386.4c0,0-11.1,3.3-22.2-5.5c-11.1-8.9,0,0,0,0l14.4,16.6l12.2-8.9L2153.3,386.4z"/>
				</g>
				<g class="st57">
					<path class="st54" d="M2158.9,426.3c0,0-28.8-5.5-89.8-58.8l-4.4,2.2l92,93.1C2156.6,462.9,2162.2,439.6,2158.9,426.3z"/>
				</g>
				<g class="st57">
					<path class="st54" d="M2160,471.7c0,0-94.3-77.6-115.3-100.9l1.1,6.7l101.1,104.6C2146.9,482.1,2165.5,485,2160,471.7z"/>
				</g>
				<g class="st57">
					<path class="st54" d="M2101.2,435.1c0,0-21.1,10-26.6,7.8l8.9,8.9l21.1-12.2L2101.2,435.1z"/>
				</g>
				<g class="st57">
					<path class="st54" d="M2081.2,450.7c0,0-6.7,15.5-23.3,12.2C2058,462.9,2085.7,479.5,2081.2,450.7z"/>
				</g>
			</g>
			<g>
				<g>
					
						<ellipse transform="matrix(0.9902 -0.1395 0.1395 0.9902 -27.1985 337.934)" class="st54" cx="2397" cy="363" rx="5.9" ry="5.9"/>
				</g>
				<g>
					<path class="st54" d="M2375.1,307.6c1.4-1.4,0.5-4.6-1.9-8.3c-0.7-1.1-0.7-2.5,0-3.6c2.4-3.7,3.3-6.9,1.9-8.3
						c-1.4-1.4-4.6-0.5-8.3,1.9c-1.1,0.7-2.5,0.7-3.6,0c-3.7-2.4-6.9-3.3-8.3-1.9c-1.4,1.4-0.5,4.6,1.9,8.3c0.7,1.1,0.7,2.5,0,3.6
						c-2.4,3.7-3.3,6.9-1.9,8.3c1.4,1.4,4.6,0.5,8.3-1.9c1.1-0.7,2.5-0.7,3.6,0C2370.5,308.1,2373.7,309,2375.1,307.6z"/>
				</g>
			</g>
		</g>
	</g>
</g>
</svg>
