<?xml version="1.0" encoding="utf-8"?>
<!-- Generator: Adobe Illustrator 22.0.0, SVG Export Plug-In . SVG Version: 6.00 Build 0)  -->
<svg version="1.1" id="Capa_1" xmlns="http://www.w3.org/2000/svg" xmlns:xlink="http://www.w3.org/1999/xlink" x="0px" y="0px"
	 viewBox="0 0 150 150" style="enable-background:new 0 0 150 150;" xml:space="preserve">
<style type="text/css">
	.st0{fill:#FEFEFE;}
	.st1{fill:#5D7093;}
	.st2{fill:#6FBADA;}
	.st3{fill:#C3E5ED;}
	.st4{fill:#0098D7;}
	.st5{fill:#0A9BD8;}
	.st6{fill:#0199D7;}
	.st7{fill:#0399D7;}
	.st8{fill:#51678C;}
	.st9{fill:#718FC7;}
	.st10{fill:#0198D7;}
	.st11{fill:#52678C;}
	.st12{fill:#0299D7;}
	.st13{fill:#6A7F87;}
	.st14{fill:#0173BD;}
	.st15{fill:#6B7F87;}
	.st16{fill:#7390C8;}
	.st17{fill:#0275BE;}
	.st18{fill:#6B7F88;}
	.st19{fill:#0274BE;}
	.st20{fill:#0174BE;}
	.st21{fill:#1099D5;}
	.st22{fill:#6D7E9C;}
	.st23{fill:#5C6F92;}
	.st24{fill:#647797;}
	.st25{fill:#0675BD;}
	.st26{fill:#596D90;}
	.st27{fill:#5F7294;}
	.st28{fill:#5D6F91;}
	.st29{fill:#0563B0;}
	.st30{fill:#647696;}
	.st31{fill:#5D7092;}
	.st32{fill:#607294;}
	.st33{fill:#607394;}
	.st34{fill:#657695;}
	.st35{fill:#677898;}
	.st36{fill:#657797;}
	.st37{fill:#617495;}
	.st38{fill:#7693CA;}
	.st39{fill:#A9DEEE;}
	.st40{fill:#73839F;}
	.st41{fill:#5B6F92;}
	.st42{fill:#617494;}
	.st43{fill:#6B7C98;}
	.st44{fill:#73839E;}
	.st45{fill:#70819D;}
	.st46{fill:#627495;}
	.st47{fill:#6F809C;}
	.st48{fill:#6B7C99;}
	.st49{fill:#74839E;}
	.st50{fill:#697A97;}
	.st51{fill:#6F7F9C;}
	.st52{fill:#627494;}
	.st53{fill:#687A99;}
	.st54{fill:#6D7D9A;}
	.st55{fill:#6B7B99;}
	.st56{fill:#F9F9FA;}
	.st57{fill:#556B8F;}
	.st58{fill:#1A92CE;}
	.st59{fill:#637595;}
	.st60{fill:#697997;}
	.st61{fill:#53688D;}
	.st62{fill:#697A99;}
	.st63{fill:#596C90;}
	.st64{fill:#687997;}
	.st65{fill:#228CC9;}
	.st66{fill:#8BA2CC;}
	.st67{fill:#BAC0CB;}
	.st68{fill:#6D7C98;}
	.st69{fill:#50678D;}
	.st70{fill:#6E7E9B;}
	.st71{fill:#677998;}
	.st72{fill:#566A8F;}
	.st73{fill:#52688E;}
	.st74{fill:#52688D;}
	.st75{fill:#C6CCD5;}
	.st76{fill:#F0F2F4;}
	.st77{fill:#D9DCE2;}
	.st78{fill:#7586A0;}
	.st79{fill:#B6BECA;}
	.st80{fill:#92A6CC;}
	.st81{fill:#C9CFD7;}
	.st82{fill:#A4A9B8;}
	.st83{fill:#66B6DB;}
	.st84{fill:#7ABFDD;}
	.st85{fill:#7EC0DC;}
	.st86{fill:#33A2DA;}
	.st87{fill:#C4CFDD;}
	.st88{fill:#76849E;}
	.st89{fill:#657796;}
	.st90{fill:#A7B6D4;}
	.st91{fill:#FAFBFB;}
	.st92{fill:#EFF1F3;}
	.st93{fill:#F7F8F9;}
	.st94{fill:#F3F4F5;}
	.st95{fill:#ECEFF2;}
	.st96{fill:#E2E5EA;}
	.st97{fill:#FBFCFC;}
	.st98{fill:#DCE0E7;}
	.st99{fill:#F1F2F4;}
	.st100{fill:#FCFDFD;}
	.st101{fill:#F8F9FA;}
	.st102{fill:#D4D9E0;}
	.st103{fill:#FAFBFC;}
	.st104{fill:#F4F6F7;}
	.st105{fill:#F3F4F7;}
	.st106{fill:#F3F4F6;}
	.st107{fill:#EAECF0;}
</style>
<g>
	<g>
		<path class="st0" d="M132.6,100.7c0,2.1,0,4.1,0,6.2c0,0.5-0.1,0.7-0.6,0.6c-0.2,0-0.4,0-0.6,0c-37.6,0-75.2,0-112.7,0
			c-0.9,0-1.1-0.2-1.1-1.1c0-16.7,0-33.4,0-50c0-0.9,0.1-1.1,1.1-1.1c32.5,0,65,0,97.5,0c0.1,0.1,0.1,0.2-0.1,0.3
			c-0.5,0.3-0.7,0.7-0.7,1.3c0,1,0,2.1,0,3.1c0,0.7,0.3,0.9,1,0.9c1.1,0,2.2,0,3.4,0c0.9,0,1.1-0.4,1.1-1.2c0-1.4-0.1-2.8,0.1-4.2
			c0.1-0.1,0.1-0.2,0.2-0.3c3.5,0,7.1,0,10.6,0c0.7,0,0.8,0.1,0.8,0.8c0,14.4,0,28.9,0,43.3c-0.3,0.1-0.5-0.1-0.7-0.2
			c-0.4-0.2-0.7-0.2-1,0.1c-0.3,0.4-0.4,0.8-0.2,1.3c0.1,0.4,0.4,0.6,0.8,0.7C132,101.3,132.1,100.6,132.6,100.7z"/>
		<path class="st1" d="M132.6,100.7c-0.4,0.5-0.8,1.2-1.6,0.8c-0.7-0.4-0.9-1.1-0.7-1.9c0.3-1,1.2-1.1,2.2-0.2
			C132.6,99.8,132.6,100.2,132.6,100.7z"/>
		<path class="st2" d="M121.2,55.2c0,0.1,0,0.2-0.1,0.3c-1.2,0.5-2.4,0.4-3.7,0.1c-0.1-0.1-0.2-0.2-0.1-0.4
			C118.7,55.2,119.9,55.2,121.2,55.2z"/>
		<path class="st3" d="M117.4,55.2c0,0.1,0,0.1,0,0.2c-0.4,0.4-0.7,0.4-1.1,0c0-0.1,0-0.1,0-0.2C116.7,55.2,117,55.2,117.4,55.2z"/>
		<path class="st4" d="M86.2,72.2c0,0.6,0,1.2,0,1.9c0,5.3,0,10.7,0,16c0,0.8-0.2,1.1-1.1,1.1c-2.2-0.1-4.4,0-6.6,0
			c-0.7,0-0.9-0.2-0.9-0.9c0-11.1,0-22.2,0-33.3c0-0.7,0.2-1,0.9-0.9c2.2,0,4.3,0.1,6.5,0c0.9,0,1.4,0.4,1.8,1.1
			c3.2,5.8,6.5,11.5,9.8,17.3c0.1,0.2,0.3,0.4,0.5,0.8c0-0.6,0-1,0-1.4c0-5.6,0-11.2,0-16.8c0-0.8,0.2-1.1,1.1-1.1
			c2.2,0.1,4.4,0,6.6,0c0.7,0,0.9,0.2,0.9,0.9c0,11.1,0,22.2,0,33.4c0,0.6-0.2,0.8-0.8,0.8c-2.4,0-4.7,0-7.1,0
			c-0.6,0-0.9-0.3-1.2-0.8c-2.3-4-4.5-8-6.8-12c-1.2-2.1-2.3-4.1-3.5-6.2C86.4,72.1,86.3,72.2,86.2,72.2z"/>
		<path class="st4" d="M52.9,73.5c0-5.4,0-10.9,0-16.3c0-0.9,0.2-1.2,1.1-1.1c2.3,0.1,4.6,0.1,6.9,0c0.9,0,1.1,0.3,1.1,1.1
			c0,8,0,16.1,0,24.1c0,1.1,0.3,1.4,1.4,1.4c4-0.1,7.9,0,11.9,0c0.9,0,1.1,0.3,1,1.1c-0.1,2.2,0,4.4,0,6.6c0,0.7-0.2,0.9-1,0.9
			c-7.1,0-14.3,0-21.4,0c-0.8,0-1-0.3-1-1C53,84.5,52.9,79,52.9,73.5z"/>
		<path class="st4" d="M32.8,56c3.4,0,6.8,0,10.2,0c0.9,0,1.5,0.3,2,1c0.7,0.8,1.3,1.7,2,2.5c0.4,0.4,0.5,0.8,0.5,1.3
			c0,1,0,1.9,0,2.9c0,0.7-0.2,0.9-0.9,0.9c-2.3,0-4.6,0-6.9,0c-4.2,0-8.4,0-12.6,0c-0.6,0-0.9-0.1-1.3-0.7c-1.1-1.7-2.6-2.1-4-0.2
			c-0.5,0.8-1,1-1.8,0.9c-1.9-0.1-1.9,0-1.9-1.9c0-0.1,0-0.3,0-0.4c-0.3-1.7,0.4-2.9,1.5-4.1c0.4-0.4,0.8-0.8,1.1-1.3
			c0.4-0.6,1-0.9,1.9-0.9C25.9,56.1,29.3,56,32.8,56z"/>
		<path class="st4" d="M42.6,85.4c1.2,0,2.5-0.1,3.7-0.1c1.2,0,1.6,0.7,1,1.7c-0.5,0.8-1.3,1.5-1.8,2.4c-0.9,1.5-2.3,1.7-3.9,1.7
			c-6-0.1-12-0.1-18,0c-1.4,0-2.5,0-3.3-1.4c-0.5-0.9-1.4-1.6-2-2.5c-0.7-1-0.3-1.8,0.9-1.8c5.4,0,10.8,0,16.2,0
			c0.4,0.2,0.3,0.7,0.4,1c0.4,1.4,1.6,2.5,2.8,2.5c1.4,0.1,2.6-0.7,3.2-2.1C42,86.4,42,85.7,42.6,85.4z"/>
		<path class="st4" d="M39.7,71.4c-2.2,0-4.4,0-6.6,0c-0.5,0-0.9-0.1-1.3-0.6c-0.7-1.1-2.7-1-3.5,0c-0.7,0.9-1.9,0.8-2.5-0.1
			c-0.9-1.4-3.2-1.5-4-0.1c-0.5,0.8-1,0.8-1.7,0.8c-2,0-2,0-2-2c0-0.2,0-0.4,0-0.7c0.1-0.7-0.4-1.8,0.2-2.1c0.7-0.5,1.8-0.1,2.7-0.2
			c0.3,0,0.4,0.2,0.5,0.4c1.3,2.4,3.3,2.3,4.5,0.1c0.2-0.4,0.4-0.4,0.8-0.4c6.7,0,13.4,0,20,0c0.6,0,0.8,0.2,0.8,0.8
			c0,1.1,0,2.2,0,3.4c0,0.6-0.2,0.8-0.8,0.8C44.3,71.4,42,71.4,39.7,71.4z"/>
		<path class="st5" d="M36.9,83c0,0.5-0.5,0.4-0.8,0.4c-5.8,0-11.6,0-17.3,0c-0.6,0-0.8-0.2-0.8-0.8c-0.1-2.7-0.1-2.7,2.6-2.7
			c3.2,0,6.5,0,9.7,0c0.3,0,0.6-0.1,0.8,0.1c-0.3,0.3-0.7,0.5-0.4,1.1c0.4,0.7,0.8,1.4,1.8,1.5c1,0.1,2.1,0,3.1,0
			C36,82.7,36.5,82.6,36.9,83z"/>
		<path class="st6" d="M30.3,78c-3.8,0-7.7,0-11.5,0c-0.5,0-0.7-0.1-0.7-0.7c0-1.1,0-2.2,0-3.4c0-0.2,0-0.4,0.1-0.5
			c0.3-0.4,3.1-0.1,3.3,0.4c0.5,0.9,1.1,1.6,2.2,1.6c1.1,0,1.8-0.7,2.2-1.7c0.3-0.6,0.7-0.4,1.1-0.5c0.4,0,0.6,0,0.7,0.5
			c0.4,1.6,1.4,2.3,3,2.1C30.8,76.6,30.4,77.3,30.3,78z"/>
		<path class="st7" d="M114.8,65.5c0,0.9,0,1.9,0,2.8c0,0.5-0.1,0.8-0.7,0.8c-1.5,0-3,0-4.5,0c-0.6,0-0.8-0.2-0.8-0.8
			c0-1.9,0-3.7,0-5.6c0-0.6,0.1-0.8,0.7-0.8c1.5,0,3,0,4.5,0c0.6,0,0.8,0.2,0.8,0.8C114.7,63.7,114.8,64.6,114.8,65.5z"/>
		<path class="st8" d="M121.7,73.4c0-0.9,0-1.9,0-2.8c0-0.3-0.1-0.7,0.4-0.7c1.7,0.1,3.3-0.4,5,0.3c0.5,0.2,0.7,0.4,0.7,1
			c0,1.7,0,3.3,0,5c0,0.6-0.2,0.8-0.8,0.8c-1.5,0-3.1,0-4.6,0c-0.5,0-0.7-0.2-0.7-0.7C121.7,75.3,121.7,74.4,121.7,73.4z"/>
		<path class="st9" d="M116.9,76.3c-1.8-0.3-1.8-0.3-1.8-2.1c0-1.2,0-2.4,0-3.6c0-0.6,0.2-0.8,0.8-0.8c1.5,0.1,2.9,0.1,4.4,0.1
			c0.7,0,0.9,0.2,0.9,0.9c0,1.8,0,3.6,0,5.4c0,0.6-0.2,0.9-0.8,0.8c-0.9,0-1.9,0-2.8-0.3C117.4,76.5,117.1,76.5,116.9,76.3z"/>
		<path class="st10" d="M32.1,74.7c0.2-1.3,1-1.4,2.1-1.4c3.9,0.1,7.9,0,11.9,0c0.4,0,0.8,0.1,1.2,0.1c0.3,1.3,0.1,2.5,0.1,3.8
			c0,0.5-0.3,0.6-0.7,0.6c-0.5-0.1-0.6-0.5-0.7-0.9c-0.8-1.6-1.6-2.1-3.4-1.9c-1.5,0.1-2.2,1.1-2.6,2.4c-0.1,0.2-0.1,0.4-0.3,0.6
			c-1,0-1.9,0-2.9,0c-0.3-0.4-0.2-1-0.6-1.4c-0.7-1-1.5-1.7-2.8-1.6C33,75,32.5,75.1,32.1,74.7z"/>
		<path class="st11" d="M127.7,81.4c-0.1,1,0.5,2.6-0.2,3.3c-0.7,0.7-2.3,0.2-3.5,0.2c-0.5,0-1,0-1.6,0c-0.3,0-0.6,0.2-0.7-0.3
			c-0.1-0.4,0.2-0.5,0.5-0.7c1.8-1.2,1.8-4.5-0.1-5.6c-0.2-0.1-0.5-0.3-0.4-0.6c0.1-0.4,0.4-0.3,0.6-0.3c1.6,0,3.1,0,4.7,0
			c0.5,0,0.7,0.2,0.7,0.7C127.7,79.2,127.7,80.2,127.7,81.4z"/>
		<path class="st6" d="M116.7,91.7c-0.1,0-0.3,0-0.4,0c-0.3-0.2-0.7-0.1-1-0.4c-0.3-1.8-0.1-3.6-0.1-5.3c0-0.5,0.3-0.5,0.7-0.5
			c1.6,0,3.1,0,4.7,0c0.5,0,0.6,0.2,0.6,0.7c0,1.6,0,3.3,0,4.9c0,0.6-0.3,0.8-0.8,0.8c-0.9,0-1.9,0-2.8-0.1
			C117.3,91.4,117,91.4,116.7,91.7z"/>
		<path class="st6" d="M116.3,55.4c0.4,0,0.7,0,1.1,0c1.3,0,2.5,0,3.8,0.1c0,1.7,0,3.3,0.1,5c0,0.6-0.2,0.7-0.8,0.7
			c-1.5,0-3,0-4.5,0c-0.6,0-0.8-0.2-0.8-0.8c0-1.3,0.1-2.6,0-3.9C115.2,55.7,115.5,55.4,116.3,55.4z"/>
		<path class="st12" d="M109.8,79c0.8,0,1.7,0,2.5-0.1c2-0.1,2-0.1,2.4,1.8c0.2,1.2,0,2.4,0.1,3.6c0,0.4-0.2,0.6-0.6,0.6
			c-1.6,0-3.2,0-4.8,0c-0.5,0-0.7-0.2-0.7-0.6c0-1.5,0-2.9,0-4.4C108.8,79.1,109.5,79.3,109.8,79z"/>
		<path class="st6" d="M122.1,91.7c-0.4,0-0.3-0.3-0.3-0.6c0-1.6,0-3.3,0-4.9c0-0.6,0.2-0.8,0.8-0.8c1.5,0,3,0,4.5,0
			c0.5,0,0.7,0.2,0.7,0.7c0,0.9,0,1.9,0,2.8c0,1-1,1.2-1.6,1.6c-0.9,0.5-2,0.7-3,0.8C122.8,91.5,122.4,91.4,122.1,91.7z"/>
		<path class="st13" d="M128.2,81.2c0-1,0-1.9,0-2.9c0-0.5,0.1-0.8,0.7-0.8c0.9,0,1.8,0,2.7,0c0.6,0,0.8,0.2,0.8,0.8
			c0.1,2,0,4-0.7,5.9c-0.2,0.6-0.6,0.8-1.2,0.8c-2.3,0-2.3,0-2.3-2.2C128.2,82.2,128.2,81.7,128.2,81.2z"/>
		<path class="st12" d="M124.4,56.1c0.3,0.1,0.5,0.1,0.8,0.2c2.5,0.8,3.2,1.9,2.5,4.5c-0.1,0.4-0.4,0.4-0.7,0.4c-1.5,0-3.1,0-4.6,0
			c-0.6,0-0.7-0.3-0.7-0.8c0-1.3,0.1-2.6,0-3.9c-0.1-1,0.3-1.2,1.2-1c0.2,0.1,0.4,0.1,0.5,0.1C123.7,56,124.1,55.8,124.4,56.1z"/>
		<path class="st8" d="M124.7,61.9c0.7,0,1.5,0,2.2,0c0.6,0,0.8,0.2,0.7,0.8c0,1,0.3,2.3-0.1,3.1c-0.5,0.9-1.8,0.2-2.7,0.5
			c-0.3,0.1-0.6,0.1-0.9,0.1c-0.8,0.1-1.2-0.1-1.3-1c-0.1-0.7-0.4-1.3-0.8-1.9c-0.6-0.9-0.2-1.5,0.9-1.5
			C123.4,61.9,124.1,61.9,124.7,61.9z"/>
		<path class="st10" d="M114.8,75.7c-2.1-1-4.2-1.8-5.6-3.7c-0.2-0.2-0.3-0.4-0.3-0.7c-0.1-1.3,0-1.4,1.2-1.4c1.3,0,2.7,0,4,0
			c0.4,0,0.7,0.1,0.7,0.6c0,0.2,0,0.4,0,0.7C114.8,72.6,114.8,74.1,114.8,75.7z"/>
		<path class="st14" d="M36.9,83c-1.4,0-2.8,0-4.2,0c-1.2,0-2.6-1.3-2.6-2.4c0-0.8,0.7-0.3,1-0.5c0.3,0.5,0.5,1,1,1.4
			c1.6,1.3,3.1,0.1,3.8-1.4c0.1-0.1,0.2-0.1,0.3-0.1c1.4,0.6,2.7,0.1,4.1,0c0.5,0.5,0.1,0.9-0.2,1.2c-0.2,0.3-0.6,0.6-0.9,0.8
			C38.3,82,37.6,82.3,36.9,83z"/>
		<path class="st15" d="M128.2,71.1c2.1,1.4,3.3,3.2,3.8,5.4c0.1,0.4,0,0.6-0.4,0.6c0,0-0.1,0-0.1,0c-3.3,0.3-3.3,0.3-3.3-3
			C128.2,73.1,128.2,72.2,128.2,71.1z"/>
		<path class="st16" d="M115.2,65.3c0.6,1.2,1.8,1.4,2.8,1.8c0.8,0.3,1.7,0.5,2.6,0.6c0.5,0.1,0.7,0.3,0.7,0.8
			c0,0.6-0.4,0.5-0.8,0.5c-1.5,0-3,0-4.5,0c-0.5,0-0.8-0.1-0.8-0.7C115.2,67.4,115.2,66.3,115.2,65.3z"/>
		<path class="st17" d="M42.6,85.4c-0.4,1-0.5,2.1-1.4,2.9c-1.1,1-2.4,1.3-3.7,0.7c-1.2-0.6-2.1-1.6-2.1-3.1c0-0.1,0-0.3,0-0.4
			c0.7-0.4,1,0,1.2,0.7c0.3,0.9,0.8,1.7,1.9,1.9c1.2,0.1,2.3-0.5,2.6-1.8C41.4,85.2,41.8,85.1,42.6,85.4z"/>
		<path class="st18" d="M128.2,64c0-0.1,0-0.2,0-0.3c0-1.8,0.2-2,2-1.7c0.3,0,0.5,0.1,0.6,0.4c0.4,1,0.5,2.1,0.7,3.1
			c0.1,0.3-0.1,0.5-0.5,0.5c-0.3,0-0.5,0-0.8,0C128.2,66,128.2,66,128.2,64z"/>
		<path class="st19" d="M32.1,74.7c1.5-0.1,3.1-0.2,4.1,1.4c0.4,0.6,0.7,1.2,0.5,2c-0.5,0.1-0.8,0-1.1-0.6c-1.1-2-3.1-2.1-4.2-0.1
			c-0.3,0.5-0.6,0.8-1.2,0.6c-0.3-0.8,0.2-1.4,0.4-2.1C31.3,75.7,31.8,75.2,32.1,74.7z"/>
		<path class="st20" d="M39.7,78c0.1-1.7,1.2-3.2,2.7-3.3c2.3-0.2,3.7,0.8,4.1,2.9c-0.3,0.3-0.6,0.2-1,0c-0.3-0.4-0.6-0.9-1-1.3
			c-0.7-0.7-2.2-0.4-3,0.3C40.9,77.1,40.9,78.3,39.7,78z"/>
		<path class="st21" d="M45.5,80c0.2-0.2,0.4-0.1,0.6-0.1c1-0.2,1.4,0.2,1.4,1.3c-0.1,2.2,0,2.2-2.2,2.2c-1.2,0-2.5,0-3.7,0
			c-0.3,0-0.7,0.2-0.7-0.4c0.3-0.4,0.8-0.3,1.2-0.3c0.5,0,1,0,1.4,0c1,0.1,1.6-0.4,2.1-1.2C46,81,46.1,80.5,45.5,80z"/>
		<path class="st22" d="M102.9,105.2c-0.1,0.4-0.2,0.9-0.3,1.3c-0.1,0.2-0.1,0.6-0.4,0.6c-0.3,0-0.4-0.3-0.4-0.6
			c-0.2-0.6-0.4-1.2-0.6-1.9c-0.1,0.9,0.1,1.7-0.2,2.5c-0.1,0-0.2,0-0.3,0c0-1.1,0-2.3,0-3.4c0-0.2,0.2-0.3,0.4-0.3
			c0.3,0,0.4,0.2,0.4,0.4c0.2,0.7,0.4,1.4,0.6,2.3c0.5-0.8,0.6-1.6,0.8-2.3c0.1-0.2,0.1-0.4,0.4-0.4c0.3,0,0.4,0.2,0.4,0.4
			c0,1,0,1.9,0,2.9c0,0.2-0.1,0.4-0.3,0.4c-0.2,0-0.2-0.2-0.3-0.4c0-0.5,0-1,0-1.4C103.1,105.2,103,105.2,102.9,105.2z"/>
		<path class="st23" d="M79.8,99.6c0-0.6,0-1,0-1.4c0-0.2,0-0.5,0.3-0.5c0.3,0,0.3,0.2,0.3,0.5c0,0.9,0,1.9,0,2.8
			c0,0.2,0,0.5-0.3,0.5c-0.3,0-0.4-0.1-0.5-0.3c-0.3-0.5-0.6-1.1-1-2c0,0.8,0,1.2,0,1.6c0,0.3,0.1,0.7-0.4,0.7
			c-0.4,0-0.3-0.4-0.3-0.6c0-0.9,0-1.7,0-2.6c0-0.2-0.1-0.5,0.2-0.6c0.3-0.1,0.5,0.1,0.6,0.3C79.1,98.6,79.2,99.1,79.8,99.6z"/>
		<path class="st24" d="M119.9,99.9c-0.3-1,0.3-1.2,1.2-1.2c0.5,0,1,0.2,1.5,0c0.3-0.1,0.6,0.2,0.7,0.6c0,0.1,0,0.2,0,0.3
			c-0.1,0.6,0.3,1.7-0.3,1.8c-0.8,0-0.2-1-0.4-1.6c-0.1-0.2,0-0.5-0.3-0.5c-0.2,0-0.3,0.2-0.3,0.4c0,0.4-0.1,0.9-0.1,1.3
			c0,0.2,0,0.4-0.3,0.4c-0.2,0-0.3-0.2-0.3-0.4c0-0.4,0-0.7,0-1.1c0-0.2,0.1-0.6-0.2-0.6c-0.4,0-0.3,0.4-0.3,0.7c0,0.3,0,0.5,0,0.8
			c0,0.3,0,0.7-0.4,0.7c-0.4,0-0.4-0.4-0.4-0.7C119.9,100.6,119.9,100.3,119.9,99.9z"/>
		<path class="st25" d="M45.5,80c1,0,1,0.4,0.7,1.3c-0.8,1.8-2.4,1.8-4,1.7c-0.1-0.4,0.2-0.9,0-1.3C43.7,81.9,44.8,81.5,45.5,80z"/>
		<path class="st26" d="M104.2,101.6c-0.5,0-0.9-0.1-1-0.6c-0.1-0.2-0.4-0.4-0.2-0.7c0.2-0.2,0.5-0.1,0.7,0.2c0.3,0.3,0.7,0.4,0.9,0
			c0.2-0.5-0.4-0.4-0.6-0.6c-0.2-0.3-0.5-0.3-0.7-0.5c-0.4-0.3-0.4-0.7-0.3-1.1c0.2-0.5,0.7-0.7,1.2-0.6c0.4,0,0.9,0.2,1,0.7
			c0,0.2,0.1,0.4-0.1,0.5c-0.2,0.1-0.5,0-0.6-0.2c-0.1-0.3-0.2-0.5-0.6-0.4c-0.2,0.1-0.3,0.2-0.3,0.4c0,0.3,0.3,0.4,0.6,0.4
			c0.8,0.1,1.2,0.6,1,1.4C105.2,101.1,104.9,101.6,104.2,101.6z"/>
		<path class="st27" d="M99,99.6c0,0.3,0.1,0.5,0,0.8c-0.1,0.4,0.4,1-0.5,1.1c-0.8,0.1-1.6,0.1-1.7-1c-0.2-1.2,0.1-1.6,1.2-1.7
			c0.6-0.1,0.3-0.4,0.3-0.6c0.1-0.2,0.1-0.4,0.4-0.4c0.2,0,0.3,0.2,0.3,0.4C99,98.7,99,99.1,99,99.6C99,99.6,99,99.6,99,99.6z"/>
		<path class="st28" d="M60.2,100.1c0,1.2-0.9,1.9-2,1.4c-0.2-0.1-0.2-0.3-0.2-0.5c0-0.9,0-1.9,0-2.8c0-0.2,0-0.5,0.3-0.5
			c0.3,0,0.4,0.2,0.3,0.4c0,0.5,0.1,0.5,0.6,0.5C60.1,98.7,60.3,99.4,60.2,100.1z"/>
		<path class="st1" d="M123.8,100.5c0-0.3,0-0.5,0-0.8c0.1-0.3-0.3-0.9,0.4-0.9c0.6,0,1.2-0.3,1.7,0.4c0.5,0.9,0,2.1-1,2.3
			c-0.1,0-0.2,0-0.3,0c-0.2,0.2,0,0.9-0.6,0.6c-0.4-0.2-0.1-0.7-0.2-1.1C123.8,100.9,123.8,100.7,123.8,100.5z"/>
		<path class="st29" d="M42.2,81.6c0.3,0.4,0.2,0.9,0,1.3c-0.4,0-0.8,0-1.3,0c-0.4-0.5-1-0.8-1.6-1c0.1-0.8,1.2-1,1.1-1.9
			c0.1-0.2,0.2-0.2,0.4,0C40.8,80.9,41.6,81.2,42.2,81.6z"/>
		<path class="st30" d="M113,100.1c-0.1,0.6,0,1.5-1.1,1.4c-0.9-0.1-1-0.9-1-1.6c0-0.7,0.3-1.3,1.1-1.2
			C112.8,98.8,113,99.4,113,100.1z"/>
		<path class="st31" d="M108.5,102.2c0-0.8,0.1-1.6,0-2.3c-0.2-1.2,0.6-1.2,1.2-1.2c0.8,0,1,0.6,1,1.3c0,1.2-0.5,1.6-1.5,1.3
			c-0.2,0.2-0.1,0.4-0.1,0.6C108.9,102.3,108.8,102.5,108.5,102.2z"/>
		<path class="st32" d="M82.9,100.3c0,1.2-0.3,1.4-1.4,1.2c-0.5-0.1-0.8-0.9-0.5-1.3c0.2-0.3,1.1-0.5,0-0.8
			c-0.2-0.1,0.1-0.4,0.3-0.6c0.3-0.2,0.7-0.2,1.1,0C83.1,99.2,82.8,99.8,82.9,100.3z"/>
		<path class="st33" d="M57.6,100.4c0.1,0.6,0.1,1.3-1,1.1c-0.4-0.1-0.8,0.1-0.9-0.4c-0.2-0.4-0.2-0.8,0.2-1.1
			c0.2-0.1,0.5-0.1,0.3-0.4c-0.1-0.2-0.9,0-0.4-0.6c0.3-0.3,0.7-0.4,1.1-0.3c0.4,0.1,0.7,0.4,0.6,0.9
			C57.6,99.9,57.6,100.1,57.6,100.4z"/>
		<path class="st34" d="M81.1,104.6c-0.3-0.3-0.5-0.5-0.7-0.5c-0.3-0.1-0.7-0.2-0.9,0.2c-0.2,0.5,0.3,0.5,0.6,0.6
			c0.3,0.1,0.6,0.2,0.8,0.5c0.5,0.5,0.5,1,0.2,1.5c-0.4,0.5-1,0.5-1.5,0.3c-0.6-0.2-0.8-0.6-0.6-1.2c0.4,0,0.4,0.3,0.5,0.5
			c0.2,0.4,0.5,0.3,0.8,0.3c0.3,0,0.4-0.3,0.4-0.6c0-0.4-0.2-0.5-0.6-0.6c-0.1,0-0.3-0.1-0.4-0.1c-0.5-0.3-0.9-0.7-0.8-1.3
			c0.1-0.6,0.5-0.9,1.1-0.9C80.8,103.3,81.1,103.7,81.1,104.6z"/>
		<path class="st35" d="M101.3,100.7c-0.1,0.7-0.5,1-1.2,0.8c-0.8-0.2-0.9-0.9-0.9-1.6c0-0.6,0.3-1.1,0.9-1.2c0.7-0.1,1,0.3,1.2,0.9
			c0.1,0.2,0,0.4,0.1,0.5c-0.2,0.3-0.5,0.1-0.7,0.2C101,100.4,101.3,100.2,101.3,100.7z"/>
		<path class="st33" d="M60.5,100.1c0-0.9,0.4-1.4,1.2-1.4c0.8,0,1.2,0.6,1.2,1.3c-0.1,0.7-0.3,1.5-1.2,1.5
			C60.7,101.6,60.7,100.7,60.5,100.1z"/>
		<path class="st33" d="M66.8,100.3c0.3,0.9-0.1,1.2-1,1.2c-0.4,0-0.7,0-0.8-0.4c-0.1-0.4-0.3-0.7,0.1-1c0.4-0.2,0.7-0.4,0-0.7
			c-0.2-0.1-0.1-0.3,0-0.5c0.3-0.3,0.6-0.3,0.9-0.3c0.3,0.1,0.7,0.2,0.7,0.6C66.8,99.6,66.8,99.9,66.8,100.3z"/>
		<path class="st27" d="M70.9,100.2c-0.2,0.5-0.2,1.3-1.1,1.4c-1,0-1.1-0.8-1.2-1.4c-0.1-0.8,0.3-1.3,1.1-1.4
			C70.5,98.7,70.9,99.2,70.9,100.2z"/>
		<path class="st36" d="M89.5,100.2c0-1.3,0-1.4,0.5-1.3c0.5,0,1.1-0.4,1.5,0.3c0.3,0.7,0.1,1.5,0.1,2.2c0,0.2-0.2,0.2-0.3,0.2
			c-0.2,0-0.3-0.1-0.3-0.3c0-0.4,0-0.8,0-1.2c0-0.3,0.1-0.7-0.3-0.7c-0.4,0-0.4,0.4-0.4,0.7c-0.1,0.3,0,0.6-0.1,0.9
			c0,0.2,0.1,0.6-0.3,0.6c-0.4,0-0.4-0.3-0.4-0.6C89.5,100.7,89.5,100.4,89.5,100.2z"/>
		<path class="st27" d="M86.7,100c0.1-0.8,0.5-1.3,1.3-1.3c0.8,0.1,1.2,0.7,1.1,1.4c-0.1,0.7-0.3,1.5-1.2,1.4
			C87,101.5,86.9,100.6,86.7,100z"/>
		<path class="st37" d="M76.4,100.1c-0.2,0.6-0.2,1.5-1.2,1.5c-0.9,0-1.1-0.8-1.1-1.5c-0.1-0.8,0.4-1.3,1.2-1.3
			C75.9,98.7,76.3,99.2,76.4,100.1z"/>
		<path class="st38" d="M115.3,82.2c0.7,1.1,1.4,1.9,2.6,2.2c0.2,0,0.3,0.2,0.3,0.4c0,0.2-0.2,0.1-0.4,0.1c-0.1,0-0.2,0-0.3,0
			C115,85,115,85,115.3,82.2z"/>
		<path class="st39" d="M109.8,79c-1.4,0.6-0.9,1.9-1,3c0,2.9,0,2.9,2.8,2.8c1,0,2.3,0.5,2.9-0.2c0.5-0.6,0.1-1.9,0.2-2.8
			c0-0.3,0-0.7,0-1c0.4,1.3,0.1,2.6,0.2,3.8c0,0.5-0.4,0.4-0.8,0.4c-1.6,0-3.1,0-4.7,0c-0.7,0-0.8-0.3-0.8-0.9c0-1.4,0.1-2.8,0-4.1
			C108.6,79.1,109,78.8,109.8,79z"/>
		<path class="st40" d="M73.8,103.4c0.2,1.1,0.1,2.3,0.1,3.4c0,0.5-0.5,0.2-0.7,0.3c-0.4,0.2-0.8,0-1.1-0.4
			c-0.6-0.9-0.1-2.2,0.9-2.4C73.7,104.3,73.1,103.6,73.8,103.4z"/>
		<path class="st37" d="M92.1,99.3c0.2-0.6,0.7-0.7,1.3-0.6c0.6,0.1,0.7,0.6,0.7,1.1c0,0.3,0,0.5,0,0.8c0,0.3,0.3,0.9-0.1,0.8
			c-0.5-0.1-1.1,0.4-1.6-0.1c-0.5-0.5-0.6-1,0.2-1.4C93.4,99.1,92.1,99.7,92.1,99.3z"/>
		<path class="st41" d="M119,98.9c0.9,0.5,0.8,1.2,0.4,2c-0.2,0.4-0.4,0.7-0.9,0.7c-0.5,0-0.8-0.3-1-0.7c-0.3-0.8-0.4-1.5,0.5-2
			C118.4,98.6,118.7,98.7,119,98.9z"/>
		<path class="st42" d="M53.1,99.6c0-0.4,0-0.9,0-1.3c0-0.2,0-0.5,0.3-0.5c0.3,0,0.3,0.3,0.3,0.5c0,0.4,0,0.7,0,1.1
			c-0.1,0.8-0.1,1.5,1.1,1.3c0.3-0.1,0.5,0.1,0.5,0.5c0,0.4-0.3,0.4-0.5,0.4C53.2,101.8,53.1,101.7,53.1,99.6z"/>
		<path class="st43" d="M96.5,103.5c0.2,1.1,0.1,2.2,0.1,3.4c0,0.5-0.5,0.3-0.7,0.3c-0.5,0.1-0.9,0-1.1-0.5c-0.5-1-0.1-2,1.1-2.2
			C96.5,104.3,95.8,103.5,96.5,103.5z"/>
		<path class="st44" d="M76.4,105.6c-0.2,0.6,0.1,1.6-1.1,1.5c-1,0-1-0.7-1.1-1.4c0-0.7,0.2-1.4,1.1-1.4
			C76.1,104.3,76.3,104.9,76.4,105.6z"/>
		<path class="st45" d="M93.2,105.6c-0.2,0.6,0.1,1.6-1.1,1.6c-0.9,0-1.1-0.7-1.1-1.4c0-0.7,0.2-1.4,1.1-1.4
			C92.9,104.3,93.1,105,93.2,105.6z"/>
		<path class="st46" d="M85.3,99.4c-0.4,0.5-1.3-0.8-1.3,0.5c0,0.5-0.1,1.1,0.8,0.6c0.2-0.1,0.4-0.1,0.5,0c0.2,0.2,0,0.3-0.1,0.5
			c-0.1,0.3-0.3,0.4-0.5,0.5c-0.7,0.2-1.1-0.2-1.2-0.8c-0.2-0.7-0.3-1.5,0.5-1.9C84.6,98.5,85.1,98.7,85.3,99.4z"/>
		<path class="st47" d="M105.4,104.4c0.7,0.5,1,1.7,0.6,2.4c-0.4,0.5-1.3,0.5-1.7,0c-0.5-0.7-0.3-1.8,0.5-2.4
			C105,104.3,105.2,104.3,105.4,104.4z"/>
		<path class="st27" d="M115,100.3c0-0.8,0.1-1.3,0.7-1.5c0.4-0.2,0.7-0.1,1.1,0.1c0.2,0.1,0.3,0.3,0.2,0.5
			c-0.1,0.2-0.3,0.2-0.5,0.1c-0.3-0.1-0.6-0.3-0.8,0c-0.2,0.3-0.2,0.7,0,1c0.3,0.4,0.6,0.2,0.8,0c0.1-0.1,0.3,0,0.4,0.1
			c0.1,0.1,0,0.3,0,0.4c-0.1,0.5-0.5,0.7-1,0.6C115.1,101.4,115.1,100.7,115,100.3z"/>
		<path class="st48" d="M87.4,106.3c0,0.7-0.4,0.9-1,0.9c-0.6,0-0.9-0.4-1-1c0-0.2,0-0.4,0-0.6c0-0.7,0.3-1.3,1.1-1.3
			c1,0.1,1.1,0.9,0.9,1.7c-0.2,0.2-0.6,0.1-0.8,0.3C86.9,106.4,87.1,106,87.4,106.3z"/>
		<path class="st49" d="M83.6,104.5c0,0.7,0,1.5,0,2.2c0,0.7-0.6,0.2-0.8,0.4c-0.4,0.2-0.8,0.1-1-0.4c-0.2-0.6-0.2-1.2-0.2-1.9
			c0-0.2,0.1-0.4,0.3-0.3c0.1,0,0.2,0.2,0.2,0.3c0,0.4,0,0.7,0,1.1c0,0.3-0.1,0.8,0.4,0.8c0.5,0,0.5-0.5,0.6-0.8
			c0.1-0.5-0.1-1,0.2-1.4C83.4,104.5,83.5,104.5,83.6,104.5z"/>
		<path class="st50" d="M99,106.1c0.1,0.6-0.1,1.2-1,1.1c-1-0.1-1-0.8-1-1.5c0-0.7,0.3-1.3,1.1-1.3C99,104.4,99.1,105.1,99,106.1z"
			/>
		<path class="st51" d="M111.6,104.9c0.5-0.5,1.1-1,1.8-0.3c0.6,0.6,0.5,1.5,0,2.1c-0.5,0.6-1.2,0.5-1.7-0.1
			C111.3,106.2,111.1,105.6,111.6,104.9z"/>
		<path class="st52" d="M129.4,98c0.2-0.1,0.4,0,0.3,0.1c-0.3,0.5,0.7,0.7,0.3,1.3c-0.4,0.5-0.4,1,0,1.5c0.2,0.3,0.3,0.6-0.1,0.7
			c-0.3,0.1-0.5,0-0.7-0.2c-0.2-0.3-0.3-2.8-0.1-3.1C129.2,98.1,129.3,98,129.4,98z"/>
		<path class="st53" d="M107.8,98.9c0.4,0.7,0.1,1.5,0.2,2.3c0,0.3-0.2,0.5-0.4,0.4c-0.5-0.3-1.2,0.5-1.6-0.3
			c-0.1-0.3-0.2-0.7-0.2-1c0-0.5-0.3-1.3,0.3-1.3c0.7,0,0.3,0.8,0.4,1.2c0,0.5,0.2,0.7,0.7,0.6c0.3,0.1,0.4,0.1,0.5-0.3
			C107.6,99.9,107.4,99.3,107.8,98.9z"/>
		<path class="st37" d="M67.8,97.9c0.3,0.6,0.5,1.2,0.2,1.9c-0.2,0.4,0,0.8,0.3,1.1c0.1,0.2,0.1,0.5-0.1,0.6
			c-0.2,0.1-0.4,0.1-0.6-0.1C67,100.9,67.2,98.4,67.8,97.9z"/>
		<path class="st54" d="M87.8,106.2c0.4,0,0.4,0.4,0.5,0.5c0.2,0.2,0.5,0.2,0.7-0.1c0.2-0.3,0-0.5-0.3-0.6c-0.2,0-0.4-0.1-0.5-0.2
			c-0.5-0.2-0.5-0.6-0.4-1c0.1-0.4,0.5-0.6,0.9-0.5c0.5,0.1,0.9,0.3,0.6,0.9c-0.3,0-0.3-0.3-0.5-0.4c-0.2-0.1-0.4-0.2-0.6,0.1
			c-0.1,0.2,0,0.4,0.2,0.5c0.1,0.1,0.3,0.1,0.4,0.2c0.6,0.1,0.8,0.5,0.6,1c-0.1,0.5-0.6,0.7-1,0.6C88,107.1,87.7,106.8,87.8,106.2z"
			/>
		<path class="st55" d="M108.2,104.4c-0.8,1-0.2,1.8,0.1,2.7c-0.7,0.1-0.6-0.6-1-0.8c-0.4,0.2-0.2,0.8-1,0.8
			c0.5-0.9,0.7-1.8,0.1-2.7C107.1,104.8,107.6,105.1,108.2,104.4z"/>
		<path class="st56" d="M111.6,104.9c-0.1,0.6,0,1.2,0.1,1.8c-0.1,0-0.2,0-0.3,0c-1.3,0.4-1.6,0.3-1.6-0.6c0-0.5-0.1-1,0.3-1.4
			c0.5-0.5,0.8,0.2,1.3,0.2C111.5,104.9,111.6,104.9,111.6,104.9z"/>
		<path class="st57" d="M95.2,99.7c0,0.4,0,0.9,0,1.3c0,0.2-0.1,0.5-0.3,0.5c-0.3,0-0.3-0.2-0.3-0.5c0-0.9,0-1.9,0-2.8
			c0-0.2,0-0.5,0.3-0.5c0.4,0,0.4,0.3,0.4,0.6C95.2,98.8,95.2,99.2,95.2,99.7z"/>
		<path class="st58" d="M40.7,80.1c-0.1,0-0.3,0-0.4,0c-0.1,0-0.2,0-0.2,0c-1.4,0.7-2.8,0.7-4.2,0C37.5,79.8,39.1,79.8,40.7,80.1z"
			/>
		<path class="st59" d="M113.4,100c-0.2-0.7,0-1.3,1.1-1.3c0.2,0,0.3,0.1,0.4,0.2c0.1,0.2,0,0.3-0.2,0.4c-0.8,0.2-0.5,0.8-0.6,1.2
			c-0.1,0.3,0.3,1-0.4,1c-0.5,0-0.2-0.7-0.3-1C113.4,100.3,113.4,100.2,113.4,100z"/>
		<path class="st60" d="M111.4,104.9c0,0.4-0.2,0.7-0.5,0.2c-0.2-0.4-0.5-0.5-0.8-0.2c-0.4,0.5-0.4,1.2,0,1.7
			c0.3,0.3,0.6,0.2,0.7-0.3c0-0.1,0.2-0.4,0.4-0.2c0.1,0.1,0.1,0.3,0.1,0.5c-0.5,0.6-1.1,0.7-1.6,0.1c-0.4-0.4-0.3-1.8,0.1-2.2
			C110.5,104.1,111,104.3,111.4,104.9z"/>
		<path class="st61" d="M63.2,99.9c-0.1-0.6-0.1-1.3,1-1.2c0.1,0,0.3,0.1,0.4,0.2c0.1,0.1,0.1,0.3-0.1,0.4c-0.9,0.2-0.6,1-0.7,1.5
			c0,0.3,0.1,0.7-0.3,0.7c-0.4,0-0.3-0.4-0.3-0.7C63.2,100.5,63.2,100.3,63.2,99.9z"/>
		<path class="st62" d="M127.9,101.3c-0.5,0.1-1,0.5-1.3-0.2c-0.3-0.7-0.4-1.5-0.1-2.3c0.1-0.3,0.5-0.2,0.5,0.2c0,0.3,0,0.7,0,1
			c0,0.4,0.1,0.8,0.6,0.6C128,100.8,128.1,101,127.9,101.3z"/>
		<path class="st61" d="M127.9,101.3c-0.1-0.2-0.1-0.4-0.2-0.6c0-0.5,0.1-1,0.1-1.6c0-0.2,0.1-0.4,0.3-0.4c0.1,0,0.3,0.1,0.3,0.2
			c0,0.8,0,1.6,0,2.3C128.4,101.6,128.1,101.6,127.9,101.3z"/>
		<path class="st63" d="M72.6,99.1c-0.9,0.2-0.7,1-0.7,1.6c0,0.3,0.2,0.8-0.3,0.7c-0.4,0-0.2-0.5-0.3-0.7c0-0.2,0-0.4,0-0.6
			c-0.2-1,0.1-1.6,1.3-1.5C72.7,98.8,72.7,99,72.6,99.1z"/>
		<path class="st64" d="M91,107.1c-1.1-0.2-1.3-2.1-0.7-3.6C91.2,104.6,89.9,106,91,107.1z"/>
		<path class="st65" d="M45.4,77.6c0.3,0,0.6,0,1,0c0.7,0.1,0.9-0.2,0.9-0.9c0-1.1,0-2.2,0-3.3c0.4,1.4,0.1,2.8,0.2,4.2
			c0,0.3-0.1,0.5-0.4,0.4C46.5,77.9,45.8,78.5,45.4,77.6z"/>
		<path class="st66" d="M115.3,63.8c-0.2-2-0.2-2,1.9-1.8C116.2,62.4,115.8,63.2,115.3,63.8z"/>
		<path class="st67" d="M72.6,99.1c0-0.1-0.1-0.3-0.1-0.4c0.4,0,0.5-0.4,0.8-0.9c0.5,1.3,0.7,2.5,0.1,3.7c-0.3-0.5-0.1-1.2-0.2-1.6
			c-0.1,0.4,0.2,1.1-0.2,1.6c-0.5-0.3-0.2-0.8-0.3-1.2C72.8,99.9,73,99.5,72.6,99.1z"/>
		<path class="st68" d="M84.3,107.1c-0.3-0.8-0.2-1.6-0.2-2.3c0-0.5,0.5-0.2,0.7-0.4c0.2-0.1,0.4-0.1,0.5,0.1
			c0.2,0.4-0.3,0.3-0.4,0.5C84.3,105.6,84.7,106.4,84.3,107.1z"/>
		<path class="st69" d="M77,107.1c-0.4-0.9-0.4-2.8,0-3.9C77,104.7,77,105.9,77,107.1z"/>
		<path class="st70" d="M108.9,107.1c-0.4-0.8-0.2-1.7-0.1-2.6C109.2,105.4,109.1,106.2,108.9,107.1z"/>
		<path class="st71" d="M124,69.1c-0.6,0-1.2,0-1.9,0c-0.2,0-0.4-0.1-0.4-0.4c0-0.4,0.2-0.4,0.5-0.3c0.6,0.2,1.2,0.3,1.8,0.5
			C124,69,124,69,124,69.1z"/>
		<path class="st72" d="M73.1,101.5c0-0.9-0.2-1.7,0.2-2.9c0.4,1.1,0.2,2,0.2,2.9C73.3,101.5,73.2,101.5,73.1,101.5z"/>
		<path class="st73" d="M86.2,101.5c-0.6,0-0.4-0.5-0.4-0.8c0-0.6,0-1.2,0-1.8c0.3-0.2,0.5-0.1,0.5,0.3
			C86.3,99.9,86.6,100.8,86.2,101.5z"/>
		<path class="st74" d="M107.8,98.9c0,0.7,0,1.5,0,2.4c-0.3-0.3-0.5-0.4-0.7-0.6c0.4-0.4,0.1-1,0.2-1.4
			C107.4,99,107.3,98.6,107.8,98.9z"/>
		<path class="st75" d="M86.2,101.5c0.2-0.7,0.1-1.4,0.1-2.1c0-0.3-0.1-0.6-0.5-0.5c0-0.2,0-0.5,0-0.7c0.2-0.2,0.4-0.2,0.6,0
			C86.4,99.3,86.9,100.4,86.2,101.5z"/>
		<path class="st76" d="M87.4,106.3c-0.3-0.1-0.4,0.1-0.6,0.3c-0.2,0.2-0.4,0.3-0.7,0.1c-0.1-0.1-0.3-0.4-0.2-0.6
			c0.1-0.3,0.4-0.1,0.6-0.1c0.3,0,0.6,0,0.9,0C87.4,106.1,87.4,106.2,87.4,106.3z"/>
		<path class="st77" d="M101.3,100.7c-0.3-0.3-0.5-0.1-0.7,0.1c-0.2,0.1-0.5,0-0.5-0.2c-0.1-0.4,0.3-0.2,0.4-0.3
			c0.3,0,0.6-0.1,1-0.1C101.5,100.4,101.5,100.5,101.3,100.7z"/>
		<path class="st78" d="M105.4,104.4c-0.2,0-0.4,0-0.6,0c0-0.1,0.1-0.2,0.1-0.3c0.1-0.3,0-0.8,0.5-0.7c0.5,0.1,0,0.5,0,0.8
			C105.4,104.3,105.4,104.4,105.4,104.4z"/>
		<path class="st79" d="M92.1,99.3c0.1,0,0.2,0,0.3,0c0.3,0,0.7-0.4,0.8,0.1c0.1,0.2-0.3,0.6-0.7,0.6C92.7,99.6,92.1,99.6,92.1,99.3
			z"/>
		<path class="st80" d="M120,62c0.5,0,0.9-0.2,1.2,0.2c0,0.1-0.1,0.3-0.1,0.3C120.7,62.4,120.4,62.3,120,62z"/>
		<path class="st81" d="M108.5,102.2c0.7,0.1,0.3-0.7,0.7-0.8c0,0.3,0,0.7,0,1c0,0.2-0.2,0.3-0.4,0.3
			C108.5,102.6,108.5,102.4,108.5,102.2z"/>
		<path class="st82" d="M119,98.9c-0.3,0-0.7,0-1,0c0.1-0.2,0.2-0.4,0.3-0.6c0.1-0.1,0.3-0.1,0.4,0C118.7,98.5,118.9,98.6,119,98.9z
			"/>
		<path class="st83" d="M124.4,56.1c-0.4,0-0.8,0.2-0.9-0.4C123.8,55.6,124.3,55.5,124.4,56.1z"/>
		<path class="st84" d="M122.1,91.7c0.1-0.6,0.6-0.4,0.9-0.4C122.9,91.9,122.4,91.7,122.1,91.7z"/>
		<path class="st85" d="M115.4,91.3c0.4,0,0.8-0.2,1,0.4C116,91.6,115.5,92,115.4,91.3z"/>
		<path class="st86" d="M116.7,91.7c0.3-0.6,0.6-0.6,0.9,0C117.3,91.7,117,91.7,116.7,91.7z"/>
		<path class="st87" d="M120.5,84.9c0.2-0.2,0.2-0.6,0.6-0.5c0,0,0.1,0.2,0.1,0.3C121.1,85.1,120.8,85,120.5,84.9z"/>
		<path class="st52" d="M118.7,98.2c-0.1,0-0.3,0-0.4,0c0-0.4,0.2-0.7,0.6-0.5C119.1,97.8,118.8,98,118.7,98.2z"/>
		<path class="st88" d="M109.1,103.8c0,0,0,0.2-0.2,0.2c-0.1,0-0.2-0.1-0.2-0.2c0-0.1,0-0.3,0.1-0.4
			C109,103.4,109.1,103.5,109.1,103.8z"/>
		<path class="st89" d="M86.4,98.2c-0.2,0-0.4,0-0.6,0c0-0.2-0.1-0.4,0.3-0.5C86.4,97.7,86.5,97.9,86.4,98.2z"/>
		<path class="st90" d="M116.9,76.3c0.3,0,0.6,0,0.7,0.4C117.3,76.8,117,76.7,116.9,76.3z"/>
		<path class="st91" d="M132,100c0,0.4,0,0.7-0.5,0.7c-0.4,0-0.4-0.3-0.4-0.6c0-0.3,0-0.7,0.5-0.7C132,99.3,132,99.7,132,100z"/>
		<path class="st92" d="M97.4,100c0-0.4,0-0.8,0.5-0.7c0.4,0,0.4,0.4,0.4,0.7c0,0.3,0,0.7-0.5,0.7C97.3,100.7,97.5,100.3,97.4,100z"
			/>
		<path class="st93" d="M59.6,99.9c0,0.5,0,0.8-0.4,0.8c-0.6,0-0.5-0.4-0.5-0.8c0-0.3,0.1-0.6,0.5-0.6
			C59.6,99.3,59.6,99.7,59.6,99.9z"/>
		<path class="st0" d="M124.5,100c0-0.3,0-0.6,0.4-0.7c0.5,0,0.4,0.4,0.4,0.7c0,0.3,0,0.6-0.4,0.7
			C124.4,100.7,124.6,100.3,124.5,100z"/>
		<path class="st94" d="M110,100c0,0.3,0,0.7-0.5,0.7c-0.4,0-0.4-0.3-0.4-0.6c0-0.3,0-0.7,0.5-0.7C110,99.3,110,99.7,110,100z"/>
		<path class="st95" d="M82.2,100.4c0,0.2-0.2,0.4-0.4,0.4c-0.2,0-0.3-0.1-0.3-0.3c0-0.1,0.2-0.2,0.3-0.3
			C82,100.2,82.2,100.3,82.2,100.4z"/>
		<path class="st96" d="M56.5,100.8c-0.2,0-0.3-0.1-0.2-0.3c0-0.2,0.2-0.3,0.4-0.3c0.2,0,0.3,0.1,0.2,0.3
			C56.9,100.7,56.7,100.8,56.5,100.8z"/>
		<path class="st97" d="M62.2,100c0,0.3,0,0.7-0.5,0.7c-0.4,0-0.5-0.3-0.5-0.6c0-0.3,0-0.7,0.5-0.7C62.2,99.3,62.1,99.7,62.2,100z"
			/>
		<path class="st98" d="M65.8,100.8c-0.2,0-0.3-0.1-0.3-0.2c0-0.3,0.3-0.3,0.5-0.4c0.1,0,0.2,0.1,0.2,0.1
			C66.2,100.6,66,100.8,65.8,100.8z"/>
		<path class="st97" d="M69.8,99.3c0.5,0.1,0.4,0.5,0.4,0.8c0,0.3,0,0.6-0.4,0.6c-0.4,0-0.5-0.3-0.5-0.7
			C69.2,99.6,69.4,99.3,69.8,99.3z"/>
		<path class="st99" d="M87.9,99.3c0.4,0,0.6,0.3,0.6,0.7c0,0.3,0,0.7-0.5,0.7c-0.4,0-0.5-0.3-0.5-0.6
			C87.5,99.7,87.5,99.4,87.9,99.3z"/>
		<path class="st100" d="M75.2,99.3c0.5,0,0.5,0.4,0.5,0.7c0,0.3-0.1,0.6-0.4,0.7c-0.4,0-0.6-0.3-0.6-0.6
			C74.7,99.7,74.7,99.4,75.2,99.3z"/>
		<path class="st101" d="M73.5,105.8c-0.2,0.3,0,1-0.6,1c-0.6,0-0.5-0.6-0.5-1c0-0.4-0.1-1,0.5-1C73.4,104.8,73.3,105.4,73.5,105.8z
			"/>
		<path class="st102" d="M93.3,100.5c0,0.2-0.1,0.3-0.3,0.4c-0.2,0.1-0.4-0.1-0.4-0.3c0-0.1,0.2-0.2,0.4-0.3
			C93.2,100.2,93.3,100.3,93.3,100.5z"/>
		<path class="st91" d="M118.5,99.3c0.4,0,0.5,0.3,0.5,0.7c0,0.3,0,0.7-0.5,0.7c-0.5,0-0.5-0.3-0.5-0.7
			C118,99.7,118,99.4,118.5,99.3z"/>
		<path class="st56" d="M96.2,105.8c-0.1,0.4-0.1,1-0.6,1c-0.4,0-0.5-0.6-0.5-1c0-0.4,0-1,0.6-1C96.2,104.8,96.1,105.4,96.2,105.8z"
			/>
		<path class="st0" d="M75.3,105.6c-0.2,0-0.5,0-0.4-0.3c0-0.3,0.2-0.5,0.5-0.5c0.3,0,0.4,0.3,0.4,0.5
			C75.7,105.6,75.5,105.5,75.3,105.6z"/>
		<path class="st0" d="M75.8,106.2c0,0.3-0.1,0.6-0.4,0.6c-0.2,0-0.4,0-0.5-0.3c-0.1-0.4,0.2-0.4,0.4-0.4
			C75.5,106,75.7,106,75.8,106.2z"/>
		<path class="st103" d="M92.5,105.2c0,0.5-0.3,0.4-0.5,0.4c-0.2,0-0.5,0.1-0.4-0.3c0-0.3,0.2-0.5,0.5-0.5
			C92.4,104.7,92.5,104.9,92.5,105.2z"/>
		<path class="st104" d="M92.2,106c0.2,0,0.5-0.1,0.4,0.3c0,0.3-0.1,0.5-0.4,0.5c-0.3,0-0.5-0.1-0.5-0.4C91.6,106,91.9,106,92.2,106
			z"/>
		<path class="st0" d="M105.6,105.3c0.1,0.4-0.2,0.3-0.4,0.3c-0.2,0-0.6,0.1-0.5-0.4c0-0.3,0.2-0.5,0.5-0.5
			C105.4,104.8,105.6,105,105.6,105.3z"/>
		<path class="st105" d="M105.6,106c-0.1,0.6-0.2,0.8-0.5,0.8c-0.3,0-0.5-0.1-0.5-0.5c0-0.4,0.3-0.3,0.5-0.3
			C105.4,106,105.6,106,105.6,106z"/>
		<path class="st106" d="M86.4,105.6c-0.2-0.1-0.6,0.2-0.5-0.3c0-0.3,0.2-0.6,0.6-0.5c0.3,0,0.5,0.2,0.5,0.5
			C87,105.7,86.7,105.6,86.4,105.6z"/>
		<path class="st104" d="M98,105.6c-0.2,0-0.6,0.1-0.5-0.4c0-0.3,0.2-0.5,0.5-0.5c0.3,0,0.5,0.2,0.6,0.5
			C98.6,105.7,98.2,105.5,98,105.6z"/>
		<path class="st107" d="M98.6,106.2c0,0.4-0.2,0.6-0.5,0.6c-0.3,0-0.5-0.2-0.6-0.5c0-0.3,0.3-0.3,0.5-0.3
			C98.2,106,98.5,105.9,98.6,106.2z"/>
		<path class="st101" d="M113.3,105.7c-0.1,0.4,0.1,1-0.5,1.1c-0.6,0.1-0.6-0.6-0.6-0.9c0-0.4,0-1.1,0.7-1.1
			C113.3,104.8,113.1,105.4,113.3,105.7z"/>
	</g>
</g>
</svg>
