<?xml version="1.0" encoding="utf-8"?>
<!-- Generator: Adobe Illustrator 22.0.0, SVG Export Plug-In . SVG Version: 6.00 Build 0)  -->
<svg version="1.1" id="Capa_1" xmlns="http://www.w3.org/2000/svg" xmlns:xlink="http://www.w3.org/1999/xlink" x="0px" y="0px"
	 viewBox="0 0 150 150" style="enable-background:new 0 0 150 150;" xml:space="preserve">
<style type="text/css">
	.st0{fill:#FEFEFE;}
	.st1{fill:#0D3590;}
	.st2{fill:#0D318B;}
	.st3{fill:#0F338E;}
	.st4{fill:#0E328C;}
	.st5{fill:#10348F;}
	.st6{fill:#0E328D;}
	.st7{fill:#0E338C;}
	.st8{fill:#10348D;}
	.st9{fill:#11348D;}
	.st10{fill:#0D328B;}
	.st11{fill:#0F338D;}
	.st12{fill:#EEF3F4;}
	.st13{fill:#142D6D;}
	.st14{fill:#091232;}
	.st15{fill:#122C71;}
	.st16{fill:#485982;}
	.st17{fill:#455388;}
	.st18{fill:#444F7E;}
	.st19{fill:#FAFBFA;}
	.st20{fill:#F9FAF9;}
	.st21{fill:#F8F9F8;}
	.st22{fill:#F6F8F7;}
	.st23{fill:#091333;}
	.st24{fill:#081331;}
	.st25{fill:#0B1330;}
	.st26{fill:#122861;}
	.st27{fill:#0A1337;}
	.st28{fill:#0D2156;}
	.st29{fill:#F6F7F7;}
	.st30{fill:#FCFDFD;}
	.st31{fill:#F7F9F8;}
	.st32{fill:#354589;}
	.st33{fill:#D9EBF0;}
</style>
<g>
	<g>
		<path class="st0" d="M75.3,100.8c-24.5,0-49,0-73.5,0c-1.2,0-1.5-0.2-1.5-1.5c0.1-13.7,0-27.3,0-41c0-1,0.1-1.3,1.3-1.3
			c49.2,0,98.4,0,147.6,0c1,0,1.2,0.2,1.2,1.2c0,13.8-0.1,27.6,0,41.4c0,1.3-0.5,1.2-1.4,1.2C124.5,100.8,99.9,100.8,75.3,100.8z"/>
		<path class="st1" d="M31.9,92.5c0-0.4,0.4-0.8,0-1.2c-4.7,4.5-10.6,5.4-16.8,5.6c-0.5,0-1.1,0.1-1.4-0.5c0-0.4,0.2-0.6,0.6-0.7
			c1,0.1,1.9-0.4,2.9-0.1c2.9,0.1,5.5-0.9,8.1-2c2.6-1.1,5-2.6,6.8-4.8c0.6-0.7,1-1.5,1.4-2.3c0.3-1.1,1.3-2.1,0.5-3.3
			c-1.7,2.3-3.3,4.7-5.7,6.4c-1.5,1-3.1,1.9-4.7,2.6c-0.4,0.2-0.9,0.4-1.4,0c-0.1-1,0.7-1.4,1.3-1.8c2.3-1.4,4.2-3.3,5.9-5.2
			c2.3-2.6,3.7-5.5,2.9-9.1c0-0.2-0.1-0.3-0.3-0.4c-0.9-0.2-0.7,0.6-0.9,1c-0.6,1.6-1.3,3-2.1,4.5c-0.3,0.6-0.6,1.3-1.5,1.3
			c-0.4-0.3-0.6-0.7-0.5-1.2c1.3-2.6,2.4-5.2,2.3-8.2c0-0.8,0-1.5-0.5-2.2c-0.4-0.2-0.5-0.7-1-1c-0.6,3.8-1.7,7.4-3.6,10.7
			c-1,1.7-1.8,3.7-3.6,4.8c-0.4-0.1-0.9,0.2-1.1-0.4c0.4-2,1.8-3.5,2.7-5.2c1.7-3.3,2.9-6.7,2.8-10.5c0-1.1-0.2-2.1-0.9-3
			c-0.6-0.9-1-1.9-2.3-2.8c0.7,2.9,0.3,5.5-0.1,8c-0.9,6.1-3.4,11.5-6.7,16.6c-0.9,1.4-1.8,2.8-2.7,4.3c-0.4,0.8-0.8,1.7-1.7,2.1
			c-8-5.5-9.6-18-3.2-26c5.1-6.4,13.8-8.9,21.4-6c7.6,2.9,12.6,10.3,12.1,18.5c-0.5,6.9-3.8,12.1-10,15.4c-0.5-0.2-0.6-0.5-0.6-1
			C30.6,94.3,32.1,93.8,31.9,92.5z"/>
		<path class="st2" d="M129.4,84.3c0,2.9,0,5.7,0,8.6c0,0.5,0.5,1.5-0.7,1.4c-1.2-0.1-0.7-1-0.7-1.5c-0.1-2.9-0.1-5.9,0-8.8
			c0-0.5-0.5-1.5,0.6-1.6c0.9-0.1,1.8-0.3,2.4,0.9c1.3,2.8,2.8,5.4,4.6,8.1c0-2.4-0.1-4.8,0-7.2c0-0.6-0.7-1.8,0.7-1.8
			c1.5,0,0.7,1.3,0.8,1.9c0.1,2.9,0.1,5.8,0,8.7c0,0.5,0.5,1.3-0.6,1.3c-0.7,0-1.3,0.1-1.8-0.8c-1.6-3.1-3.2-6.2-4.9-9.2
			C129.6,84.3,129.5,84.3,129.4,84.3z"/>
		<path class="st3" d="M66.8,94.2c-1.4,0.4-2.2,0-2.9-1c-0.8-1.1-1.7-2-2.5-3.1c-0.7-0.8-1.5-0.6-2.3-0.5c-0.8,0.2-0.4,1-0.5,1.5
			c-0.1,0.7,0,1.4,0,2.2c0,0.5,0.1,1-0.7,1c-0.7,0-0.9-0.3-0.9-1c0-2,0-4.1,0-6.1c0-0.4-0.1-0.9,0-1.3c0.2-1.2-0.6-2.6,0.5-3.5
			c1-0.8,5.5,0.1,6.4,1c1.4,1.4,1.2,3.8-0.6,5.1c-0.8,0.6-0.7,0.9-0.1,1.4C64.4,91.3,65.6,92.7,66.8,94.2z"/>
		<path class="st4" d="M125.4,88.6c-0.1,3.8-2.2,6.1-5.7,6c-3.4-0.1-5.3-2.5-5.3-6.4c0.1-3.9,2.1-6,5.7-5.9
			C123.6,82.3,125.5,84.7,125.4,88.6z"/>
		<path class="st5" d="M68.4,88.3c0-1.6,0-3.1,0-4.7c0-0.9,0.2-1.3,1.2-1.3c1.9,0.1,3.8,0,5.8,0c0.4,0,0.9-0.2,0.9,0.5
			c0,0.7-0.3,0.8-0.9,0.8c-1.3,0-2.7,0.1-4,0c-1.8-0.2-1.3,1.1-1.4,2c-0.1,1.1,0.2,1.6,1.5,1.5c1.3-0.1,2.5,0,3.8,0c0.5,0,1,0,1,0.7
			c0,0.8-0.6,0.6-1,0.6c-1.4,0-2.8,0-4.1,0c-0.8,0-1,0.2-1,1c-0.2,3.6-0.2,3.6,3.4,3.6c0.7,0,1.3,0,2,0c0.4,0,0.8,0,0.9,0.6
			c0,0.7-0.4,0.6-0.8,0.6c-2,0-4.1,0-6.1,0c-0.9,0-0.9-0.5-0.9-1.2C68.4,91.6,68.4,90,68.4,88.3z"/>
		<path class="st6" d="M96.6,91.8c1.7,1.1,3.3,1.7,5.1,1.4c1.1-0.2,2.2-0.6,2.3-1.9c0.1-1.4-0.9-1.8-2-2.1c-1.1-0.2-2.2-0.4-3.3-0.7
			c-1.3-0.4-2-1.3-2.1-2.7c-0.1-1.3,0.6-2.3,1.7-2.9c2.1-1.1,4.2-0.7,6.3-0.1c0.9,0.3,0.6,1,0.5,1.8c-1.4-0.5-2.6-1.2-4.1-1.1
			c-1.3,0.1-2.6,0.3-2.7,2c-0.1,1.6,1.2,1.7,2.3,2c1,0.2,2.1,0.4,3.1,0.8c2.2,0.9,2.6,3.5,0.8,5.1c-1.5,1.4-6,1.7-7.7,0.4
			C96.5,93.5,96.5,93.5,96.6,91.8z"/>
		<path class="st4" d="M46.8,72.3c1.7,1.1,3.4,1.7,5.2,1.5c1.2-0.1,2.1-0.6,2.3-1.9c0.2-1.5-0.9-1.8-2-2.1c-1-0.2-2.1-0.4-3.2-0.7
			c-1.3-0.4-2.1-1.2-2.2-2.5c-0.2-1.5,0.5-2.6,1.8-3.2c2-0.9,4.1-0.7,6.1,0c0.9,0.3,0.6,1,0.4,1.8c-1.4-0.5-2.6-1.2-4.1-1.1
			c-1.2,0.1-2.5,0.4-2.6,1.9c-0.1,1.5,1.1,1.8,2.3,2c1,0.2,2,0.4,3,0.7c1.2,0.3,2,1.1,2.1,2.4c0.1,1.2-0.3,2.3-1.3,3
			c-1.5,1.3-5.8,1.5-7.4,0.3C46.5,73.9,46.9,73.2,46.8,72.3z"/>
		<path class="st7" d="M67.8,74.7c-1.3,0.4-2.2,0-2.9-1c-0.8-1.1-1.7-2-2.6-3c-0.3-0.3-0.6-1.1-1.2-0.9c-0.6,0.3-1.2,0.8-1.1,1.7
			c0.1,0.8,0,1.6,0,2.3c0,0.5-0.1,0.9-0.7,0.9c-0.7,0-0.8-0.3-0.8-0.9c0-3.4,0-6.7,0-10.1c0-0.5,0-0.9,0.7-1c0.8,0,0.8,0.5,0.8,1.1
			c0,1.6,0,3.1,0,4.8c2.8-1.6,3.8-5.3,7.1-6c0.1,0.1,0.2,0.3,0.3,0.4c-1.4,1.5-2.8,3.1-4.3,4.5c-0.6,0.6-0.7,1,0,1.7
			C64.7,71.1,66.2,72.8,67.8,74.7z"/>
		<path class="st8" d="M47.3,88.4c0-1.6,0-3.2,0-4.9c0-0.9,0.3-1.2,1.1-1.1c1.3,0.1,2.5-0.1,3.8,0.2c2,0.5,2.9,1.7,2.8,3.6
			c-0.1,1.8-1.4,3.2-3.2,3.5c-1,0.2-2.3-0.5-2.8,0.5c-0.4,0.8-0.1,1.9-0.2,2.8c0,0.5,0.4,1.3-0.6,1.3c-1.1,0.1-0.9-0.7-0.9-1.3
			C47.3,91.5,47.3,89.9,47.3,88.4C47.3,88.4,47.3,88.4,47.3,88.4z"/>
		<path class="st6" d="M87.7,84.8c-3.4-1.7-5.6-1.7-7,0.1c-1.5,1.9-1.5,5.3,0,7.1c1.4,1.7,3.8,1.7,7,0c0.4,1,0.1,1.6-0.9,2
			c-2.8,1.1-5.9,0.5-7.5-1.4c-1.6-2-1.7-5.9-0.2-8.2c1.5-2.2,6.2-3,8.3-1.4C87.8,83.3,87.8,83.3,87.7,84.8z"/>
		<path class="st9" d="M73.1,68.1c1.9-1.5,1.8-4.7,5.2-5.3c-0.7,1.2-1.2,2.1-1.8,2.9c-1.8,2.4-2.9,5-2.4,8.2c0.1,0.6,0,1.1-0.8,1
			c-0.7,0-0.9-0.3-0.8-0.9c0.7-3.9-1.5-6.7-3.4-9.7c-0.2-0.3-0.4-0.7-0.6-1.1c1.5-0.2,1.5-0.2,2.7,1.7C71.8,65.9,72.4,67,73.1,68.1z
			"/>
		<path class="st10" d="M91.3,88.2c0-1,0-2,0-3.1c0-0.7,0.1-1.5-1-1.4c-0.4,0-0.6-0.3-0.6-0.8c0-0.5,0.4-0.5,0.8-0.5c1,0,2,0,3.1,0
			c0.3,0,0.8-0.1,0.8,0.5c0,0.5,0,0.9-0.6,0.9c-1.1,0-0.9,0.7-0.9,1.3c0,1.9-0.1,3.8,0,5.8c0,0.9-0.6,2.3,1.2,2.3
			c0.3,0,0.3,0.5,0.3,0.8c0,0.3-0.2,0.4-0.5,0.4c-1.2,0-2.4,0-3.6,0c-0.3,0-0.6-0.1-0.6-0.5c0-0.3,0.1-0.7,0.4-0.7
			c1.5,0,1.2-1,1.2-1.9C91.3,90.2,91.3,89.2,91.3,88.2C91.3,88.2,91.3,88.2,91.3,88.2z"/>
		<path class="st11" d="M110.4,82.4c0.4,0,0.8,0,1.3,0c0.4,0,0.9-0.1,0.9,0.6c0,0.4-0.1,0.8-0.6,0.7c-1-0.1-0.9,0.6-0.9,1.3
			c0,2.1,0,4.2,0,6.3c0,0.8-0.4,1.9,1.1,1.8c0.4,0,0.4,0.4,0.4,0.7c0,0.4-0.2,0.5-0.6,0.5c-1.1,0-2.3,0-3.4,0
			c-0.3,0-0.6-0.1-0.6-0.5c0-0.4,0.1-0.8,0.5-0.8c1.1,0.1,1-0.7,1-1.4c0-2,0-4.1,0-6.1c0-0.8,0.4-1.9-1.1-1.9
			c-0.4,0-0.5-0.5-0.4-0.9c0-0.4,0.4-0.4,0.7-0.4C109.2,82.4,109.8,82.4,110.4,82.4z"/>
		<path class="st12" d="M144.9,87.2c-0.2,1-1,1.4-1.8,1.7c-1.3,0.2-2.3-0.2-3.3-1.1l0,0c-1.1-2.1-0.9-3.2,1-4.5
			c1.4-0.7,2.6-0.6,3.7,0.7C145.4,85,145.8,86,144.9,87.2z"/>
		<path class="st13" d="M10.8,94.6c0.5-0.7,1-1.3,1.4-2c1-0.8,1.3-2.3,2.7-2.8c1.6-0.7,2.2-2.4,3.4-3.5c0.4-0.4,0.7-1.2,1.5-1
			c0.3,0,0.6-0.4,0.8,0.1c-0.8,2-2.4,3.3-3.7,4.9c-0.9,1.1-2.2,2-3.1,3.2c0.1,0.4,0.5,0.5,0.7,0.8c0.1,0.5,0.6,0.6,0.8,1
			c0,0.6-0.2,0.8-0.8,0.5c-0.3,0.1-0.6,0.3-0.7,0.6C12.5,96.2,11.8,95.3,10.8,94.6z"/>
		<path class="st14" d="M31.9,92.5c0.7,1.4-0.7,2-1.2,2.9c-1,1.7-2.8,2.1-4.6,2.5c-2.1,0.5-4.2,0.8-6.4,0.4
			c-0.9-0.1-1.8-0.3-2.6-0.4c2.4-0.4,4.8-0.3,7.1-0.8C27.4,96.5,30.3,95.6,31.9,92.5z"/>
		<path class="st15" d="M19.8,98.3c3.9-0.1,7.7-0.5,10.9-3c0.1,0.4,0.3,0.7,0.4,1.1C27.5,98.3,23.8,99.2,19.8,98.3z"/>
		<path class="st16" d="M144.9,87.2c0.6-3.1-0.9-4.5-4-3.8c-0.1-0.1-0.2-0.2-0.1-0.2c0-0.1,0.1-0.1,0.1-0.1c1.6-0.8,3.1-0.4,4.1,1
			C145.7,85,146.2,86.2,144.9,87.2z"/>
		<path class="st17" d="M140.9,83c0,0.1,0,0.3,0,0.4c-1.9,1.1-1.6,2.7-1.1,4.4C138.3,86.1,138.7,84.2,140.9,83z"/>
		<path class="st18" d="M139.9,87.8c1,0.6,2.2,0.8,3.3,1.1C141.7,89.5,140.6,89.1,139.9,87.8z"/>
		<path class="st19" d="M15.2,90c-1.1,0.7-1.5,2.1-2.9,2.6c0.1-1.1,0.9-1.7,1.4-2.6c3.6-5.6,6.7-11.5,7.8-18.2c0.5-3,0.4-6,0.1-9.2
			c1.6,0.9,2.3,2.2,3,3.5c1.4,3.5,0.7,6.9-0.6,10.3c-1.9,4.8-4.7,9-8,12.9C15.8,89.6,15.5,89.8,15.2,90z"/>
		<path class="st20" d="M13.4,93.7c-0.3-0.1-0.4-0.2-0.1-0.5c2.8-2.3,5.1-5.1,7.4-7.8c4.1-4.8,6.4-10.2,7-16.6c1.1,0.3,1,1.5,1.6,2
			c1,2.7,0.3,5.2-0.7,7.6c-1.7,4-4.4,7.3-7.5,10.2c-1.7,1.7-3.6,3.2-5.6,4.5C14.8,93.5,14.2,94.1,13.4,93.7z"/>
		<path class="st21" d="M15.2,95c-0.4,0.5-1,0.2-1.2-0.1c-0.3-0.4,0.4-0.3,0.5-0.6c1.4-1.8,3.5-2.7,5.1-4.1c2.5-2.2,5.3-4.1,7.1-7
			c0.3-0.4,0.6-0.8,1.1-0.9c1.9-2.3,2.9-5.1,3.8-7.8c0.8,0.1,0.4,0.9,0.9,1.1c1.1,2.9,0.1,5.5-1.5,7.8c-4,5.4-9.3,9.2-15.5,11.7
			C15.4,95,15.3,95,15.2,95z"/>
		<path class="st22" d="M14.5,95.8c0.6,0.1,0.6-0.3,0.7-0.8c0,0,0,0,0,0c1.7-0.6,3.3-1.3,4.9-2.2c0.7-0.4,1.4-1,2.3-0.7
			c4.4-1.4,7.8-4.2,10.4-7.9c0.5-0.7,0.7-1.7,1.5-2.1c0.6,1.5,0.2,2.9-0.4,4.2c-2.1,4.3-6,6.4-10.2,7.9c-2,0.7-4.1,1.5-6.4,1.5
			C16.4,95.4,15.5,96.6,14.5,95.8z"/>
		<path class="st23" d="M22.4,92.1c-2.3,1.2-4.5,2.8-7.2,2.9c0.2-0.6,0.8-0.6,1.3-0.8c5.3-2.5,10-5.9,13.7-10.5
			c1.9-2.4,2.9-5.1,2.3-8.2c0.8,1.1,1,2.2,0.7,3.6c-0.6,2.5-1.7,4.7-3.4,6.6C27.6,88.3,24.8,89.9,22.4,92.1z"/>
		<path class="st24" d="M15.2,90c3.1-3.9,5.8-7.9,7.9-12.4c1.7-3.7,2.5-7.5,1.6-11.5c1.8,2.1,1.2,4.6,0.8,7
			c-0.6,4.2-2.9,7.7-5.1,11.3c-0.2,0.3-0.3,0.6-0.5,0.9c-1,1.2-2,2.4-3,3.5C16.4,89.3,16.2,90.2,15.2,90z"/>
		<path class="st25" d="M20.6,88.6c3-3,5.6-6.2,7.4-10.1c1.1-2.5,1.7-5,1.3-7.7c0.9,0.6,0.8,1.5,0.8,2.4c0,3-0.8,5.7-2.5,8.1
			c-0.6,2.6-2.7,4.1-4.3,6c-0.5,0.5-1,1-1.6,1.5C21.2,89.1,20.8,89.4,20.6,88.6z"/>
		<path class="st26" d="M20.6,88.6c0.5,0.6,0.9,0,1.1-0.3c2-2.2,4.3-4.3,5.8-7c0.1,0.3,0.2,0.7,0.3,1c-2.9,4.7-7.2,7.9-11.7,11
			c-0.5,0.4-1.1,0.7-1.7,1c-0.5,0-1,0.1-1.1-0.6c2.4-0.9,4.1-2.7,6.1-4.2C19.9,89.2,20.2,88.9,20.6,88.6z"/>
		<path class="st27" d="M17.3,95.8c2.9-0.9,5.9-1.6,8.6-2.9c3.1-1.5,5.8-3.5,7.7-6.5c0.1-0.1,0.2-0.1,0.3,0c-1,3.2-3.6,4.9-6.3,6.5
			c-2.8,1.7-6.1,2.4-9.3,3.2C18,96.2,17.6,96.2,17.3,95.8z"/>
		<path class="st28" d="M34,86.4c-0.1,0-0.2,0-0.3,0c0.5-1.4,0.9-2.8,0.6-4.3C35.4,83.6,34.8,85,34,86.4z"/>
		<path class="st29" d="M58.7,85.9c0.1-1-0.5-2.4,1.6-2.3c2.1,0.2,3,0.7,3,2.3c-0.1,1.6-1,2.3-3.2,2.3
			C58.7,88.3,58.7,88.3,58.7,85.9z"/>
		<path class="st30" d="M123.8,88.3c0,3.3-1.6,5.1-4.4,4.9c-0.3,0-0.7-0.1-1-0.2c-2-0.9-2.9-3.7-2.2-6.4c0.6-2.2,2.1-3.3,4.2-3.1
			C122.6,83.8,123.8,85.6,123.8,88.3z"/>
		<path class="st31" d="M50.4,83.7c2.2,0.1,3.1,0.8,3.1,2.4c-0.1,1.6-1.3,2.6-3.4,2.4c-2.6-0.2-0.8-2.2-1.2-3.3
			C48.5,83.8,49.4,83.5,50.4,83.7z"/>
		<path class="st32" d="M142.4,84.2c0.9-0.1,1.7,0.5,1.2,1.1c-0.7,1,0,1.4,0.5,2.1c-1,0.1-1.2-0.7-1.8-1c-1-0.5-0.4,1-1.2,0.9
			c-0.4-0.9-0.2-1.9-0.1-2.8c0-0.6,0.4,0,0.6,0C142.4,85.4,142.3,84.6,142.4,84.2z"/>
		<path class="st33" d="M142.4,84.2c0,0.5,1,0.7,0.5,1.3c-0.2,0.2-0.5,0.4-0.8,0.3c-0.8-0.1-0.3-0.9-0.5-1.3
			C141.9,84.5,142.2,84.3,142.4,84.2z"/>
	</g>
</g>
</svg>
