<?xml version="1.0" encoding="utf-8"?>
<!-- Generator: Adobe Illustrator 22.0.0, SVG Export Plug-In . SVG Version: 6.00 Build 0)  -->
<svg version="1.1" id="Capa_1" xmlns="http://www.w3.org/2000/svg" xmlns:xlink="http://www.w3.org/1999/xlink" x="0px" y="0px"
	 viewBox="0 0 400 400" style="enable-background:new 0 0 400 400;" xml:space="preserve">
<style type="text/css">
	.st0{fill:#586222;}
	.st1{fill:#1F2041;}
	.st2{fill:none;}
	.st3{fill:#1D1D1B;}
</style>
<g>
	<path class="st0" d="M84.5,184v26c0,5.7-1.5,10-4.5,12.8c-3,2.8-7.3,4.2-13.1,4.2c-3,0-5.9-0.4-8.6-1.1c-2.7-0.7-5-1.8-6.7-3.2
		l3.6-6.5c1.3,1.1,3,1.9,5,2.6c2,0.6,4,1,6,1c3.1,0,5.5-0.7,6.9-2.1c1.5-1.4,2.2-3.6,2.2-6.4v-1.3c-2.4,2.6-5.7,3.9-9.9,3.9
		c-2.9,0-5.5-0.6-7.9-1.9c-2.4-1.3-4.3-3-5.7-5.3c-1.4-2.3-2.1-4.9-2.1-7.9c0-3,0.7-5.6,2.1-7.9c1.4-2.3,3.3-4.1,5.7-5.3
		c2.4-1.3,5-1.9,7.9-1.9c4.5,0,8,1.5,10.3,4.5v-4H84.5z M73.3,204.2c1.5-1.4,2.3-3.3,2.3-5.5c0-2.3-0.8-4.1-2.3-5.5
		c-1.5-1.4-3.5-2.1-5.9-2.1c-2.4,0-4.4,0.7-5.9,2.1c-1.5,1.4-2.3,3.3-2.3,5.5c0,2.3,0.8,4.1,2.3,5.5c1.5,1.4,3.5,2.1,5.9,2.1
		C69.8,206.3,71.7,205.6,73.3,204.2z"/>
	<path class="st0" d="M123.4,202.2H99.7c0.4,1.9,1.4,3.5,3,4.6c1.6,1.1,3.6,1.7,5.9,1.7c1.6,0,3.1-0.2,4.3-0.7
		c1.3-0.5,2.4-1.2,3.5-2.3l4.8,5.2c-2.9,3.4-7.2,5.1-12.9,5.1c-3.5,0-6.6-0.7-9.4-2.1c-2.7-1.4-4.8-3.3-6.3-5.7
		c-1.5-2.4-2.2-5.2-2.2-8.3c0-3.1,0.7-5.8,2.2-8.3c1.5-2.5,3.4-4.4,6-5.8c2.5-1.4,5.4-2.1,8.5-2.1c3.1,0,5.8,0.7,8.3,2
		c2.5,1.3,4.4,3.2,5.8,5.7c1.4,2.5,2.1,5.3,2.1,8.6C123.5,199.8,123.5,200.6,123.4,202.2z M102.2,192.1c-1.4,1.2-2.2,2.8-2.6,4.8
		H115c-0.3-2-1.2-3.6-2.6-4.7c-1.4-1.2-3.1-1.8-5.1-1.8C105.3,190.4,103.6,190.9,102.2,192.1z"/>
	<path class="st0" d="M135.6,213.6c-2.6-1.4-4.7-3.3-6.1-5.7c-1.5-2.4-2.2-5.2-2.2-8.3c0-3.1,0.7-5.9,2.2-8.3
		c1.5-2.4,3.5-4.3,6.1-5.7c2.6-1.4,5.6-2.1,8.9-2.1c3.3,0,6.2,0.7,8.8,2.1c2.6,1.4,4.6,3.3,6.1,5.7c1.5,2.4,2.2,5.2,2.2,8.3
		c0,3.1-0.7,5.9-2.2,8.3c-1.5,2.4-3.5,4.3-6.1,5.7c-2.6,1.4-5.5,2.1-8.8,2.1C141.2,215.7,138.2,215,135.6,213.6z M150.2,205.9
		c1.5-1.6,2.2-3.7,2.2-6.3c0-2.6-0.7-4.7-2.2-6.3c-1.5-1.6-3.4-2.4-5.7-2.4c-2.3,0-4.2,0.8-5.8,2.4c-1.5,1.6-2.3,3.7-2.3,6.3
		c0,2.6,0.8,4.7,2.3,6.3c1.5,1.6,3.4,2.4,5.8,2.4C146.8,208.3,148.7,207.5,150.2,205.9z"/>
	<path class="st1" d="M173.8,213.6c-2.7-1.4-4.7-3.3-6.2-5.7c-1.5-2.4-2.2-5.2-2.2-8.3c0-3.1,0.7-5.9,2.2-8.3
		c1.5-2.4,3.6-4.3,6.2-5.7c2.7-1.4,5.6-2.1,9-2.1c3.3,0,6.2,0.7,8.6,2.1c2.5,1.4,4.3,3.3,5.4,5.9l-7,3.8c-1.6-2.9-4-4.3-7-4.3
		c-2.4,0-4.3,0.8-5.9,2.3c-1.5,1.5-2.3,3.7-2.3,6.3s0.8,4.8,2.3,6.3c1.5,1.5,3.5,2.3,5.9,2.3c3.1,0,5.4-1.4,7-4.3l7,3.8
		c-1.1,2.5-2.9,4.4-5.4,5.8c-2.5,1.4-5.3,2.1-8.6,2.1C179.4,215.7,176.4,215,173.8,213.6z"/>
	<path class="st1" d="M225.7,187c2.6,2.3,3.9,5.8,3.9,10.4v17.8h-8.5v-3.9c-1.7,2.9-4.9,4.4-9.5,4.4c-2.4,0-4.5-0.4-6.2-1.2
		c-1.8-0.8-3.1-1.9-4-3.4c-0.9-1.4-1.4-3.1-1.4-4.9c0-2.9,1.1-5.2,3.3-6.9c2.2-1.7,5.6-2.5,10.1-2.5h7.2c0-2-0.6-3.5-1.8-4.6
		c-1.2-1.1-3-1.6-5.4-1.6c-1.7,0-3.3,0.3-4.9,0.8c-1.6,0.5-3,1.2-4.1,2.1l-3.3-6.3c1.7-1.2,3.7-2.1,6.1-2.8c2.4-0.7,4.8-1,7.3-1
		C219.4,183.5,223.1,184.7,225.7,187z M218,208.5c1.2-0.7,2.1-1.8,2.6-3.2v-3.2h-6.2c-3.7,0-5.6,1.2-5.6,3.7c0,1.2,0.5,2.1,1.4,2.8
		c0.9,0.7,2.2,1,3.7,1C215.4,209.6,216.8,209.2,218,208.5z"/>
	<path class="st1" d="M250.9,184.7c1.8-0.8,4-1.2,6.4-1.2v8.4c-1-0.1-1.7-0.1-2-0.1c-2.6,0-4.6,0.7-6.1,2.2
		c-1.5,1.5-2.2,3.6-2.2,6.5v14.8h-9.1V184h8.7v4.1C247.6,186.6,249,185.4,250.9,184.7z"/>
	<path class="st1" d="M283.9,213.7c-0.9,0.7-2,1.2-3.3,1.5c-1.3,0.3-2.7,0.5-4.1,0.5c-3.7,0-6.6-0.9-8.6-2.8c-2-1.9-3-4.7-3-8.4
		v-12.8H260v-7h4.8v-7.6h9.1v7.6h7.8v7h-7.8v12.7c0,1.3,0.3,2.3,1,3c0.7,0.7,1.6,1.1,2.9,1.1c1.4,0,2.7-0.4,3.7-1.2L283.9,213.7z"/>
	<path class="st1" d="M294,213.6c-2.6-1.4-4.7-3.3-6.1-5.7s-2.2-5.2-2.2-8.3c0-3.1,0.7-5.9,2.2-8.3c1.5-2.4,3.5-4.3,6.1-5.7
		c2.6-1.4,5.6-2.1,8.9-2.1s6.2,0.7,8.8,2.1c2.6,1.4,4.6,3.3,6.1,5.7c1.5,2.4,2.2,5.2,2.2,8.3c0,3.1-0.7,5.9-2.2,8.3
		c-1.5,2.4-3.5,4.3-6.1,5.7c-2.6,1.4-5.5,2.1-8.8,2.1S296.6,215,294,213.6z M308.6,205.9c1.5-1.6,2.2-3.7,2.2-6.3
		c0-2.6-0.7-4.7-2.2-6.3c-1.5-1.6-3.4-2.4-5.7-2.4c-2.3,0-4.2,0.8-5.8,2.4c-1.5,1.6-2.3,3.7-2.3,6.3c0,2.6,0.8,4.7,2.3,6.3
		c1.5,1.6,3.4,2.4,5.8,2.4C305.2,208.3,307.1,207.5,308.6,205.9z"/>
	<path class="st1" d="M329,214.7c-2.5-0.6-4.5-1.4-5.9-2.4l3-6.5c1.4,0.9,3.1,1.6,5.1,2.2c2,0.6,3.9,0.8,5.8,0.8
		c3.8,0,5.8-0.9,5.8-2.8c0-0.9-0.5-1.5-1.6-1.9s-2.7-0.7-4.8-1c-2.6-0.4-4.7-0.8-6.3-1.3c-1.7-0.5-3.1-1.4-4.3-2.7
		c-1.2-1.3-1.8-3.1-1.8-5.5c0-2,0.6-3.7,1.7-5.3c1.1-1.5,2.8-2.7,5-3.6c2.2-0.9,4.8-1.3,7.8-1.3c2.2,0,4.4,0.2,6.6,0.7
		c2.2,0.5,4,1.2,5.4,2l-3,6.4c-2.8-1.5-5.8-2.3-9-2.3c-1.9,0-3.4,0.3-4.4,0.8c-1,0.5-1.5,1.2-1.5,2.1c0,1,0.5,1.6,1.6,2
		c1,0.4,2.7,0.8,5,1.1c2.6,0.4,4.6,0.9,6.3,1.4c1.6,0.5,3,1.4,4.2,2.6c1.2,1.3,1.8,3.1,1.8,5.3c0,1.9-0.6,3.7-1.7,5.2
		c-1.2,1.5-2.9,2.7-5.1,3.5c-2.2,0.8-4.9,1.2-7.9,1.2C334,215.7,331.5,215.4,329,214.7z"/>
</g>
<g>
	<rect x="85.2" y="224.9" class="st2" width="235.7" height="19.4"/>
	<path class="st3" d="M96.4,231.9h0.6v4.6c-0.5,0.5-1.2,0.9-1.9,1.2c-0.7,0.3-1.5,0.4-2.4,0.4c-1.2,0-2.3-0.3-3.3-0.8
		c-1-0.5-1.7-1.3-2.3-2.2c-0.6-1-0.8-2-0.8-3.2c0-1.2,0.3-2.2,0.8-3.2c0.6-1,1.3-1.7,2.3-2.2c1-0.5,2.1-0.8,3.3-0.8
		c0.9,0,1.7,0.1,2.4,0.4c0.7,0.3,1.4,0.7,1.9,1.2l-0.4,0.4c-1-1-2.4-1.5-4-1.5c-1.1,0-2.1,0.3-3,0.8c-0.9,0.5-1.6,1.2-2.1,2.1
		c-0.5,0.9-0.8,1.8-0.8,2.9s0.3,2,0.8,2.9s1.2,1.6,2.1,2.1c0.9,0.5,1.9,0.8,3,0.8c1.5,0,2.8-0.4,3.7-1.3V231.9z"/>
	<path class="st3" d="M101.1,225.6h0.6V238h-0.6V225.6z"/>
	<path class="st3" d="M106.8,237.6c-0.8-0.3-1.4-0.7-1.9-1.2l0.3-0.4c0.4,0.5,1,0.9,1.7,1.2c0.7,0.3,1.5,0.5,2.4,0.5
		c1.2,0,2.2-0.2,2.8-0.7c0.6-0.5,0.9-1.1,0.9-1.9c0-0.6-0.2-1.1-0.5-1.4c-0.3-0.4-0.7-0.6-1.2-0.8c-0.5-0.2-1.1-0.4-2-0.6
		c-0.9-0.2-1.6-0.4-2.2-0.7c-0.5-0.2-1-0.5-1.4-1c-0.4-0.4-0.6-1-0.6-1.8c0-0.6,0.2-1.1,0.5-1.6c0.3-0.5,0.8-0.9,1.4-1.2
		c0.6-0.3,1.4-0.4,2.4-0.4c0.7,0,1.3,0.1,2,0.3c0.7,0.2,1.2,0.5,1.7,0.8l-0.3,0.5c-0.5-0.4-1-0.6-1.6-0.8c-0.6-0.2-1.2-0.3-1.8-0.3
		c-1.2,0-2.1,0.3-2.7,0.8c-0.6,0.5-0.9,1.1-0.9,1.9c0,0.6,0.2,1.1,0.5,1.4s0.7,0.6,1.2,0.8c0.5,0.2,1.1,0.4,2,0.6
		c0.9,0.2,1.6,0.4,2.2,0.6s1,0.5,1.4,1c0.4,0.4,0.6,1,0.6,1.7c0,0.6-0.2,1.1-0.5,1.6c-0.3,0.5-0.8,0.9-1.4,1.1s-1.4,0.4-2.4,0.4
		C108.5,238.1,107.6,237.9,106.8,237.6z"/>
	<path class="st3" d="M122.3,225.8c-0.3,0.3-0.5,0.8-0.5,1.4v1.6h3v0.5h-3v8.7h-0.6v-8.7h-1.7v-0.5h1.7v-1.6c0-0.7,0.2-1.3,0.6-1.7
		c0.4-0.4,1-0.6,1.7-0.6c0.4,0,0.7,0.1,1,0.2c0.3,0.1,0.6,0.3,0.8,0.5l-0.3,0.4c-0.4-0.4-0.9-0.5-1.5-0.5
		C123,225.3,122.6,225.5,122.3,225.8z"/>
	<path class="st3" d="M127.7,237.4c-0.7-0.4-1.2-0.9-1.6-1.7c-0.4-0.7-0.6-1.5-0.6-2.4c0-0.9,0.2-1.7,0.6-2.4
		c0.4-0.7,0.9-1.3,1.6-1.7s1.5-0.6,2.3-0.6c0.9,0,1.6,0.2,2.3,0.6c0.7,0.4,1.2,0.9,1.6,1.7c0.4,0.7,0.6,1.5,0.6,2.4
		c0,0.9-0.2,1.7-0.6,2.4c-0.4,0.7-0.9,1.3-1.6,1.7c-0.7,0.4-1.5,0.6-2.3,0.6C129.1,238,128.4,237.8,127.7,237.4z M132,237
		c0.6-0.3,1.1-0.8,1.4-1.5s0.5-1.3,0.5-2.1c0-0.8-0.2-1.5-0.5-2.1s-0.8-1.1-1.4-1.4s-1.3-0.5-2-0.5c-0.7,0-1.4,0.2-2,0.5
		c-0.6,0.3-1.1,0.8-1.4,1.4s-0.5,1.3-0.5,2.1c0,0.8,0.2,1.5,0.5,2.1s0.8,1.1,1.4,1.5c0.6,0.3,1.3,0.5,2,0.5
		C130.7,237.5,131.4,237.3,132,237z"/>
	<path class="st3" d="M139.3,229.3c0.6-0.4,1.4-0.6,2.3-0.6v0.6h-0.2c-1.1,0-1.9,0.3-2.5,1s-0.9,1.6-0.9,2.8v4.9h-0.6v-9.2h0.6v2.2
		C138.2,230.3,138.6,229.7,139.3,229.3z"/>
	<path class="st3" d="M156.3,233.5h-8c0,0.8,0.2,1.5,0.5,2.1c0.4,0.6,0.8,1.1,1.5,1.4c0.6,0.3,1.3,0.5,2.1,0.5
		c0.6,0,1.2-0.1,1.7-0.3c0.5-0.2,1-0.6,1.3-1l0.4,0.4c-0.4,0.5-0.9,0.9-1.5,1.1c-0.6,0.3-1.2,0.4-1.9,0.4c-0.9,0-1.7-0.2-2.4-0.6
		c-0.7-0.4-1.3-0.9-1.7-1.7c-0.4-0.7-0.6-1.5-0.6-2.4c0-0.9,0.2-1.7,0.6-2.4c0.4-0.7,0.9-1.3,1.5-1.7c0.7-0.4,1.4-0.6,2.2-0.6
		c0.8,0,1.5,0.2,2.2,0.6c0.7,0.4,1.2,0.9,1.5,1.6c0.4,0.7,0.6,1.5,0.6,2.4V233.5z M150.1,229.8c-0.6,0.3-1,0.8-1.3,1.3
		c-0.3,0.6-0.5,1.2-0.5,1.9h7.5c0-0.7-0.2-1.3-0.6-1.9c-0.3-0.6-0.8-1-1.3-1.3s-1.2-0.5-1.8-0.5
		C151.3,229.3,150.7,229.4,150.1,229.8z"/>
	<path class="st3" d="M166.1,228.8l-4.2,9.2h-0.6l-4.2-9.2h0.6l3.9,8.5l3.9-8.5H166.1z"/>
	<path class="st3" d="M175.4,233.5h-8c0,0.8,0.2,1.5,0.5,2.1c0.4,0.6,0.8,1.1,1.5,1.4c0.6,0.3,1.3,0.5,2.1,0.5
		c0.6,0,1.2-0.1,1.7-0.3c0.5-0.2,1-0.6,1.3-1l0.4,0.4c-0.4,0.5-0.9,0.9-1.5,1.1c-0.6,0.3-1.2,0.4-1.9,0.4c-0.9,0-1.7-0.2-2.4-0.6
		c-0.7-0.4-1.3-0.9-1.7-1.7c-0.4-0.7-0.6-1.5-0.6-2.4c0-0.9,0.2-1.7,0.6-2.4c0.4-0.7,0.9-1.3,1.5-1.7c0.7-0.4,1.4-0.6,2.2-0.6
		c0.8,0,1.5,0.2,2.2,0.6c0.7,0.4,1.2,0.9,1.5,1.6c0.4,0.7,0.6,1.5,0.6,2.4V233.5z M169.3,229.8c-0.6,0.3-1,0.8-1.3,1.3
		c-0.3,0.6-0.5,1.2-0.5,1.9h7.5c0-0.7-0.2-1.3-0.6-1.9c-0.3-0.6-0.8-1-1.3-1.3s-1.2-0.5-1.8-0.5
		C170.4,229.3,169.8,229.4,169.3,229.8z"/>
	<path class="st3" d="M180.2,229.3c0.6-0.4,1.4-0.6,2.3-0.6v0.6h-0.2c-1.1,0-1.9,0.3-2.5,1s-0.9,1.6-0.9,2.8v4.9h-0.6v-9.2h0.6v2.2
		C179.1,230.3,179.6,229.7,180.2,229.3z"/>
	<path class="st3" d="M192.5,228.8l-4.8,10.6c-0.3,0.8-0.7,1.3-1.2,1.6c-0.4,0.3-0.9,0.5-1.5,0.5c-0.4,0-0.8-0.1-1.1-0.2
		c-0.4-0.1-0.7-0.3-0.9-0.6l0.3-0.5c0.2,0.3,0.5,0.5,0.8,0.6c0.3,0.1,0.6,0.2,0.9,0.2c0.5,0,0.9-0.1,1.2-0.4
		c0.3-0.3,0.7-0.7,0.9-1.3l0.6-1.3l-4.2-9.2h0.6l3.9,8.5l3.9-8.5H192.5z"/>
	<path class="st3" d="M195.5,237.4c-0.7-0.4-1.2-0.9-1.6-1.7c-0.4-0.7-0.6-1.5-0.6-2.4c0-0.9,0.2-1.7,0.6-2.4
		c0.4-0.7,0.9-1.3,1.6-1.7s1.5-0.6,2.3-0.6c0.9,0,1.6,0.2,2.3,0.6s1.2,0.9,1.6,1.7c0.4,0.7,0.6,1.5,0.6,2.4c0,0.9-0.2,1.7-0.6,2.4
		s-0.9,1.3-1.6,1.7s-1.5,0.6-2.3,0.6C196.9,238,196.1,237.8,195.5,237.4z M199.8,237c0.6-0.3,1.1-0.8,1.4-1.5
		c0.3-0.6,0.5-1.3,0.5-2.1c0-0.8-0.2-1.5-0.5-2.1c-0.3-0.6-0.8-1.1-1.4-1.4c-0.6-0.3-1.3-0.5-2-0.5c-0.7,0-1.4,0.2-2,0.5
		c-0.6,0.3-1.1,0.8-1.4,1.4s-0.5,1.3-0.5,2.1c0,0.8,0.2,1.5,0.5,2.1s0.8,1.1,1.4,1.5c0.6,0.3,1.3,0.5,2,0.5
		C198.5,237.5,199.2,237.3,199.8,237z"/>
	<path class="st3" d="M212.2,229.7c0.7,0.7,1,1.6,1,2.9v5.4h-0.6v-5.4c0-1.1-0.3-1.9-0.8-2.5c-0.5-0.6-1.3-0.9-2.3-0.9
		c-1.1,0-2,0.3-2.7,1s-1,1.6-1,2.7v5h-0.6v-9.2h0.6v2.2c0.3-0.7,0.8-1.3,1.4-1.7c0.7-0.4,1.4-0.6,2.3-0.6
		C210.6,228.7,211.5,229.1,212.2,229.7z"/>
	<path class="st3" d="M224.6,233.5h-8c0,0.8,0.2,1.5,0.5,2.1c0.4,0.6,0.8,1.1,1.5,1.4c0.6,0.3,1.3,0.5,2.1,0.5
		c0.6,0,1.2-0.1,1.7-0.3c0.5-0.2,1-0.6,1.3-1l0.4,0.4c-0.4,0.5-0.9,0.9-1.5,1.1c-0.6,0.3-1.2,0.4-1.9,0.4c-0.9,0-1.7-0.2-2.4-0.6
		s-1.3-0.9-1.7-1.7c-0.4-0.7-0.6-1.5-0.6-2.4c0-0.9,0.2-1.7,0.6-2.4c0.4-0.7,0.9-1.3,1.5-1.7c0.7-0.4,1.4-0.6,2.2-0.6
		c0.8,0,1.5,0.2,2.2,0.6s1.2,0.9,1.5,1.6s0.6,1.5,0.6,2.4V233.5z M218.4,229.8c-0.6,0.3-1,0.8-1.3,1.3c-0.3,0.6-0.5,1.2-0.5,1.9h7.5
		c0-0.7-0.2-1.3-0.6-1.9c-0.3-0.6-0.8-1-1.3-1.3s-1.2-0.5-1.8-0.5S219,229.4,218.4,229.8z"/>
	<path class="st3" d="M227.6,237.1c0.1,0.1,0.2,0.3,0.2,0.4c0,0.1,0,0.2,0,0.3s-0.1,0.2-0.1,0.3l-0.6,2.4h-0.5l0.5-2.4
		c-0.2,0-0.3-0.1-0.4-0.2c-0.1-0.1-0.1-0.2-0.1-0.4c0-0.2,0.1-0.3,0.2-0.4c0.1-0.1,0.3-0.2,0.4-0.2S227.5,236.9,227.6,237.1z"/>
	<path class="st3" d="M240.8,229.6c0.6,0.6,0.9,1.4,0.9,2.5v5.9h-0.6v-1.8c-0.3,0.6-0.7,1.1-1.3,1.4c-0.6,0.3-1.3,0.5-2.1,0.5
		c-1,0-1.8-0.2-2.4-0.7c-0.6-0.5-0.9-1.1-0.9-1.9c0-0.7,0.3-1.3,0.8-1.8s1.4-0.7,2.5-0.7h3.3V232c0-0.9-0.2-1.6-0.7-2.1
		c-0.5-0.5-1.2-0.7-2.1-0.7c-0.6,0-1.3,0.1-1.8,0.3c-0.6,0.2-1,0.5-1.4,0.9l-0.3-0.4c0.4-0.4,1-0.8,1.6-1c0.6-0.2,1.3-0.4,2-0.4
		C239.4,228.7,240.2,229,240.8,229.6z M241.1,235.3v-1.9h-3.3c-1,0-1.7,0.2-2.1,0.5c-0.4,0.4-0.7,0.8-0.7,1.5c0,0.7,0.2,1.2,0.7,1.6
		c0.5,0.4,1.2,0.6,2,0.6C239.4,237.5,240.5,236.8,241.1,235.3z"/>
	<path class="st3" d="M252.5,229.7c0.7,0.7,1,1.6,1,2.9v5.4H253v-5.4c0-1.1-0.3-1.9-0.8-2.5c-0.5-0.6-1.3-0.9-2.3-0.9
		c-1.1,0-2,0.3-2.7,1s-1,1.6-1,2.7v5h-0.6v-9.2h0.6v2.2c0.3-0.7,0.8-1.3,1.4-1.7c0.7-0.4,1.4-0.6,2.3-0.6
		C251,228.7,251.9,229.1,252.5,229.7z"/>
	<path class="st3" d="M264.3,228.8l-4.8,10.6c-0.3,0.8-0.7,1.3-1.2,1.6c-0.4,0.3-0.9,0.5-1.5,0.5c-0.4,0-0.8-0.1-1.1-0.2
		s-0.7-0.3-0.9-0.6l0.3-0.5c0.2,0.3,0.5,0.5,0.8,0.6c0.3,0.1,0.6,0.2,0.9,0.2c0.5,0,0.9-0.1,1.2-0.4c0.3-0.3,0.7-0.7,0.9-1.3
		l0.6-1.3l-4.2-9.2h0.6l3.9,8.5l3.9-8.5H264.3z"/>
	<path class="st3" d="M279.1,228.8l-3.5,9.2h-0.5l-3.3-8.4l-3.3,8.4H268l-3.5-9.2h0.6l3.2,8.5l3.3-8.5h0.5l3.3,8.5l3.2-8.5H279.1z"
		/>
	<path class="st3" d="M288.3,229.7c0.7,0.7,1,1.6,1,2.9v5.4h-0.6v-5.4c0-1.1-0.3-1.9-0.8-2.5c-0.5-0.6-1.3-0.9-2.3-0.9
		c-1.1,0-2,0.3-2.7,1s-1,1.6-1,2.7v5h-0.6v-13.1h0.6v6.1c0.3-0.7,0.8-1.3,1.4-1.7s1.4-0.6,2.3-0.6
		C286.8,228.7,287.7,229.1,288.3,229.7z"/>
	<path class="st3" d="M300.7,233.5h-8c0,0.8,0.2,1.5,0.5,2.1c0.4,0.6,0.8,1.1,1.5,1.4c0.6,0.3,1.3,0.5,2.1,0.5
		c0.6,0,1.2-0.1,1.7-0.3c0.5-0.2,1-0.6,1.3-1l0.4,0.4c-0.4,0.5-0.9,0.9-1.5,1.1c-0.6,0.3-1.2,0.4-1.9,0.4c-0.9,0-1.7-0.2-2.4-0.6
		s-1.3-0.9-1.7-1.7c-0.4-0.7-0.6-1.5-0.6-2.4c0-0.9,0.2-1.7,0.6-2.4c0.4-0.7,0.9-1.3,1.5-1.7c0.7-0.4,1.4-0.6,2.2-0.6
		c0.8,0,1.5,0.2,2.2,0.6s1.2,0.9,1.5,1.6s0.6,1.5,0.6,2.4V233.5z M294.6,229.8c-0.6,0.3-1,0.8-1.3,1.3c-0.3,0.6-0.5,1.2-0.5,1.9h7.5
		c0-0.7-0.2-1.3-0.6-1.9c-0.3-0.6-0.8-1-1.3-1.3s-1.2-0.5-1.8-0.5S295.1,229.4,294.6,229.8z"/>
	<path class="st3" d="M305.5,229.3c0.6-0.4,1.4-0.6,2.3-0.6v0.6h-0.2c-1.1,0-1.9,0.3-2.5,1c-0.6,0.7-0.9,1.6-0.9,2.8v4.9h-0.6v-9.2
		h0.6v2.2C304.4,230.3,304.9,229.7,305.5,229.3z"/>
	<path class="st3" d="M317.8,233.5h-8c0,0.8,0.2,1.5,0.5,2.1c0.4,0.6,0.8,1.1,1.5,1.4c0.6,0.3,1.3,0.5,2.1,0.5
		c0.6,0,1.2-0.1,1.7-0.3c0.5-0.2,1-0.6,1.3-1l0.4,0.4c-0.4,0.5-0.9,0.9-1.5,1.1c-0.6,0.3-1.2,0.4-1.9,0.4c-0.9,0-1.7-0.2-2.4-0.6
		s-1.3-0.9-1.7-1.7c-0.4-0.7-0.6-1.5-0.6-2.4c0-0.9,0.2-1.7,0.6-2.4c0.4-0.7,0.9-1.3,1.5-1.7c0.7-0.4,1.4-0.6,2.2-0.6
		c0.8,0,1.5,0.2,2.2,0.6s1.2,0.9,1.5,1.6s0.6,1.5,0.6,2.4V233.5z M311.6,229.8c-0.6,0.3-1,0.8-1.3,1.3c-0.3,0.6-0.5,1.2-0.5,1.9h7.5
		c0-0.7-0.2-1.3-0.6-1.9c-0.3-0.6-0.8-1-1.3-1.3s-1.2-0.5-1.8-0.5S312.2,229.4,311.6,229.8z"/>
</g>
<g>
	<rect class="st2" width="397.8" height="397.8"/>
</g>
</svg>
